<?xml version="1.0" encoding="UTF-8" standalone="no"?>
<!DOCTYPE svg PUBLIC "-//W3C//DTD SVG 1.1//EN"
 "http://www.w3.org/Graphics/SVG/1.1/DTD/svg11.dtd">
<!-- Generated by graphviz version 2.44.1 (0)
 -->
<!-- Pages: 1 -->
<svg width="2801pt" height="1079pt"
 viewBox="0.00 0.00 2801.00 1079.00" xmlns="http://www.w3.org/2000/svg" xmlns:xlink="http://www.w3.org/1999/xlink">
<g id="graph0" class="graph" transform="scale(1 1) rotate(0) translate(4 1075)">
<polygon fill="white" stroke="transparent" points="-4,4 -4,-1075 2797,-1075 2797,4 -4,4"/>
<g id="clust1" class="cluster">
<title>cluster_authentication</title>
<polygon fill="none" stroke="black" stroke-dasharray="1,5" points="1955,-608 1955,-782 2279,-782 2279,-608 1955,-608"/>
<text text-anchor="middle" x="2117" y="-766.8" font-family="Times,serif" font-size="14.00">Authentication (Week 4):</text>
<text text-anchor="middle" x="2117" y="-751.8" font-family="Times,serif" font-size="14.00">(The reasoning here is that the database</text>
<text text-anchor="middle" x="2117" y="-736.8" font-family="Times,serif" font-size="14.00">has to be built first, and the functionality</text>
<text text-anchor="middle" x="2117" y="-721.8" font-family="Times,serif" font-size="14.00">can be made first, with authentication checks built after)</text>
</g>
<g id="clust2" class="cluster">
<title>cluster_ui</title>
<polygon fill="none" stroke="black" stroke-dasharray="1,5" points="82,-35 82,-544 550,-544 550,-35 82,-35"/>
<text text-anchor="middle" x="316" y="-528.8" font-family="Times,serif" font-size="14.00">User Interface (Week 1)</text>
</g>
<g id="clust3" class="cluster">
<title>cluster_redirect</title>
<polygon fill="none" stroke="black" stroke-dasharray="1,5" points="2342,-495 2342,-896 2711,-896 2711,-495 2342,-495"/>
<text text-anchor="middle" x="2526.5" y="-880.8" font-family="Times,serif" font-size="14.00">Redirects (Week 5)</text>
</g>
<g id="clust4" class="cluster">
<title>cluster_formvalidation</title>
<polygon fill="none" stroke="black" stroke-dasharray="1,5" points="570,-19 570,-346 997,-346 997,-19 570,-19"/>
<text text-anchor="middle" x="783.5" y="-330.8" font-family="Times,serif" font-size="14.00">Form Validation (Week 2)</text>
</g>
<g id="clust5" class="cluster">
<title>cluster_database</title>
<polygon fill="none" stroke="black" stroke-dasharray="1,5" points="1017,-91 1017,-600 2322,-600 2322,-91 1017,-91"/>
<text text-anchor="middle" x="1669.5" y="-584.8" font-family="Times,serif" font-size="14.00">Database (Weeks 3&#45;4)</text>
</g>
<g id="clust6" class="cluster">
<title>cluster_schedule</title>
<polygon fill="none" stroke="black" stroke-dasharray="1,5" points="655,-934 655,-1063 2269.5,-1063 2269.5,-934 655,-934"/>
<text text-anchor="middle" x="1462.25" y="-1047.8" font-family="Times,serif" font-size="14.00">Schedule: (Weeks 1&#45;3, Latest start: Week 3, Should take 1 week to complete)</text>
</g>
<g id="clust7" class="cluster">
<title>cluster_payment</title>
<polygon fill="none" stroke="black" stroke-dasharray="1,5" points="2018,-8 2018,-83 2684,-83 2684,-8 2018,-8"/>
<text text-anchor="middle" x="2351" y="-67.8" font-family="Times,serif" font-size="14.00">Payment (Week 5)</text>
</g>
<!-- 311 -->
<g id="node1" class="node">
<title>311</title>
<polygon fill="none" stroke="black" points="2247,-652 1987,-652 1987,-616 2247,-616 2247,-652"/>
<text text-anchor="middle" x="2117" y="-630.3" font-family="Times,serif" font-size="14.00">3.1.1 Ensure user is registered and logged in</text>
</g>
<!-- 315 -->
<g id="node16" class="node">
<title>315</title>
<polygon fill="none" stroke="black" points="2625.5,-703 2427.5,-703 2427.5,-667 2625.5,-667 2625.5,-703"/>
<text text-anchor="middle" x="2526.5" y="-681.3" font-family="Times,serif" font-size="14.00">3.1.5 Redirect user to home page</text>
</g>
<!-- 311&#45;&gt;315 -->
<g id="edge28" class="edge">
<title>311&#45;&gt;315</title>
<path fill="none" stroke="black" d="M2247.22,-650.17C2301.96,-657.02 2365.04,-664.92 2417.29,-671.46"/>
<polygon fill="black" stroke="black" points="2416.89,-674.93 2427.25,-672.7 2417.76,-667.99 2416.89,-674.93"/>
</g>
<!-- 712 -->
<g id="node2" class="node">
<title>712</title>
<polygon fill="none" stroke="black" points="2214.5,-706 2019.5,-706 2019.5,-670 2214.5,-670 2214.5,-706"/>
<text text-anchor="middle" x="2117" y="-684.3" font-family="Times,serif" font-size="14.00">7.1.2 Check if user is authorized</text>
</g>
<!-- 716 -->
<g id="node44" class="node">
<title>716</title>
<polygon fill="none" stroke="black" points="2208,-52 2026,-52 2026,-16 2208,-16 2208,-52"/>
<text text-anchor="middle" x="2117" y="-30.3" font-family="Times,serif" font-size="14.00">7.1.6 Charge user&#39;s credit card</text>
</g>
<!-- 712&#45;&gt;716 -->
<g id="edge47" class="edge">
<title>712:e&#45;&gt;716</title>
<path fill="none" stroke="black" d="M2215,-688C2215,-688 2322,-661 2322,-661 2322,-661 2340,-652 2340,-652 2340,-652 2340,-96 2340,-96 2340,-96 2322,-87 2322,-87 2322,-87 2254.19,-69.47 2196.57,-54.57"/>
<polygon fill="black" stroke="black" points="2197.25,-51.13 2186.69,-52.02 2195.5,-57.91 2197.25,-51.13"/>
</g>
<!-- 111 -->
<g id="node3" class="node">
<title>111</title>
<polygon fill="none" stroke="black" points="415,-297 217,-297 217,-261 415,-261 415,-297"/>
<text text-anchor="middle" x="316" y="-275.3" font-family="Times,serif" font-size="14.00">1.1.1 Create registration form UI</text>
</g>
<!-- 113 -->
<g id="node19" class="node">
<title>113</title>
<polygon fill="none" stroke="black" points="968.5,-314.5 598.5,-314.5 598.5,-261.5 968.5,-261.5 968.5,-314.5"/>
<text text-anchor="middle" x="783.5" y="-299.3" font-family="Times,serif" font-size="14.00">1.1.3 Verify user input in form</text>
<text text-anchor="middle" x="783.5" y="-284.3" font-family="Times,serif" font-size="14.00">(verify email is unique and password follows security standards.</text>
<text text-anchor="middle" x="783.5" y="-269.3" font-family="Times,serif" font-size="14.00">If not, show error message)</text>
</g>
<!-- 111&#45;&gt;113 -->
<g id="edge9" class="edge">
<title>111&#45;&gt;113</title>
<path fill="none" stroke="black" d="M415.15,-280.9C465.46,-281.87 528.54,-283.09 588.17,-284.24"/>
<polygon fill="black" stroke="black" points="588.41,-287.75 598.48,-284.44 588.55,-280.75 588.41,-287.75"/>
</g>
<!-- 211 -->
<g id="node4" class="node">
<title>211</title>
<polygon fill="none" stroke="black" points="468.5,-459 163.5,-459 163.5,-423 468.5,-423 468.5,-459"/>
<text text-anchor="middle" x="316" y="-437.3" font-family="Times,serif" font-size="14.00">2.1.1 Create UI for entering username and password</text>
</g>
<!-- 212 -->
<g id="node25" class="node">
<title>212</title>
<polygon fill="none" stroke="black" points="1477,-459 1025,-459 1025,-423 1477,-423 1477,-459"/>
<text text-anchor="middle" x="1251" y="-437.3" font-family="Times,serif" font-size="14.00">2.1.2 Compare username and password to database and provide or deny access.</text>
</g>
<!-- 211&#45;&gt;212 -->
<g id="edge16" class="edge">
<title>211&#45;&gt;212</title>
<path fill="none" stroke="black" d="M468.72,-441C616.51,-441 843.3,-441 1014.54,-441"/>
<polygon fill="black" stroke="black" points="1014.71,-444.5 1024.71,-441 1014.71,-437.5 1014.71,-444.5"/>
</g>
<!-- 221 -->
<g id="node5" class="node">
<title>221</title>
<polygon fill="none" stroke="black" points="445,-351 187,-351 187,-315 445,-315 445,-351"/>
<text text-anchor="middle" x="316" y="-329.3" font-family="Times,serif" font-size="14.00">2.2.1 Create UI for user to change password</text>
</g>
<!-- 222 -->
<g id="node27" class="node">
<title>222</title>
<polygon fill="none" stroke="black" points="1336,-243 1166,-243 1166,-207 1336,-207 1336,-243"/>
<text text-anchor="middle" x="1251" y="-221.3" font-family="Times,serif" font-size="14.00">2.2.2 Confirm old password</text>
</g>
<!-- 221&#45;&gt;222 -->
<g id="edge20" class="edge">
<title>221&#45;&gt;222</title>
<path fill="none" stroke="black" d="M445.35,-341.62C507.98,-345.83 570,-350 570,-350 570,-350 997,-350 997,-350 997,-350 1017,-252 1017,-252 1017,-252 1091.01,-243.42 1155.61,-235.94"/>
<polygon fill="black" stroke="black" points="1156.35,-239.38 1165.88,-234.75 1155.55,-232.42 1156.35,-239.38"/>
</g>
<!-- 312 -->
<g id="node6" class="node">
<title>312</title>
<polygon fill="none" stroke="black" points="443,-79 189,-79 189,-43 443,-43 443,-79"/>
<text text-anchor="middle" x="316" y="-57.3" font-family="Times,serif" font-size="14.00">3.1.2 Create UI for submitting manuscripts</text>
</g>
<!-- 313 -->
<g id="node20" class="node">
<title>313</title>
<polygon fill="none" stroke="black" points="960,-80.5 607,-80.5 607,-27.5 960,-27.5 960,-80.5"/>
<text text-anchor="middle" x="783.5" y="-65.3" font-family="Times,serif" font-size="14.00">3.1.3 Validate fields in form, ensure they follow system rules</text>
<text text-anchor="middle" x="783.5" y="-50.3" font-family="Times,serif" font-size="14.00">(e.g. email addresses, blanks, valid file formats, file size)</text>
<text text-anchor="middle" x="783.5" y="-35.3" font-family="Times,serif" font-size="14.00">and show success or error message</text>
</g>
<!-- 312&#45;&gt;313 -->
<g id="edge25" class="edge">
<title>312&#45;&gt;313</title>
<path fill="none" stroke="black" d="M443.28,-59.1C490.48,-58.39 545.13,-57.57 596.59,-56.8"/>
<polygon fill="black" stroke="black" points="596.89,-60.29 606.84,-56.64 596.78,-53.29 596.89,-60.29"/>
</g>
<!-- 321 -->
<g id="node7" class="node">
<title>321</title>
<polygon fill="none" stroke="black" points="416.5,-189 215.5,-189 215.5,-153 416.5,-153 416.5,-189"/>
<text text-anchor="middle" x="316" y="-167.3" font-family="Times,serif" font-size="14.00">3.2.1 Create save button interface</text>
</g>
<!-- 322 -->
<g id="node21" class="node">
<title>322</title>
<polygon fill="none" stroke="black" points="952.5,-189 614.5,-189 614.5,-153 952.5,-153 952.5,-189"/>
<text text-anchor="middle" x="783.5" y="-167.3" font-family="Times,serif" font-size="14.00">3.2.2 Check fields for validity and inform user of violation</text>
</g>
<!-- 321&#45;&gt;322 -->
<g id="edge31" class="edge">
<title>321&#45;&gt;322</title>
<path fill="none" stroke="black" d="M416.58,-171C471.21,-171 540.6,-171 604.23,-171"/>
<polygon fill="black" stroke="black" points="604.39,-174.5 614.39,-171 604.39,-167.5 604.39,-174.5"/>
</g>
<!-- 411 -->
<g id="node8" class="node">
<title>411</title>
<polygon fill="none" stroke="black" points="498.5,-135 133.5,-135 133.5,-97 498.5,-97 498.5,-135"/>
<text text-anchor="middle" x="316" y="-119.8" font-family="Times,serif" font-size="14.00">4.1.1 Create UI for editor to assign referees to submitted papers</text>
<text text-anchor="middle" x="316" y="-104.8" font-family="Times,serif" font-size="14.00">using referees&#39; email addresses</text>
</g>
<!-- 412 -->
<g id="node22" class="node">
<title>412</title>
<polygon fill="none" stroke="black" points="989,-135 578,-135 578,-99 989,-99 989,-135"/>
<text text-anchor="middle" x="783.5" y="-113.3" font-family="Times,serif" font-size="14.00">4.1.2 Validate form, display success or error message (e.g. 3 reviewers)</text>
</g>
<!-- 411&#45;&gt;412 -->
<g id="edge51" class="edge">
<title>411&#45;&gt;412</title>
<path fill="none" stroke="black" d="M498.64,-116.39C521.2,-116.44 544.43,-116.49 567.43,-116.54"/>
<polygon fill="black" stroke="black" points="567.62,-120.04 577.63,-116.56 567.63,-113.04 567.62,-120.04"/>
</g>
<!-- 522 -->
<g id="node9" class="node">
<title>522</title>
<polygon fill="none" stroke="black" points="456.5,-405 175.5,-405 175.5,-369 456.5,-369 456.5,-405"/>
<text text-anchor="middle" x="316" y="-383.3" font-family="Times,serif" font-size="14.00">5.2.2 Create UI for editor to make final decision</text>
</g>
<!-- 521 -->
<g id="node33" class="node">
<title>521</title>
<polygon fill="none" stroke="black" points="1372.5,-297 1129.5,-297 1129.5,-261 1372.5,-261 1372.5,-297"/>
<text text-anchor="middle" x="1251" y="-275.3" font-family="Times,serif" font-size="14.00">5.2.1 Check if all review forms are ready</text>
</g>
<!-- 522&#45;&gt;521 -->
<g id="edge35" class="edge">
<title>522&#45;&gt;521</title>
<path fill="none" stroke="black" d="M456.66,-382.28C655.66,-375.55 997,-364 997,-364 997,-364 1017,-306 1017,-306 1017,-306 1066.23,-300.29 1119.44,-294.13"/>
<polygon fill="black" stroke="black" points="1119.87,-297.6 1129.41,-292.97 1119.07,-290.65 1119.87,-297.6"/>
</g>
<!-- 621 -->
<g id="node10" class="node">
<title>621</title>
<polygon fill="none" stroke="black" points="458,-513 174,-513 174,-477 458,-477 458,-513"/>
<text text-anchor="middle" x="316" y="-491.3" font-family="Times,serif" font-size="14.00">6.2.1 Create UI for editor/admin to edit schedule</text>
</g>
<!-- 622 -->
<g id="node35" class="node">
<title>622</title>
<polygon fill="none" stroke="black" points="1415.5,-569 1086.5,-569 1086.5,-533 1415.5,-533 1415.5,-569"/>
<text text-anchor="middle" x="1251" y="-547.3" font-family="Times,serif" font-size="14.00">6.2.2 Update database with new schedule as final version</text>
</g>
<!-- 621&#45;&gt;622 -->
<g id="edge41" class="edge">
<title>621&#45;&gt;622</title>
<path fill="none" stroke="black" d="M458.2,-503.47C623.69,-513.41 897.93,-529.87 1076.31,-540.57"/>
<polygon fill="black" stroke="black" points="1076.13,-544.07 1086.32,-541.18 1076.55,-537.08 1076.13,-544.07"/>
</g>
<!-- 713 -->
<g id="node11" class="node">
<title>713</title>
<polygon fill="none" stroke="black" points="542,-243 90,-243 90,-207 542,-207 542,-243"/>
<text text-anchor="middle" x="316" y="-221.3" font-family="Times,serif" font-size="14.00">7.1.3 Create UI to prompt user to pay for attending and choose registration type</text>
</g>
<!-- 714 -->
<g id="node23" class="node">
<title>714</title>
<polygon fill="none" stroke="black" points="885,-243 682,-243 682,-207 885,-207 885,-243"/>
<text text-anchor="middle" x="783.5" y="-221.3" font-family="Times,serif" font-size="14.00">7.1.4 Verify payment information</text>
</g>
<!-- 713&#45;&gt;714 -->
<g id="edge44" class="edge">
<title>713&#45;&gt;714</title>
<path fill="none" stroke="black" d="M542.25,-225C587.2,-225 632.52,-225 671.51,-225"/>
<polygon fill="black" stroke="black" points="671.8,-228.5 681.8,-225 671.8,-221.5 671.8,-228.5"/>
</g>
<!-- 112 -->
<g id="node12" class="node">
<title>112</title>
<polygon fill="none" stroke="black" points="2642,-811 2411,-811 2411,-775 2642,-775 2642,-811"/>
<text text-anchor="middle" x="2526.5" y="-789.3" font-family="Times,serif" font-size="14.00">1.1.2 Redirect user to registration form</text>
</g>
<!-- End -->
<g id="node47" class="node">
<title>End</title>
<polygon fill="none" stroke="black" points="2793,-757 2739,-757 2739,-721 2793,-721 2793,-757"/>
<text text-anchor="middle" x="2766" y="-735.3" font-family="Times,serif" font-size="14.00">End</text>
</g>
<!-- 112&#45;&gt;End -->
<g id="edge12" class="edge">
<title>112&#45;&gt;End</title>
<path fill="none" stroke="black" d="M2642.15,-776.13C2679.24,-770.67 2711,-766 2711,-766 2711,-766 2719.63,-761.68 2729.99,-756.5"/>
<polygon fill="black" stroke="black" points="2731.57,-759.63 2738.95,-752.03 2728.44,-753.37 2731.57,-759.63"/>
</g>
<!-- 115 -->
<g id="node13" class="node">
<title>115</title>
<polygon fill="none" stroke="black" points="2628.5,-757 2424.5,-757 2424.5,-721 2628.5,-721 2628.5,-757"/>
<text text-anchor="middle" x="2526.5" y="-735.3" font-family="Times,serif" font-size="14.00">1.1.5 Redirect user to login screen</text>
</g>
<!-- 115&#45;&gt;End -->
<g id="edge14" class="edge">
<title>115&#45;&gt;End</title>
<path fill="none" stroke="black" d="M2628.57,-739C2664.23,-739 2702.08,-739 2728.84,-739"/>
<polygon fill="black" stroke="black" points="2728.88,-742.5 2738.88,-739 2728.88,-735.5 2728.88,-742.5"/>
</g>
<!-- 213 -->
<g id="node14" class="node">
<title>213</title>
<polygon fill="none" stroke="black" points="2625.5,-865 2427.5,-865 2427.5,-829 2625.5,-829 2625.5,-865"/>
<text text-anchor="middle" x="2526.5" y="-843.3" font-family="Times,serif" font-size="14.00">2.1.3 Redirect user to home page</text>
</g>
<!-- 213&#45;&gt;End -->
<g id="edge18" class="edge">
<title>213&#45;&gt;End</title>
<path fill="none" stroke="black" d="M2625.7,-832.55C2669.32,-826.13 2711,-820 2711,-820 2711,-820 2731.3,-789.55 2747,-765.99"/>
<polygon fill="black" stroke="black" points="2750.11,-767.64 2752.75,-757.38 2744.29,-763.76 2750.11,-767.64"/>
</g>
<!-- 224 -->
<g id="node15" class="node">
<title>224</title>
<polygon fill="none" stroke="black" points="2652,-541 2401,-541 2401,-503 2652,-503 2652,-541"/>
<text text-anchor="middle" x="2526.5" y="-525.8" font-family="Times,serif" font-size="14.00">2.2.4 Redirect user to login page</text>
<text text-anchor="middle" x="2526.5" y="-510.8" font-family="Times,serif" font-size="14.00">(so they can log in with the new password)</text>
</g>
<!-- 224&#45;&gt;End -->
<g id="edge23" class="edge">
<title>224&#45;&gt;End</title>
<path fill="none" stroke="black" d="M2652.18,-541.03C2684.79,-546 2711,-550 2711,-550 2711,-550 2742.03,-658.61 2757.05,-711.16"/>
<polygon fill="black" stroke="black" points="2753.71,-712.22 2759.82,-720.88 2760.44,-710.3 2753.71,-712.22"/>
</g>
<!-- 315&#45;&gt;End -->
<g id="edge29" class="edge">
<title>315&#45;&gt;End</title>
<path fill="none" stroke="black" d="M2625.7,-699.45C2669.32,-705.87 2711,-712 2711,-712 2711,-712 2719.63,-716.32 2729.99,-721.5"/>
<polygon fill="black" stroke="black" points="2728.44,-724.63 2738.95,-725.97 2731.57,-718.37 2728.44,-724.63"/>
</g>
<!-- 422 -->
<g id="node17" class="node">
<title>422</title>
<polygon fill="none" stroke="black" points="2703,-595 2350,-595 2350,-559 2703,-559 2703,-595"/>
<text text-anchor="middle" x="2526.5" y="-573.3" font-family="Times,serif" font-size="14.00">4.2.2 Redirect referee to account, where paper is stored under</text>
</g>
<!-- 422&#45;&gt;End -->
<g id="edge56" class="edge">
<title>422&#45;&gt;End</title>
<path fill="none" stroke="black" d="M2649.9,-595.01C2683.56,-599.96 2711,-604 2711,-604 2711,-604 2738.18,-671.94 2753.97,-711.43"/>
<polygon fill="black" stroke="black" points="2750.75,-712.81 2757.72,-720.79 2757.25,-710.21 2750.75,-712.81"/>
</g>
<!-- 525 -->
<g id="node18" class="node">
<title>525</title>
<polygon fill="none" stroke="black" points="2630,-649 2423,-649 2423,-613 2630,-613 2630,-649"/>
<text text-anchor="middle" x="2526.5" y="-627.3" font-family="Times,serif" font-size="14.00">5.2.5 Redirect editor to home page</text>
</g>
<!-- 525&#45;&gt;End -->
<g id="edge39" class="edge">
<title>525&#45;&gt;End</title>
<path fill="none" stroke="black" d="M2630.25,-646.12C2672.18,-652.29 2711,-658 2711,-658 2711,-658 2731.3,-688.45 2747,-712.01"/>
<polygon fill="black" stroke="black" points="2744.29,-714.24 2752.75,-720.62 2750.11,-710.36 2744.29,-714.24"/>
</g>
<!-- 114 -->
<g id="node24" class="node">
<title>114</title>
<polygon fill="none" stroke="black" points="1391,-405 1111,-405 1111,-369 1391,-369 1391,-405"/>
<text text-anchor="middle" x="1251" y="-383.3" font-family="Times,serif" font-size="14.00">1.1.4 Store user email and password in database</text>
</g>
<!-- 113&#45;&gt;114 -->
<g id="edge10" class="edge">
<title>113&#45;&gt;114</title>
<path fill="none" stroke="black" d="M870.08,-314.5C936.38,-335.03 1017,-360 1017,-360 1017,-360 1055.19,-364.43 1100.65,-369.69"/>
<polygon fill="black" stroke="black" points="1100.43,-373.19 1110.76,-370.87 1101.23,-366.24 1100.43,-373.19"/>
</g>
<!-- 314 -->
<g id="node29" class="node">
<title>314</title>
<polygon fill="none" stroke="black" points="1803.5,-189 1593.5,-189 1593.5,-153 1803.5,-153 1803.5,-189"/>
<text text-anchor="middle" x="1698.5" y="-167.3" font-family="Times,serif" font-size="14.00">3.1.4 Store information in database</text>
</g>
<!-- 313&#45;&gt;314 -->
<g id="edge26" class="edge">
<title>313&#45;&gt;314</title>
<path fill="none" stroke="black" d="M960.14,-63.13C1165.3,-73.8 1477,-90 1477,-90 1477,-90 1513,-144 1513,-144 1513,-144 1545.47,-148.75 1583.18,-154.27"/>
<polygon fill="black" stroke="black" points="1582.99,-157.78 1593.39,-155.76 1584,-150.85 1582.99,-157.78"/>
</g>
<!-- 323 -->
<g id="node26" class="node">
<title>323</title>
<polygon fill="none" stroke="black" points="1399,-189 1103,-189 1103,-153 1399,-153 1399,-189"/>
<text text-anchor="middle" x="1251" y="-167.3" font-family="Times,serif" font-size="14.00">3.2.3 Save partial information of paper in database</text>
</g>
<!-- 322&#45;&gt;323 -->
<g id="edge32" class="edge">
<title>322&#45;&gt;323</title>
<path fill="none" stroke="black" d="M952.56,-171C998.32,-171 1047.7,-171 1092.83,-171"/>
<polygon fill="black" stroke="black" points="1092.99,-174.5 1102.99,-171 1092.99,-167.5 1092.99,-174.5"/>
</g>
<!-- 413 -->
<g id="node30" class="node">
<title>413</title>
<polygon fill="none" stroke="black" points="1414,-135 1088,-135 1088,-99 1414,-99 1414,-135"/>
<text text-anchor="middle" x="1251" y="-113.3" font-family="Times,serif" font-size="14.00">4.1.3 Check if reviewer has more than 5 assigned papers</text>
</g>
<!-- 412&#45;&gt;413 -->
<g id="edge52" class="edge">
<title>412&#45;&gt;413</title>
<path fill="none" stroke="black" d="M989.01,-117C1018.6,-117 1048.81,-117 1077.68,-117"/>
<polygon fill="black" stroke="black" points="1077.83,-120.5 1087.83,-117 1077.83,-113.5 1077.83,-120.5"/>
</g>
<!-- 715 -->
<g id="node36" class="node">
<title>715</title>
<polygon fill="none" stroke="black" points="1381.5,-351 1120.5,-351 1120.5,-315 1381.5,-315 1381.5,-351"/>
<text text-anchor="middle" x="1251" y="-329.3" font-family="Times,serif" font-size="14.00">7.1.5 Store payment information in database</text>
</g>
<!-- 714&#45;&gt;715 -->
<g id="edge45" class="edge">
<title>714&#45;&gt;715</title>
<path fill="none" stroke="black" d="M885.15,-237.79C940.07,-244.77 997,-252 997,-252 997,-252 1017,-306 1017,-306 1017,-306 1060.69,-311.06 1110.24,-316.8"/>
<polygon fill="black" stroke="black" points="1109.88,-320.29 1120.21,-317.96 1110.68,-313.33 1109.88,-320.29"/>
</g>
<!-- 114&#45;&gt;112 -->
<g id="edge11" class="edge">
<title>114&#45;&gt;112</title>
<path fill="none" stroke="black" d="M1391.3,-403.72C1437.32,-409.24 1477,-414 1477,-414 1477,-414 1513,-670 1513,-670 1513,-670 1920,-800 1920,-800 1920,-800 2322,-800 2322,-800 2322,-800 2358.59,-798.74 2400.73,-797.29"/>
<polygon fill="black" stroke="black" points="2401.09,-800.78 2410.96,-796.94 2400.85,-793.79 2401.09,-800.78"/>
</g>
<!-- 114&#45;&gt;115 -->
<g id="edge13" class="edge">
<title>114&#45;&gt;115</title>
<path fill="none" stroke="black" d="M1391.3,-403.72C1437.32,-409.24 1477,-414 1477,-414 1477,-414 1513,-549 1513,-549 1513,-549 1920,-786 1920,-786 1920,-786 2322,-786 2322,-786 2322,-786 2342,-766 2342,-766 2342,-766 2375.84,-761.02 2414.45,-755.34"/>
<polygon fill="black" stroke="black" points="2414.97,-758.8 2424.36,-753.88 2413.95,-751.88 2414.97,-758.8"/>
</g>
<!-- 212&#45;&gt;213 -->
<g id="edge17" class="edge">
<title>212&#45;&gt;213</title>
<path fill="none" stroke="black" d="M1402.08,-459.01C1443.35,-463.96 1477,-468 1477,-468 1477,-468 1513,-743 1513,-743 1513,-743 1920,-814 1920,-814 1920,-814 2242.75,-831.59 2416.97,-841.09"/>
<polygon fill="black" stroke="black" points="2417.03,-844.59 2427.21,-841.64 2417.41,-837.6 2417.03,-844.59"/>
</g>
<!-- 323&#45;&gt;314 -->
<g id="edge33" class="edge">
<title>323&#45;&gt;314</title>
<path fill="none" stroke="black" d="M1399.11,-171C1458.88,-171 1526.89,-171 1582.87,-171"/>
<polygon fill="black" stroke="black" points="1583.18,-174.5 1593.18,-171 1583.18,-167.5 1583.18,-174.5"/>
</g>
<!-- 223 -->
<g id="node28" class="node">
<title>223</title>
<polygon fill="none" stroke="black" points="1801.5,-247 1595.5,-247 1595.5,-211 1801.5,-211 1801.5,-247"/>
<text text-anchor="middle" x="1698.5" y="-225.3" font-family="Times,serif" font-size="14.00">2.2.3 Update password in database</text>
</g>
<!-- 222&#45;&gt;223 -->
<g id="edge21" class="edge">
<title>222&#45;&gt;223</title>
<path fill="none" stroke="black" d="M1336.06,-225.75C1406.52,-226.39 1507.74,-227.3 1585.15,-227.99"/>
<polygon fill="black" stroke="black" points="1585.4,-231.49 1595.43,-228.08 1585.46,-224.49 1585.4,-231.49"/>
</g>
<!-- 223&#45;&gt;224 -->
<g id="edge22" class="edge">
<title>223&#45;&gt;224</title>
<path fill="none" stroke="black" d="M1775.52,-247.07C1941.58,-286.56 2322,-377 2322,-377 2322,-377 2432.03,-455.4 2490.28,-496.9"/>
<polygon fill="black" stroke="black" points="2488.3,-499.79 2498.48,-502.75 2492.36,-494.09 2488.3,-499.79"/>
</g>
<!-- 314&#45;&gt;311 -->
<g id="edge27" class="edge">
<title>314&#45;&gt;311</title>
<path fill="none" stroke="black" d="M1803.61,-188.49C1845.46,-195.52 1884,-202 1884,-202 1884,-202 1920,-604 1920,-604 1920,-604 1950.91,-608.73 1988.18,-614.44"/>
<polygon fill="black" stroke="black" points="1987.89,-617.93 1998.31,-615.99 1988.95,-611.01 1987.89,-617.93"/>
</g>
<!-- 414 -->
<g id="node32" class="node">
<title>414</title>
<polygon fill="none" stroke="black" points="1884,-135 1513,-135 1513,-99 1884,-99 1884,-135"/>
<text text-anchor="middle" x="1698.5" y="-113.3" font-family="Times,serif" font-size="14.00">4.1.4 Notify referee of assignment in form of a review invitation</text>
</g>
<!-- 413&#45;&gt;414 -->
<g id="edge53" class="edge">
<title>413&#45;&gt;414</title>
<path fill="none" stroke="black" d="M1414.1,-117C1442.93,-117 1473.23,-117 1502.86,-117"/>
<polygon fill="black" stroke="black" points="1502.88,-120.5 1512.88,-117 1502.88,-113.5 1502.88,-120.5"/>
</g>
<!-- 421 -->
<g id="node31" class="node">
<title>421</title>
<polygon fill="none" stroke="black" points="2314,-438.5 1920,-438.5 1920,-385.5 2314,-385.5 2314,-438.5"/>
<text text-anchor="middle" x="2117" y="-423.3" font-family="Times,serif" font-size="14.00">4.2.1 When referee accepts, put the paper under the referee&#39;s account</text>
<text text-anchor="middle" x="2117" y="-408.3" font-family="Times,serif" font-size="14.00">if less than 3 referees are already reviewing</text>
<text text-anchor="middle" x="2117" y="-393.3" font-family="Times,serif" font-size="14.00">else inform editor</text>
</g>
<!-- 421&#45;&gt;422 -->
<g id="edge55" class="edge">
<title>421&#45;&gt;422</title>
<path fill="none" stroke="black" d="M2179.48,-438.52C2239.55,-464.43 2322,-500 2322,-500 2322,-500 2342,-550 2342,-550 2342,-550 2364.15,-553.26 2393.06,-557.51"/>
<polygon fill="black" stroke="black" points="2392.7,-561 2403.1,-558.99 2393.72,-554.07 2392.7,-561"/>
</g>
<!-- 414&#45;&gt;421 -->
<g id="edge54" class="edge">
<title>414&#45;&gt;421</title>
<path fill="none" stroke="black" d="M1822.56,-135.01C1856.41,-139.96 1884,-144 1884,-144 1884,-144 2023.28,-304.9 2086.01,-377.35"/>
<polygon fill="black" stroke="black" points="2083.72,-380.05 2092.91,-385.32 2089.01,-375.47 2083.72,-380.05"/>
</g>
<!-- 523 -->
<g id="node34" class="node">
<title>523</title>
<polygon fill="none" stroke="black" points="1813.5,-424 1583.5,-424 1583.5,-388 1813.5,-388 1813.5,-424"/>
<text text-anchor="middle" x="1698.5" y="-402.3" font-family="Times,serif" font-size="14.00">5.2.3 Save editor&#39;s decision to database</text>
</g>
<!-- 521&#45;&gt;523 -->
<g id="edge36" class="edge">
<title>521&#45;&gt;523</title>
<path fill="none" stroke="black" d="M1372.73,-293.49C1426.11,-299.89 1477,-306 1477,-306 1477,-306 1583.31,-354.21 1648.3,-383.69"/>
<polygon fill="black" stroke="black" points="1647.02,-386.95 1657.57,-387.89 1649.91,-380.57 1647.02,-386.95"/>
</g>
<!-- 524 -->
<g id="node37" class="node">
<title>524</title>
<polygon fill="none" stroke="black" points="2226.5,-545 2007.5,-545 2007.5,-509 2226.5,-509 2226.5,-545"/>
<text text-anchor="middle" x="2117" y="-523.3" font-family="Times,serif" font-size="14.00">5.2.4 Send editor&#39;s decision to author</text>
</g>
<!-- 523&#45;&gt;524 -->
<g id="edge37" class="edge">
<title>523&#45;&gt;524</title>
<path fill="none" stroke="black" d="M1797.42,-424.05C1841.58,-432.18 1884,-440 1884,-440 1884,-440 1989.79,-479.67 2058.5,-505.44"/>
<polygon fill="black" stroke="black" points="2057.34,-508.74 2067.93,-508.97 2059.8,-502.19 2057.34,-508.74"/>
</g>
<!-- 613 -->
<g id="node41" class="node">
<title>613</title>
<polygon fill="none" stroke="black" points="1859.5,-978 1537.5,-978 1537.5,-942 1859.5,-942 1859.5,-978"/>
<text text-anchor="middle" x="1698.5" y="-956.3" font-family="Times,serif" font-size="14.00">6.1.3 Send schedule to editor to be checked or modified</text>
</g>
<!-- 622&#45;&gt;613 -->
<g id="edge42" class="edge">
<title>622&#45;&gt;613</title>
<path fill="none" stroke="black" d="M1264.59,-569.18C1316.72,-644.49 1513,-928 1513,-928 1513,-928 1545.61,-933.66 1583.42,-940.21"/>
<polygon fill="black" stroke="black" points="1583.2,-943.73 1593.66,-941.99 1584.4,-936.83 1583.2,-943.73"/>
</g>
<!-- 715&#45;&gt;712 -->
<g id="edge46" class="edge">
<title>715&#45;&gt;712:w</title>
<path fill="none" stroke="black" d="M1381.58,-348.55C1431.6,-354.55 1477,-360 1477,-360 1477,-360 1513,-433 1513,-433 1513,-433 1920,-661 1920,-661 1920,-661 1984.1,-678.48 2009.15,-685.31"/>
<polygon fill="black" stroke="black" points="2008.43,-688.75 2019,-688 2010.27,-681.99 2008.43,-688.75"/>
</g>
<!-- 524&#45;&gt;525 -->
<g id="edge38" class="edge">
<title>524&#45;&gt;525</title>
<path fill="none" stroke="black" d="M2170.52,-545.05C2236.73,-567.81 2342,-604 2342,-604 2342,-604 2374.71,-608.81 2412.52,-614.38"/>
<polygon fill="black" stroke="black" points="2412.35,-617.89 2422.75,-615.88 2413.37,-610.96 2412.35,-617.89"/>
</g>
<!-- 711 -->
<g id="node38" class="node">
<title>711</title>
<polygon fill="none" stroke="black" points="1374,-515 1128,-515 1128,-477 1374,-477 1374,-515"/>
<text text-anchor="middle" x="1251" y="-499.8" font-family="Times,serif" font-size="14.00">7.1.1 Announce prices on CMS web page</text>
<text text-anchor="middle" x="1251" y="-484.8" font-family="Times,serif" font-size="14.00">(available to guests and authorized users)</text>
</g>
<!-- 711&#45;&gt;End -->
<g id="edge58" class="edge">
<title>711&#45;&gt;End</title>
<path fill="none" stroke="black" d="M1374.05,-511.19C1426.94,-517.77 1477,-524 1477,-524 1477,-524 1513,-789 1513,-789 1513,-789 2342,-900 2342,-900 2342,-900 2711,-900 2711,-900 2711,-900 2740.2,-812.93 2755.66,-766.85"/>
<polygon fill="black" stroke="black" points="2759.05,-767.75 2758.91,-757.16 2752.41,-765.52 2759.05,-767.75"/>
</g>
<!-- 611 -->
<g id="node39" class="node">
<title>611</title>
<polygon fill="none" stroke="black" points="904,-978 663,-978 663,-942 904,-942 904,-978"/>
<text text-anchor="middle" x="783.5" y="-956.3" font-family="Times,serif" font-size="14.00">6.1.1 Implement scheduling algorithm X</text>
</g>
<!-- 612 -->
<g id="node40" class="node">
<title>612</title>
<polygon fill="none" stroke="black" points="1372.5,-978 1129.5,-978 1129.5,-942 1372.5,-942 1372.5,-978"/>
<text text-anchor="middle" x="1251" y="-956.3" font-family="Times,serif" font-size="14.00">6.1.2 Convert schedule to HTML format</text>
</g>
<!-- 611&#45;&gt;612 -->
<g id="edge2" class="edge">
<title>611&#45;&gt;612</title>
<path fill="none" stroke="black" d="M904.08,-960C969.8,-960 1051.43,-960 1118.89,-960"/>
<polygon fill="black" stroke="black" points="1119.16,-963.5 1129.16,-960 1119.16,-956.5 1119.16,-963.5"/>
</g>
<!-- 612&#45;&gt;613 -->
<g id="edge3" class="edge">
<title>612&#45;&gt;613</title>
<path fill="none" stroke="black" d="M1372.56,-960C1420.03,-960 1475.41,-960 1526.85,-960"/>
<polygon fill="black" stroke="black" points="1527.09,-963.5 1537.09,-960 1527.09,-956.5 1527.09,-963.5"/>
</g>
<!-- 614 -->
<g id="node42" class="node">
<title>614</title>
<polygon fill="none" stroke="black" points="2245.5,-978 1988.5,-978 1988.5,-942 2245.5,-942 2245.5,-978"/>
<text text-anchor="middle" x="2117" y="-956.3" font-family="Times,serif" font-size="14.00">6.1.4 Announce schedule on CMS webpage</text>
</g>
<!-- 613&#45;&gt;614 -->
<g id="edge4" class="edge">
<title>613&#45;&gt;614</title>
<path fill="none" stroke="black" d="M1859.64,-960C1898.78,-960 1940.33,-960 1978.33,-960"/>
<polygon fill="black" stroke="black" points="1978.42,-963.5 1988.42,-960 1978.42,-956.5 1978.42,-963.5"/>
</g>
<!-- 615 -->
<g id="node43" class="node">
<title>615</title>
<polygon fill="none" stroke="black" points="2261.5,-1032 1972.5,-1032 1972.5,-996 2261.5,-996 2261.5,-1032"/>
<text text-anchor="middle" x="2117" y="-1010.3" font-family="Times,serif" font-size="14.00">6.1.5 Send schedule to authors of accepted papers</text>
</g>
<!-- 613&#45;&gt;615 -->
<g id="edge6" class="edge">
<title>613&#45;&gt;615</title>
<path fill="none" stroke="black" d="M1838.48,-978.02C1879.76,-983.37 1925.14,-989.25 1967.03,-994.69"/>
<polygon fill="black" stroke="black" points="1966.67,-998.17 1977.04,-995.98 1967.57,-991.23 1966.67,-998.17"/>
</g>
<!-- 614&#45;&gt;End -->
<g id="edge5" class="edge">
<title>614&#45;&gt;End</title>
<path fill="none" stroke="black" d="M2245.58,-953.12C2419.86,-943.71 2711,-928 2711,-928 2711,-928 2742.03,-819.39 2757.05,-766.84"/>
<polygon fill="black" stroke="black" points="2760.44,-767.7 2759.82,-757.12 2753.71,-765.78 2760.44,-767.7"/>
</g>
<!-- 615&#45;&gt;End -->
<g id="edge7" class="edge">
<title>615&#45;&gt;End</title>
<path fill="none" stroke="black" d="M2261.55,-998.75C2437.05,-980.1 2711,-951 2711,-951 2711,-951 2743.2,-824.57 2757.87,-766.98"/>
<polygon fill="black" stroke="black" points="2761.32,-767.63 2760.4,-757.08 2754.54,-765.9 2761.32,-767.63"/>
</g>
<!-- 717 -->
<g id="node45" class="node">
<title>717</title>
<polygon fill="none" stroke="black" points="2676,-52 2377,-52 2377,-16 2676,-16 2676,-52"/>
<text text-anchor="middle" x="2526.5" y="-30.3" font-family="Times,serif" font-size="14.00">7.1.7 Send user confirmation of purchase and ticket</text>
</g>
<!-- 716&#45;&gt;717 -->
<g id="edge48" class="edge">
<title>716&#45;&gt;717</title>
<path fill="none" stroke="black" d="M2208.18,-34C2254.65,-34 2312.7,-34 2366.4,-34"/>
<polygon fill="black" stroke="black" points="2366.73,-37.5 2376.73,-34 2366.73,-30.5 2366.73,-37.5"/>
</g>
<!-- 717&#45;&gt;End -->
<g id="edge49" class="edge">
<title>717&#45;&gt;End</title>
<path fill="none" stroke="black" d="M2534.81,-52.2C2568.94,-137.19 2711,-491 2711,-491 2711,-491 2744.7,-645.78 2758.86,-710.78"/>
<polygon fill="black" stroke="black" points="2755.48,-711.74 2761.03,-720.76 2762.32,-710.25 2755.48,-711.74"/>
</g>
<!-- Start -->
<g id="node46" class="node">
<title>Start</title>
<polygon fill="none" stroke="black" points="54,-351 0,-351 0,-315 54,-315 54,-351"/>
<text text-anchor="middle" x="27" y="-329.3" font-family="Times,serif" font-size="14.00">Start</text>
</g>
<!-- Start&#45;&gt;111 -->
<g id="edge8" class="edge">
<title>Start&#45;&gt;111</title>
<path fill="none" stroke="black" d="M54.05,-319.97C67.86,-313.07 82,-306 82,-306 82,-306 145.88,-298.6 206.74,-291.55"/>
<polygon fill="black" stroke="black" points="207.33,-295 216.86,-290.37 206.53,-288.05 207.33,-295"/>
</g>
<!-- Start&#45;&gt;211 -->
<g id="edge15" class="edge">
<title>Start&#45;&gt;211</title>
<path fill="none" stroke="black" d="M40.25,-351.38C56.19,-375.28 82,-414 82,-414 82,-414 113.57,-417.66 153.47,-422.28"/>
<polygon fill="black" stroke="black" points="153.16,-425.77 163.49,-423.44 153.96,-418.82 153.16,-425.77"/>
</g>
<!-- Start&#45;&gt;221 -->
<g id="edge19" class="edge">
<title>Start&#45;&gt;221</title>
<path fill="none" stroke="black" d="M54.23,-333C82.59,-333 130.04,-333 176.74,-333"/>
<polygon fill="black" stroke="black" points="177,-336.5 187,-333 177,-329.5 177,-336.5"/>
</g>
<!-- Start&#45;&gt;312 -->
<g id="edge24" class="edge">
<title>Start&#45;&gt;312</title>
<path fill="none" stroke="black" d="M31.97,-314.98C44.44,-258.4 82,-88 82,-88 82,-88 127.75,-82.7 178.7,-76.79"/>
<polygon fill="black" stroke="black" points="179.42,-80.23 188.95,-75.61 178.62,-73.28 179.42,-80.23"/>
</g>
<!-- Start&#45;&gt;321 -->
<g id="edge30" class="edge">
<title>Start&#45;&gt;321</title>
<path fill="none" stroke="black" d="M35.28,-314.79C50.02,-277.94 82,-198 82,-198 82,-198 144.75,-190.73 205.12,-183.73"/>
<polygon fill="black" stroke="black" points="205.64,-187.2 215.17,-182.57 204.84,-180.24 205.64,-187.2"/>
</g>
<!-- Start&#45;&gt;411 -->
<g id="edge50" class="edge">
<title>Start&#45;&gt;411</title>
<path fill="none" stroke="black" d="M33.18,-314.88C46.69,-267.57 82,-144 82,-144 82,-144 110.04,-140.63 146.67,-136.23"/>
<polygon fill="black" stroke="black" points="147.17,-139.69 156.68,-135.03 146.34,-132.74 147.17,-139.69"/>
</g>
<!-- Start&#45;&gt;522 -->
<g id="edge34" class="edge">
<title>Start&#45;&gt;522</title>
<path fill="none" stroke="black" d="M54.05,-346.03C67.86,-352.93 82,-360 82,-360 82,-360 120.02,-364.41 165.34,-369.66"/>
<polygon fill="black" stroke="black" points="165.09,-373.15 175.43,-370.83 165.9,-366.2 165.09,-373.15"/>
</g>
<!-- Start&#45;&gt;621 -->
<g id="edge40" class="edge">
<title>Start&#45;&gt;621</title>
<path fill="none" stroke="black" d="M35.28,-351.21C50.02,-388.06 82,-468 82,-468 82,-468 119.17,-472.31 163.82,-477.48"/>
<polygon fill="black" stroke="black" points="163.42,-480.96 173.75,-478.63 164.22,-474 163.42,-480.96"/>
</g>
<!-- Start&#45;&gt;713 -->
<g id="edge43" class="edge">
<title>Start&#45;&gt;713</title>
<path fill="none" stroke="black" d="M40.25,-314.62C56.19,-290.72 82,-252 82,-252 82,-252 111.36,-248.6 149.24,-244.21"/>
<polygon fill="black" stroke="black" points="150.06,-247.64 159.59,-243.01 149.25,-240.68 150.06,-247.64"/>
</g>
<!-- Start&#45;&gt;711 -->
<g id="edge57" class="edge">
<title>Start&#45;&gt;711</title>
<path fill="none" stroke="black" d="M32.6,-351.33C45.66,-403.32 82,-548 82,-548 82,-548 550,-548 550,-548 550,-548 914.6,-520.92 1117.53,-505.84"/>
<polygon fill="black" stroke="black" points="1117.96,-509.32 1127.67,-505.09 1117.44,-502.34 1117.96,-509.32"/>
</g>
<!-- Start&#45;&gt;611 -->
<g id="edge1" class="edge">
<title>Start&#45;&gt;611</title>
<path fill="none" stroke="black" d="M32.06,-351.26C44.62,-407.78 82,-576 82,-576 82,-576 589.68,-854.3 740.65,-937.06"/>
<polygon fill="black" stroke="black" points="739.2,-940.26 749.65,-941.99 742.57,-934.12 739.2,-940.26"/>
</g>
</g>
</svg>
