<?xml version="1.0" encoding="UTF-8" standalone="no"?>
<!DOCTYPE svg PUBLIC "-//W3C//DTD SVG 1.1//EN"
 "http://www.w3.org/Graphics/SVG/1.1/DTD/svg11.dtd">
<!-- Generated by graphviz version 2.44.1 (0)
 -->
<!-- Pages: 1 -->
<svg width="492pt" height="2598pt"
 viewBox="0.00 0.00 492.00 2598.00" xmlns="http://www.w3.org/2000/svg" xmlns:xlink="http://www.w3.org/1999/xlink">
<g id="graph0" class="graph" transform="scale(1 1) rotate(0) translate(4 2594)">
<polygon fill="white" stroke="transparent" points="-4,4 -4,-2594 488,-2594 488,4 -4,4"/>
<g id="clust1" class="cluster">
<title>cluster_authentication</title>
<polygon fill="none" stroke="black" stroke-dasharray="1,5" points="104,-8 104,-137 380,-137 380,-8 104,-8"/>
<text text-anchor="middle" x="242" y="-121.8" font-family="Times,serif" font-size="14.00">Authentication</text>
</g>
<g id="clust2" class="cluster">
<title>cluster_ui</title>
<polygon fill="none" stroke="black" stroke-dasharray="1,5" points="8,-145 8,-924 476,-924 476,-145 8,-145"/>
<text text-anchor="middle" x="242" y="-908.8" font-family="Times,serif" font-size="14.00">User Interface</text>
</g>
<g id="clust3" class="cluster">
<title>cluster_formvalidation</title>
<polygon fill="none" stroke="black" stroke-dasharray="1,5" points="28.5,-932 28.5,-1258 455.5,-1258 455.5,-932 28.5,-932"/>
<text text-anchor="middle" x="242" y="-1242.8" font-family="Times,serif" font-size="14.00">Form Validation</text>
</g>
<g id="clust4" class="cluster">
<title>cluster_notification</title>
<polygon fill="none" stroke="black" stroke-dasharray="1,5" points="48.5,-1266 48.5,-1613 435.5,-1613 435.5,-1266 48.5,-1266"/>
<text text-anchor="middle" x="242" y="-1597.8" font-family="Times,serif" font-size="14.00">Notifications</text>
</g>
<g id="clust5" class="cluster">
<title>cluster_database</title>
<polygon fill="none" stroke="black" stroke-dasharray="1,5" points="8,-1621 8,-2308 476,-2308 476,-1621 8,-1621"/>
<text text-anchor="middle" x="242" y="-2292.8" font-family="Times,serif" font-size="14.00">Database</text>
</g>
<g id="clust6" class="cluster">
<title>cluster_schedule</title>
<polygon fill="none" stroke="black" stroke-dasharray="1,5" points="105.5,-2316 105.5,-2499 378.5,-2499 378.5,-2316 105.5,-2316"/>
<text text-anchor="middle" x="242" y="-2483.8" font-family="Times,serif" font-size="14.00">Schedule</text>
</g>
<g id="clust7" class="cluster">
<title>cluster_payment</title>
<polygon fill="none" stroke="black" stroke-dasharray="1,5" points="143,-2507 143,-2582 341,-2582 341,-2507 143,-2507"/>
<text text-anchor="middle" x="242" y="-2566.8" font-family="Times,serif" font-size="14.00">Payment</text>
</g>
<!-- 311 -->
<g id="node1" class="node">
<title>311</title>
<polygon fill="none" stroke="black" points="372,-106 112,-106 112,-70 372,-70 372,-106"/>
<text text-anchor="middle" x="242" y="-84.3" font-family="Times,serif" font-size="14.00">3.1.1 Ensure user is registered and logged in</text>
</g>
<!-- 712 -->
<g id="node2" class="node">
<title>712</title>
<polygon fill="none" stroke="black" points="339.5,-52 144.5,-52 144.5,-16 339.5,-16 339.5,-52"/>
<text text-anchor="middle" x="242" y="-30.3" font-family="Times,serif" font-size="14.00">7.1.2 Check if user is authorized</text>
</g>
<!-- 111 -->
<g id="node3" class="node">
<title>111</title>
<polygon fill="none" stroke="black" points="341,-893 143,-893 143,-857 341,-857 341,-893"/>
<text text-anchor="middle" x="242" y="-871.3" font-family="Times,serif" font-size="14.00">1.1.1 Create registration form UI</text>
</g>
<!-- 211 -->
<g id="node4" class="node">
<title>211</title>
<polygon fill="none" stroke="black" points="394.5,-839 89.5,-839 89.5,-803 394.5,-803 394.5,-839"/>
<text text-anchor="middle" x="242" y="-817.3" font-family="Times,serif" font-size="14.00">2.1.1 Create UI for entering username and password</text>
</g>
<!-- 221 -->
<g id="node5" class="node">
<title>221</title>
<polygon fill="none" stroke="black" points="371,-785 113,-785 113,-749 371,-749 371,-785"/>
<text text-anchor="middle" x="242" y="-763.3" font-family="Times,serif" font-size="14.00">2.2.1 Create UI for user to change password</text>
</g>
<!-- 312 -->
<g id="node6" class="node">
<title>312</title>
<polygon fill="none" stroke="black" points="369,-731 115,-731 115,-695 369,-695 369,-731"/>
<text text-anchor="middle" x="242" y="-709.3" font-family="Times,serif" font-size="14.00">3.1.2 Create UI for submitting manuscripts</text>
</g>
<!-- 321 -->
<g id="node7" class="node">
<title>321</title>
<polygon fill="none" stroke="black" points="342.5,-677 141.5,-677 141.5,-641 342.5,-641 342.5,-677"/>
<text text-anchor="middle" x="242" y="-655.3" font-family="Times,serif" font-size="14.00">3.2.1 Create save button interface</text>
</g>
<!-- 411 -->
<g id="node8" class="node">
<title>411</title>
<polygon fill="none" stroke="black" points="418.5,-623 65.5,-623 65.5,-587 418.5,-587 418.5,-623"/>
<text text-anchor="middle" x="242" y="-601.3" font-family="Times,serif" font-size="14.00">4.2.2 Redirect referee to account, where paper is stored under</text>
</g>
<!-- 112 -->
<g id="node9" class="node">
<title>112</title>
<polygon fill="none" stroke="black" points="357.5,-569 126.5,-569 126.5,-533 357.5,-533 357.5,-569"/>
<text text-anchor="middle" x="242" y="-547.3" font-family="Times,serif" font-size="14.00">1.1.2 Redirect user to registration form</text>
</g>
<!-- 115 -->
<g id="node10" class="node">
<title>115</title>
<polygon fill="none" stroke="black" points="344,-515 140,-515 140,-479 344,-479 344,-515"/>
<text text-anchor="middle" x="242" y="-493.3" font-family="Times,serif" font-size="14.00">1.1.5 Redirect user to login screen</text>
</g>
<!-- 213 -->
<g id="node11" class="node">
<title>213</title>
<polygon fill="none" stroke="black" points="341,-461 143,-461 143,-425 341,-425 341,-461"/>
<text text-anchor="middle" x="242" y="-439.3" font-family="Times,serif" font-size="14.00">2.1.3 Redirect user to home page</text>
</g>
<!-- 224 -->
<g id="node12" class="node">
<title>224</title>
<polygon fill="none" stroke="black" points="367.5,-407 116.5,-407 116.5,-369 367.5,-369 367.5,-407"/>
<text text-anchor="middle" x="242" y="-391.8" font-family="Times,serif" font-size="14.00">2.2.4 Redirect user to login page</text>
<text text-anchor="middle" x="242" y="-376.8" font-family="Times,serif" font-size="14.00">(so they can log in with the new password)</text>
</g>
<!-- 315 -->
<g id="node13" class="node">
<title>315</title>
<polygon fill="none" stroke="black" points="341,-351 143,-351 143,-315 341,-315 341,-351"/>
<text text-anchor="middle" x="242" y="-329.3" font-family="Times,serif" font-size="14.00">3.1.5 Redirect user to home page</text>
</g>
<!-- 522 -->
<g id="node14" class="node">
<title>522</title>
<polygon fill="none" stroke="black" points="382.5,-297 101.5,-297 101.5,-261 382.5,-261 382.5,-297"/>
<text text-anchor="middle" x="242" y="-275.3" font-family="Times,serif" font-size="14.00">5.2.2 Create UI for editor to make final decision</text>
</g>
<!-- 621 -->
<g id="node15" class="node">
<title>621</title>
<polygon fill="none" stroke="black" points="384,-243 100,-243 100,-207 384,-207 384,-243"/>
<text text-anchor="middle" x="242" y="-221.3" font-family="Times,serif" font-size="14.00">6.2.1 Create UI for editor/admin to edit schedule</text>
</g>
<!-- 713 -->
<g id="node16" class="node">
<title>713</title>
<polygon fill="none" stroke="black" points="468,-189 16,-189 16,-153 468,-153 468,-189"/>
<text text-anchor="middle" x="242" y="-167.3" font-family="Times,serif" font-size="14.00">7.1.3 Create UI to prompt user to pay for attending and choose registration type</text>
</g>
<!-- 113 -->
<g id="node17" class="node">
<title>113</title>
<polygon fill="none" stroke="black" points="427,-1226.5 57,-1226.5 57,-1173.5 427,-1173.5 427,-1226.5"/>
<text text-anchor="middle" x="242" y="-1211.3" font-family="Times,serif" font-size="14.00">1.1.3 Verify user input in form</text>
<text text-anchor="middle" x="242" y="-1196.3" font-family="Times,serif" font-size="14.00">(verify email is unique and password follows security standards.</text>
<text text-anchor="middle" x="242" y="-1181.3" font-family="Times,serif" font-size="14.00">If not, show error message)</text>
</g>
<!-- 313 -->
<g id="node18" class="node">
<title>313</title>
<polygon fill="none" stroke="black" points="418.5,-1155.5 65.5,-1155.5 65.5,-1102.5 418.5,-1102.5 418.5,-1155.5"/>
<text text-anchor="middle" x="242" y="-1140.3" font-family="Times,serif" font-size="14.00">3.1.3 Validate fields in form, ensure they follow system rules</text>
<text text-anchor="middle" x="242" y="-1125.3" font-family="Times,serif" font-size="14.00">(e.g. email addresses, blanks, valid file formats, file size)</text>
<text text-anchor="middle" x="242" y="-1110.3" font-family="Times,serif" font-size="14.00">and show success or error message</text>
</g>
<!-- 322 -->
<g id="node19" class="node">
<title>322</title>
<polygon fill="none" stroke="black" points="411,-1084 73,-1084 73,-1048 411,-1048 411,-1084"/>
<text text-anchor="middle" x="242" y="-1062.3" font-family="Times,serif" font-size="14.00">3.2.2 Check fields for validity and inform user of violation</text>
</g>
<!-- 412 -->
<g id="node20" class="node">
<title>412</title>
<polygon fill="none" stroke="black" points="447.5,-1030 36.5,-1030 36.5,-994 447.5,-994 447.5,-1030"/>
<text text-anchor="middle" x="242" y="-1008.3" font-family="Times,serif" font-size="14.00">4.1.2 Validate form, display success or error message (e.g. 3 reviewers)</text>
</g>
<!-- 714 -->
<g id="node21" class="node">
<title>714</title>
<polygon fill="none" stroke="black" points="343.5,-976 140.5,-976 140.5,-940 343.5,-940 343.5,-976"/>
<text text-anchor="middle" x="242" y="-954.3" font-family="Times,serif" font-size="14.00">7.1.4 Verify payment information</text>
</g>
<!-- 414 -->
<g id="node22" class="node">
<title>414</title>
<polygon fill="none" stroke="black" points="427.5,-1582 56.5,-1582 56.5,-1546 427.5,-1546 427.5,-1582"/>
<text text-anchor="middle" x="242" y="-1560.3" font-family="Times,serif" font-size="14.00">4.1.4 Notify referee of assignment in form of a review invitation</text>
</g>
<!-- 524 -->
<g id="node23" class="node">
<title>524</title>
<polygon fill="none" stroke="black" points="351.5,-1528 132.5,-1528 132.5,-1492 351.5,-1492 351.5,-1528"/>
<text text-anchor="middle" x="242" y="-1506.3" font-family="Times,serif" font-size="14.00">5.2.4 Send editor&#39;s decision to author</text>
</g>
<!-- 613 -->
<g id="node24" class="node">
<title>613</title>
<polygon fill="none" stroke="black" points="403,-1474 81,-1474 81,-1438 403,-1438 403,-1474"/>
<text text-anchor="middle" x="242" y="-1452.3" font-family="Times,serif" font-size="14.00">6.1.3 Send schedule to editor to be checked or modified</text>
</g>
<!-- 615 -->
<g id="node25" class="node">
<title>615</title>
<polygon fill="none" stroke="black" points="386.5,-1420 97.5,-1420 97.5,-1384 386.5,-1384 386.5,-1420"/>
<text text-anchor="middle" x="242" y="-1398.3" font-family="Times,serif" font-size="14.00">6.1.5 Send schedule to authors of accepted papers</text>
</g>
<!-- 717 -->
<g id="node26" class="node">
<title>717</title>
<polygon fill="none" stroke="black" points="391.5,-1366 92.5,-1366 92.5,-1330 391.5,-1330 391.5,-1366"/>
<text text-anchor="middle" x="242" y="-1344.3" font-family="Times,serif" font-size="14.00">7.1.7 Send user confirmation of purchase and ticket</text>
</g>
<!-- 711 -->
<g id="node27" class="node">
<title>711</title>
<polygon fill="none" stroke="black" points="365,-1312 119,-1312 119,-1274 365,-1274 365,-1312"/>
<text text-anchor="middle" x="242" y="-1296.8" font-family="Times,serif" font-size="14.00">7.1.1 Announce prices on CMS web page</text>
<text text-anchor="middle" x="242" y="-1281.8" font-family="Times,serif" font-size="14.00">(available to guests and authorized users)</text>
</g>
<!-- 114 -->
<g id="node28" class="node">
<title>114</title>
<polygon fill="none" stroke="black" points="382,-2277 102,-2277 102,-2241 382,-2241 382,-2277"/>
<text text-anchor="middle" x="242" y="-2255.3" font-family="Times,serif" font-size="14.00">1.1.4 Store user email and password in database</text>
</g>
<!-- 212 -->
<g id="node29" class="node">
<title>212</title>
<polygon fill="none" stroke="black" points="468,-2223 16,-2223 16,-2187 468,-2187 468,-2223"/>
<text text-anchor="middle" x="242" y="-2201.3" font-family="Times,serif" font-size="14.00">2.1.2 Compare username and password to database and provide or deny access.</text>
</g>
<!-- 323 -->
<g id="node30" class="node">
<title>323</title>
<polygon fill="none" stroke="black" points="390,-2169 94,-2169 94,-2133 390,-2133 390,-2169"/>
<text text-anchor="middle" x="242" y="-2147.3" font-family="Times,serif" font-size="14.00">3.2.3 Save partial information of paper in database</text>
</g>
<!-- 222 -->
<g id="node31" class="node">
<title>222</title>
<polygon fill="none" stroke="black" points="327,-2115 157,-2115 157,-2079 327,-2079 327,-2115"/>
<text text-anchor="middle" x="242" y="-2093.3" font-family="Times,serif" font-size="14.00">2.2.2 Confirm old password</text>
</g>
<!-- 223 -->
<g id="node32" class="node">
<title>223</title>
<polygon fill="none" stroke="black" points="345,-2061 139,-2061 139,-2025 345,-2025 345,-2061"/>
<text text-anchor="middle" x="242" y="-2039.3" font-family="Times,serif" font-size="14.00">2.2.3 Update password in database</text>
</g>
<!-- 314 -->
<g id="node33" class="node">
<title>314</title>
<polygon fill="none" stroke="black" points="347,-2007 137,-2007 137,-1971 347,-1971 347,-2007"/>
<text text-anchor="middle" x="242" y="-1985.3" font-family="Times,serif" font-size="14.00">3.1.4 Store information in database</text>
</g>
<!-- 413 -->
<g id="node34" class="node">
<title>413</title>
<polygon fill="none" stroke="black" points="405,-1953 79,-1953 79,-1917 405,-1917 405,-1953"/>
<text text-anchor="middle" x="242" y="-1931.3" font-family="Times,serif" font-size="14.00">4.1.3 Check if reviewer has more than 5 assigned papers</text>
</g>
<!-- 421 -->
<g id="node35" class="node">
<title>421</title>
<polygon fill="none" stroke="black" points="439,-1898.5 45,-1898.5 45,-1845.5 439,-1845.5 439,-1898.5"/>
<text text-anchor="middle" x="242" y="-1883.3" font-family="Times,serif" font-size="14.00">4.2.1 When referee accepts, put the paper under the referee&#39;s account</text>
<text text-anchor="middle" x="242" y="-1868.3" font-family="Times,serif" font-size="14.00">if less than 3 referees are already reviewing</text>
<text text-anchor="middle" x="242" y="-1853.3" font-family="Times,serif" font-size="14.00">else inform editor</text>
</g>
<!-- 521 -->
<g id="node36" class="node">
<title>521</title>
<polygon fill="none" stroke="black" points="363.5,-1827 120.5,-1827 120.5,-1791 363.5,-1791 363.5,-1827"/>
<text text-anchor="middle" x="242" y="-1805.3" font-family="Times,serif" font-size="14.00">5.2.1 Check if all review forms are ready</text>
</g>
<!-- 523 -->
<g id="node37" class="node">
<title>523</title>
<polygon fill="none" stroke="black" points="357,-1773 127,-1773 127,-1737 357,-1737 357,-1773"/>
<text text-anchor="middle" x="242" y="-1751.3" font-family="Times,serif" font-size="14.00">5.2.3 Save editor&#39;s decision to database</text>
</g>
<!-- 622 -->
<g id="node38" class="node">
<title>622</title>
<polygon fill="none" stroke="black" points="406.5,-1719 77.5,-1719 77.5,-1683 406.5,-1683 406.5,-1719"/>
<text text-anchor="middle" x="242" y="-1697.3" font-family="Times,serif" font-size="14.00">6.2.2 Update database with new schedule as final version</text>
</g>
<!-- 715 -->
<g id="node39" class="node">
<title>715</title>
<polygon fill="none" stroke="black" points="372.5,-1665 111.5,-1665 111.5,-1629 372.5,-1629 372.5,-1665"/>
<text text-anchor="middle" x="242" y="-1643.3" font-family="Times,serif" font-size="14.00">7.1.5 Store payment information in database</text>
</g>
<!-- 611 -->
<g id="node40" class="node">
<title>611</title>
<polygon fill="none" stroke="black" points="362.5,-2468 121.5,-2468 121.5,-2432 362.5,-2432 362.5,-2468"/>
<text text-anchor="middle" x="242" y="-2446.3" font-family="Times,serif" font-size="14.00">6.1.1 Implement scheduling algorithm X</text>
</g>
<!-- 612 -->
<g id="node41" class="node">
<title>612</title>
<polygon fill="none" stroke="black" points="363.5,-2414 120.5,-2414 120.5,-2378 363.5,-2378 363.5,-2414"/>
<text text-anchor="middle" x="242" y="-2392.3" font-family="Times,serif" font-size="14.00">6.1.2 Convert schedule to HTML format</text>
</g>
<!-- 614 -->
<g id="node42" class="node">
<title>614</title>
<polygon fill="none" stroke="black" points="370.5,-2360 113.5,-2360 113.5,-2324 370.5,-2324 370.5,-2360"/>
<text text-anchor="middle" x="242" y="-2338.3" font-family="Times,serif" font-size="14.00">6.1.4 Announce schedule on CMS webpage</text>
</g>
<!-- 716 -->
<g id="node43" class="node">
<title>716</title>
<polygon fill="none" stroke="black" points="333,-2551 151,-2551 151,-2515 333,-2515 333,-2551"/>
<text text-anchor="middle" x="242" y="-2529.3" font-family="Times,serif" font-size="14.00">7.1.6 Charge user&#39;s credit card</text>
</g>
</g>
</svg>
