<?xml version="1.0" encoding="UTF-8" standalone="no"?>
<!DOCTYPE svg PUBLIC "-//W3C//DTD SVG 1.1//EN"
 "http://www.w3.org/Graphics/SVG/1.1/DTD/svg11.dtd">
<!-- Generated by graphviz version 2.44.1 (0)
 -->
<!-- Pages: 1 -->
<svg width="2128pt" height="1226pt"
 viewBox="0.00 0.00 2128.00 1226.00" xmlns="http://www.w3.org/2000/svg" xmlns:xlink="http://www.w3.org/1999/xlink">
<g id="graph0" class="graph" transform="scale(1 1) rotate(0) translate(4 1222)">
<polygon fill="white" stroke="transparent" points="-4,4 -4,-1222 2124,-1222 2124,4 -4,4"/>
<g id="clust1" class="cluster">
<title>cluster_authentication</title>
<polygon fill="none" stroke="black" stroke-dasharray="1,5" points="63.5,-131 63.5,-260 339.5,-260 339.5,-131 63.5,-131"/>
<text text-anchor="middle" x="201.5" y="-244.8" font-family="Times,serif" font-size="14.00">Authentication</text>
</g>
<g id="clust2" class="cluster">
<title>cluster_ui</title>
<polygon fill="none" stroke="black" stroke-dasharray="1,5" points="415,-703 415,-1210 2011.5,-1210 2011.5,-703 415,-703"/>
<text text-anchor="middle" x="1213.25" y="-1194.8" font-family="Times,serif" font-size="14.00">User Interface</text>
</g>
<g id="clust3" class="cluster">
<title>cluster_formvalidation</title>
<polygon fill="none" stroke="black" stroke-dasharray="1,5" points="903,-369 903,-695 1330,-695 1330,-369 903,-369"/>
<text text-anchor="middle" x="1116.5" y="-679.8" font-family="Times,serif" font-size="14.00">Form Validation</text>
</g>
<g id="clust4" class="cluster">
<title>cluster_notification</title>
<polygon fill="none" stroke="black" stroke-dasharray="1,5" points="8,-581 8,-982 395,-982 395,-581 8,-581"/>
<text text-anchor="middle" x="201.5" y="-966.8" font-family="Times,serif" font-size="14.00">Notifications</text>
</g>
<g id="clust5" class="cluster">
<title>cluster_database</title>
<polygon fill="none" stroke="black" stroke-dasharray="1,5" points="1644,-8 1644,-695 2112,-695 2112,-8 1644,-8"/>
<text text-anchor="middle" x="1878" y="-679.8" font-family="Times,serif" font-size="14.00">Database</text>
</g>
<g id="clust6" class="cluster">
<title>cluster_schedule</title>
<polygon fill="none" stroke="black" stroke-dasharray="1,5" points="520.5,-286 520.5,-361 1246,-361 1246,-286 520.5,-286"/>
<text text-anchor="middle" x="883.25" y="-345.8" font-family="Times,serif" font-size="14.00">Schedule</text>
</g>
<g id="clust7" class="cluster">
<title>cluster_payment</title>
<polygon fill="none" stroke="black" stroke-dasharray="1,5" points="102.5,-1086 102.5,-1161 300.5,-1161 300.5,-1086 102.5,-1086"/>
<text text-anchor="middle" x="201.5" y="-1145.8" font-family="Times,serif" font-size="14.00">Payment</text>
</g>
<!-- 311 -->
<g id="node1" class="node">
<title>311</title>
<polygon fill="none" stroke="black" points="331.5,-229 71.5,-229 71.5,-193 331.5,-193 331.5,-229"/>
<text text-anchor="middle" x="201.5" y="-207.3" font-family="Times,serif" font-size="14.00">3.1.1 Ensure user is registered and logged in</text>
</g>
<!-- 712 -->
<g id="node2" class="node">
<title>712</title>
<polygon fill="none" stroke="black" points="299,-175 104,-175 104,-139 299,-139 299,-175"/>
<text text-anchor="middle" x="201.5" y="-153.3" font-family="Times,serif" font-size="14.00">7.1.2 Check if user is authorized</text>
</g>
<!-- 111 -->
<g id="node3" class="node">
<title>111</title>
<polygon fill="none" stroke="black" points="748,-1179 550,-1179 550,-1143 748,-1143 748,-1179"/>
<text text-anchor="middle" x="649" y="-1157.3" font-family="Times,serif" font-size="14.00">1.1.1 Create registration form UI</text>
</g>
<!-- 211 -->
<g id="node4" class="node">
<title>211</title>
<polygon fill="none" stroke="black" points="1269,-1100 964,-1100 964,-1064 1269,-1064 1269,-1100"/>
<text text-anchor="middle" x="1116.5" y="-1078.3" font-family="Times,serif" font-size="14.00">2.1.1 Create UI for entering username and password</text>
</g>
<!-- 111&#45;&gt;211 -->
<g id="edge9" class="edge">
<title>111&#45;&gt;211</title>
<path fill="none" stroke="black" d="M748.03,-1149.24C808.67,-1141.96 875,-1134 875,-1134 875,-1134 903,-1119 903,-1119 903,-1119 951.35,-1110.58 1001.92,-1101.78"/>
<polygon fill="black" stroke="black" points="1002.8,-1105.18 1012.05,-1100.01 1001.6,-1098.28 1002.8,-1105.18"/>
</g>
<!-- 221 -->
<g id="node5" class="node">
<title>221</title>
<polygon fill="none" stroke="black" points="1616,-1150 1358,-1150 1358,-1114 1616,-1114 1616,-1150"/>
<text text-anchor="middle" x="1487" y="-1128.3" font-family="Times,serif" font-size="14.00">2.2.1 Create UI for user to change password</text>
</g>
<!-- 111&#45;&gt;221 -->
<g id="edge5" class="edge">
<title>111&#45;&gt;221</title>
<path fill="none" stroke="black" d="M748.18,-1150.52C819.3,-1142.93 903,-1134 903,-1134 903,-1134 1175.1,-1133.07 1347.52,-1132.48"/>
<polygon fill="black" stroke="black" points="1347.71,-1135.97 1357.7,-1132.44 1347.69,-1128.97 1347.71,-1135.97"/>
</g>
<!-- 112 -->
<g id="node9" class="node">
<title>112</title>
<polygon fill="none" stroke="black" points="1232,-1179 1001,-1179 1001,-1143 1232,-1143 1232,-1179"/>
<text text-anchor="middle" x="1116.5" y="-1157.3" font-family="Times,serif" font-size="14.00">1.1.2 Redirect user to registration form</text>
</g>
<!-- 111&#45;&gt;112 -->
<g id="edge4" class="edge">
<title>111&#45;&gt;112</title>
<path fill="none" stroke="black" d="M748.15,-1161C818.74,-1161 914.49,-1161 990.53,-1161"/>
<polygon fill="black" stroke="black" points="990.65,-1164.5 1000.65,-1161 990.65,-1157.5 990.65,-1164.5"/>
</g>
<!-- 113 -->
<g id="node17" class="node">
<title>113</title>
<polygon fill="none" stroke="black" points="1301.5,-663.5 931.5,-663.5 931.5,-610.5 1301.5,-610.5 1301.5,-663.5"/>
<text text-anchor="middle" x="1116.5" y="-648.3" font-family="Times,serif" font-size="14.00">1.1.3 Verify user input in form</text>
<text text-anchor="middle" x="1116.5" y="-633.3" font-family="Times,serif" font-size="14.00">(verify email is unique and password follows security standards.</text>
<text text-anchor="middle" x="1116.5" y="-618.3" font-family="Times,serif" font-size="14.00">If not, show error message)</text>
</g>
<!-- 111&#45;&gt;113 -->
<g id="edge11" class="edge">
<title>111&#45;&gt;113</title>
<path fill="none" stroke="black" d="M748.03,-1149.24C808.67,-1141.96 875,-1134 875,-1134 875,-1134 903,-699 903,-699 903,-699 959.76,-682.44 1014.61,-666.44"/>
<polygon fill="black" stroke="black" points="1015.84,-669.72 1024.46,-663.56 1013.88,-663 1015.84,-669.72"/>
</g>
<!-- 115 -->
<g id="node10" class="node">
<title>115</title>
<polygon fill="none" stroke="black" points="1589,-1096 1385,-1096 1385,-1060 1589,-1060 1589,-1096"/>
<text text-anchor="middle" x="1487" y="-1074.3" font-family="Times,serif" font-size="14.00">1.1.5 Redirect user to login screen</text>
</g>
<!-- 211&#45;&gt;115 -->
<g id="edge8" class="edge">
<title>211&#45;&gt;115</title>
<path fill="none" stroke="black" d="M1269.24,-1080.35C1304.57,-1079.97 1341.55,-1079.57 1374.75,-1079.21"/>
<polygon fill="black" stroke="black" points="1374.96,-1082.71 1384.93,-1079.1 1374.89,-1075.71 1374.96,-1082.71"/>
</g>
<!-- 224 -->
<g id="node12" class="node">
<title>224</title>
<polygon fill="none" stroke="black" points="2003.5,-1151 1752.5,-1151 1752.5,-1113 2003.5,-1113 2003.5,-1151"/>
<text text-anchor="middle" x="1878" y="-1135.8" font-family="Times,serif" font-size="14.00">2.2.4 Redirect user to login page</text>
<text text-anchor="middle" x="1878" y="-1120.8" font-family="Times,serif" font-size="14.00">(so they can log in with the new password)</text>
</g>
<!-- 221&#45;&gt;224 -->
<g id="edge7" class="edge">
<title>221&#45;&gt;224</title>
<path fill="none" stroke="black" d="M1616.18,-1132C1656.67,-1132 1701.52,-1132 1742.45,-1132"/>
<polygon fill="black" stroke="black" points="1742.49,-1135.5 1752.49,-1132 1742.49,-1128.5 1742.49,-1135.5"/>
</g>
<!-- 212 -->
<g id="node30" class="node">
<title>212</title>
<polygon fill="none" stroke="black" points="2104,-610 1652,-610 1652,-574 2104,-574 2104,-610"/>
<text text-anchor="middle" x="1878" y="-588.3" font-family="Times,serif" font-size="14.00">2.1.2 Compare username and password to database and provide or deny access.</text>
</g>
<!-- 221&#45;&gt;212 -->
<g id="edge10" class="edge">
<title>221&#45;&gt;212</title>
<path fill="none" stroke="black" d="M1573.38,-1113.99C1596.86,-1109.04 1616,-1105 1616,-1105 1616,-1105 1644,-619 1644,-619 1644,-619 1673.36,-615.6 1711.24,-611.21"/>
<polygon fill="black" stroke="black" points="1712.06,-614.64 1721.59,-610.01 1711.25,-607.68 1712.06,-614.64"/>
</g>
<!-- 312 -->
<g id="node6" class="node">
<title>312</title>
<polygon fill="none" stroke="black" points="776,-1125 522,-1125 522,-1089 776,-1089 776,-1125"/>
<text text-anchor="middle" x="649" y="-1103.3" font-family="Times,serif" font-size="14.00">3.1.2 Create UI for submitting manuscripts</text>
</g>
<!-- 321 -->
<g id="node7" class="node">
<title>321</title>
<polygon fill="none" stroke="black" points="749.5,-1071 548.5,-1071 548.5,-1035 749.5,-1035 749.5,-1071"/>
<text text-anchor="middle" x="649" y="-1049.3" font-family="Times,serif" font-size="14.00">3.2.1 Create save button interface</text>
</g>
<!-- 411 -->
<g id="node8" class="node">
<title>411</title>
<polygon fill="none" stroke="black" points="825.5,-1017 472.5,-1017 472.5,-981 825.5,-981 825.5,-1017"/>
<text text-anchor="middle" x="649" y="-995.3" font-family="Times,serif" font-size="14.00">4.2.2 Redirect referee to account, where paper is stored under</text>
</g>
<!-- 112&#45;&gt;221 -->
<g id="edge6" class="edge">
<title>112&#45;&gt;221</title>
<path fill="none" stroke="black" d="M1232.08,-1151.98C1268.63,-1149.11 1309.49,-1145.89 1347.55,-1142.9"/>
<polygon fill="black" stroke="black" points="1347.99,-1146.37 1357.68,-1142.1 1347.44,-1139.39 1347.99,-1146.37"/>
</g>
<!-- 213 -->
<g id="node11" class="node">
<title>213</title>
<polygon fill="none" stroke="black" points="748,-963 550,-963 550,-927 748,-927 748,-963"/>
<text text-anchor="middle" x="649" y="-941.3" font-family="Times,serif" font-size="14.00">2.1.3 Redirect user to home page</text>
</g>
<!-- 315 -->
<g id="node13" class="node">
<title>315</title>
<polygon fill="none" stroke="black" points="748,-909 550,-909 550,-873 748,-873 748,-909"/>
<text text-anchor="middle" x="649" y="-887.3" font-family="Times,serif" font-size="14.00">3.1.5 Redirect user to home page</text>
</g>
<!-- 522 -->
<g id="node14" class="node">
<title>522</title>
<polygon fill="none" stroke="black" points="789.5,-855 508.5,-855 508.5,-819 789.5,-819 789.5,-855"/>
<text text-anchor="middle" x="649" y="-833.3" font-family="Times,serif" font-size="14.00">5.2.2 Create UI for editor to make final decision</text>
</g>
<!-- 621 -->
<g id="node15" class="node">
<title>621</title>
<polygon fill="none" stroke="black" points="791,-801 507,-801 507,-765 791,-765 791,-801"/>
<text text-anchor="middle" x="649" y="-779.3" font-family="Times,serif" font-size="14.00">6.2.1 Create UI for editor/admin to edit schedule</text>
</g>
<!-- 713 -->
<g id="node16" class="node">
<title>713</title>
<polygon fill="none" stroke="black" points="875,-747 423,-747 423,-711 875,-711 875,-747"/>
<text text-anchor="middle" x="649" y="-725.3" font-family="Times,serif" font-size="14.00">7.1.3 Create UI to prompt user to pay for attending and choose registration type</text>
</g>
<!-- 313 -->
<g id="node18" class="node">
<title>313</title>
<polygon fill="none" stroke="black" points="1293,-592.5 940,-592.5 940,-539.5 1293,-539.5 1293,-592.5"/>
<text text-anchor="middle" x="1116.5" y="-577.3" font-family="Times,serif" font-size="14.00">3.1.3 Validate fields in form, ensure they follow system rules</text>
<text text-anchor="middle" x="1116.5" y="-562.3" font-family="Times,serif" font-size="14.00">(e.g. email addresses, blanks, valid file formats, file size)</text>
<text text-anchor="middle" x="1116.5" y="-547.3" font-family="Times,serif" font-size="14.00">and show success or error message</text>
</g>
<!-- 322 -->
<g id="node19" class="node">
<title>322</title>
<polygon fill="none" stroke="black" points="1285.5,-521 947.5,-521 947.5,-485 1285.5,-485 1285.5,-521"/>
<text text-anchor="middle" x="1116.5" y="-499.3" font-family="Times,serif" font-size="14.00">3.2.2 Check fields for validity and inform user of violation</text>
</g>
<!-- 412 -->
<g id="node20" class="node">
<title>412</title>
<polygon fill="none" stroke="black" points="1322,-467 911,-467 911,-431 1322,-431 1322,-467"/>
<text text-anchor="middle" x="1116.5" y="-445.3" font-family="Times,serif" font-size="14.00">4.1.2 Validate form, display success or error message (e.g. 3 reviewers)</text>
</g>
<!-- 714 -->
<g id="node21" class="node">
<title>714</title>
<polygon fill="none" stroke="black" points="1218,-413 1015,-413 1015,-377 1218,-377 1218,-413"/>
<text text-anchor="middle" x="1116.5" y="-391.3" font-family="Times,serif" font-size="14.00">7.1.4 Verify payment information</text>
</g>
<!-- 414 -->
<g id="node22" class="node">
<title>414</title>
<polygon fill="none" stroke="black" points="387,-951 16,-951 16,-915 387,-915 387,-951"/>
<text text-anchor="middle" x="201.5" y="-929.3" font-family="Times,serif" font-size="14.00">4.1.4 Notify referee of assignment in form of a review invitation</text>
</g>
<!-- 524 -->
<g id="node23" class="node">
<title>524</title>
<polygon fill="none" stroke="black" points="311,-897 92,-897 92,-861 311,-861 311,-897"/>
<text text-anchor="middle" x="201.5" y="-875.3" font-family="Times,serif" font-size="14.00">5.2.4 Send editor&#39;s decision to author</text>
</g>
<!-- 613 -->
<g id="node24" class="node">
<title>613</title>
<polygon fill="none" stroke="black" points="362.5,-843 40.5,-843 40.5,-807 362.5,-807 362.5,-843"/>
<text text-anchor="middle" x="201.5" y="-821.3" font-family="Times,serif" font-size="14.00">6.1.3 Send schedule to editor to be checked or modified</text>
</g>
<!-- 615 -->
<g id="node25" class="node">
<title>615</title>
<polygon fill="none" stroke="black" points="346,-789 57,-789 57,-753 346,-753 346,-789"/>
<text text-anchor="middle" x="201.5" y="-767.3" font-family="Times,serif" font-size="14.00">6.1.5 Send schedule to authors of accepted papers</text>
</g>
<!-- 717 -->
<g id="node26" class="node">
<title>717</title>
<polygon fill="none" stroke="black" points="351,-735 52,-735 52,-699 351,-699 351,-735"/>
<text text-anchor="middle" x="201.5" y="-713.3" font-family="Times,serif" font-size="14.00">7.1.7 Send user confirmation of purchase and ticket</text>
</g>
<!-- 711 -->
<g id="node27" class="node">
<title>711</title>
<polygon fill="none" stroke="black" points="324.5,-681 78.5,-681 78.5,-643 324.5,-643 324.5,-681"/>
<text text-anchor="middle" x="201.5" y="-665.8" font-family="Times,serif" font-size="14.00">7.1.1 Announce prices on CMS web page</text>
<text text-anchor="middle" x="201.5" y="-650.8" font-family="Times,serif" font-size="14.00">(available to guests and authorized users)</text>
</g>
<!-- 614 -->
<g id="node28" class="node">
<title>614</title>
<polygon fill="none" stroke="black" points="330,-625 73,-625 73,-589 330,-589 330,-625"/>
<text text-anchor="middle" x="201.5" y="-603.3" font-family="Times,serif" font-size="14.00">6.1.4 Announce schedule on CMS webpage</text>
</g>
<!-- 114 -->
<g id="node29" class="node">
<title>114</title>
<polygon fill="none" stroke="black" points="2018,-664 1738,-664 1738,-628 2018,-628 2018,-664"/>
<text text-anchor="middle" x="1878" y="-642.3" font-family="Times,serif" font-size="14.00">1.1.4 Store user email and password in database</text>
</g>
<!-- 323 -->
<g id="node31" class="node">
<title>323</title>
<polygon fill="none" stroke="black" points="2026,-556 1730,-556 1730,-520 2026,-520 2026,-556"/>
<text text-anchor="middle" x="1878" y="-534.3" font-family="Times,serif" font-size="14.00">3.2.3 Save partial information of paper in database</text>
</g>
<!-- 222 -->
<g id="node32" class="node">
<title>222</title>
<polygon fill="none" stroke="black" points="1963,-502 1793,-502 1793,-466 1963,-466 1963,-502"/>
<text text-anchor="middle" x="1878" y="-480.3" font-family="Times,serif" font-size="14.00">2.2.2 Confirm old password</text>
</g>
<!-- 223 -->
<g id="node33" class="node">
<title>223</title>
<polygon fill="none" stroke="black" points="1981,-448 1775,-448 1775,-412 1981,-412 1981,-448"/>
<text text-anchor="middle" x="1878" y="-426.3" font-family="Times,serif" font-size="14.00">2.2.3 Update password in database</text>
</g>
<!-- 314 -->
<g id="node34" class="node">
<title>314</title>
<polygon fill="none" stroke="black" points="1983,-394 1773,-394 1773,-358 1983,-358 1983,-394"/>
<text text-anchor="middle" x="1878" y="-372.3" font-family="Times,serif" font-size="14.00">3.1.4 Store information in database</text>
</g>
<!-- 413 -->
<g id="node35" class="node">
<title>413</title>
<polygon fill="none" stroke="black" points="2041,-340 1715,-340 1715,-304 2041,-304 2041,-340"/>
<text text-anchor="middle" x="1878" y="-318.3" font-family="Times,serif" font-size="14.00">4.1.3 Check if reviewer has more than 5 assigned papers</text>
</g>
<!-- 421 -->
<g id="node36" class="node">
<title>421</title>
<polygon fill="none" stroke="black" points="2075,-285.5 1681,-285.5 1681,-232.5 2075,-232.5 2075,-285.5"/>
<text text-anchor="middle" x="1878" y="-270.3" font-family="Times,serif" font-size="14.00">4.2.1 When referee accepts, put the paper under the referee&#39;s account</text>
<text text-anchor="middle" x="1878" y="-255.3" font-family="Times,serif" font-size="14.00">if less than 3 referees are already reviewing</text>
<text text-anchor="middle" x="1878" y="-240.3" font-family="Times,serif" font-size="14.00">else inform editor</text>
</g>
<!-- 521 -->
<g id="node37" class="node">
<title>521</title>
<polygon fill="none" stroke="black" points="1999.5,-214 1756.5,-214 1756.5,-178 1999.5,-178 1999.5,-214"/>
<text text-anchor="middle" x="1878" y="-192.3" font-family="Times,serif" font-size="14.00">5.2.1 Check if all review forms are ready</text>
</g>
<!-- 523 -->
<g id="node38" class="node">
<title>523</title>
<polygon fill="none" stroke="black" points="1993,-160 1763,-160 1763,-124 1993,-124 1993,-160"/>
<text text-anchor="middle" x="1878" y="-138.3" font-family="Times,serif" font-size="14.00">5.2.3 Save editor&#39;s decision to database</text>
</g>
<!-- 622 -->
<g id="node39" class="node">
<title>622</title>
<polygon fill="none" stroke="black" points="2042.5,-106 1713.5,-106 1713.5,-70 2042.5,-70 2042.5,-106"/>
<text text-anchor="middle" x="1878" y="-84.3" font-family="Times,serif" font-size="14.00">6.2.2 Update database with new schedule as final version</text>
</g>
<!-- 715 -->
<g id="node40" class="node">
<title>715</title>
<polygon fill="none" stroke="black" points="2008.5,-52 1747.5,-52 1747.5,-16 2008.5,-16 2008.5,-52"/>
<text text-anchor="middle" x="1878" y="-30.3" font-family="Times,serif" font-size="14.00">7.1.5 Store payment information in database</text>
</g>
<!-- 611 -->
<g id="node41" class="node">
<title>611</title>
<polygon fill="none" stroke="black" points="769.5,-330 528.5,-330 528.5,-294 769.5,-294 769.5,-330"/>
<text text-anchor="middle" x="649" y="-308.3" font-family="Times,serif" font-size="14.00">6.1.1 Implement scheduling algorithm X</text>
</g>
<!-- 612 -->
<g id="node42" class="node">
<title>612</title>
<polygon fill="none" stroke="black" points="1238,-330 995,-330 995,-294 1238,-294 1238,-330"/>
<text text-anchor="middle" x="1116.5" y="-308.3" font-family="Times,serif" font-size="14.00">6.1.2 Convert schedule to HTML format</text>
</g>
<!-- 611&#45;&gt;612 -->
<g id="edge2" class="edge">
<title>611&#45;&gt;612</title>
<path fill="none" stroke="black" d="M769.58,-312C835.3,-312 916.93,-312 984.39,-312"/>
<polygon fill="black" stroke="black" points="984.66,-315.5 994.66,-312 984.66,-308.5 984.66,-315.5"/>
</g>
<!-- 716 -->
<g id="node43" class="node">
<title>716</title>
<polygon fill="none" stroke="black" points="292.5,-1130 110.5,-1130 110.5,-1094 292.5,-1094 292.5,-1130"/>
<text text-anchor="middle" x="201.5" y="-1108.3" font-family="Times,serif" font-size="14.00">7.1.6 Charge user&#39;s credit card</text>
</g>
<!-- Start -->
<g id="node44" class="node">
<title>Start</title>
<polygon fill="none" stroke="black" points="228.5,-378 174.5,-378 174.5,-342 228.5,-342 228.5,-378"/>
<text text-anchor="middle" x="201.5" y="-356.3" font-family="Times,serif" font-size="14.00">Start</text>
</g>
<!-- Start&#45;&gt;111 -->
<g id="edge3" class="edge">
<title>Start&#45;&gt;111</title>
<path fill="none" stroke="black" d="M218.58,-378.13C264.85,-430.28 395,-577 395,-577 395,-577 415,-1134 415,-1134 415,-1134 478.88,-1141.4 539.74,-1148.45"/>
<polygon fill="black" stroke="black" points="539.53,-1151.95 549.86,-1149.63 540.33,-1145 539.53,-1151.95"/>
</g>
<!-- Start&#45;&gt;611 -->
<g id="edge1" class="edge">
<title>Start&#45;&gt;611</title>
<path fill="none" stroke="black" d="M228.7,-357.18C284.25,-351.19 417.06,-336.88 518.44,-325.96"/>
<polygon fill="black" stroke="black" points="518.89,-329.43 528.46,-324.88 518.14,-322.47 518.89,-329.43"/>
</g>
</g>
</svg>
