<?xml version="1.0" encoding="UTF-8" standalone="no"?><svg xmlns="http://www.w3.org/2000/svg" xmlns:xlink="http://www.w3.org/1999/xlink" contentScriptType="application/ecmascript" contentStyleType="text/css" height="1605px" preserveAspectRatio="none" style="width:577px;height:1605px;" version="1.1" viewBox="0 0 577 1605" width="577px" zoomAndPan="magnify"><defs><filter height="300%" id="fha3jfvawahyq" width="300%" x="-1" y="-1"><feGaussianBlur result="blurOut" stdDeviation="2.0"/><feColorMatrix in="blurOut" result="blurOut2" type="matrix" values="0 0 0 0 0 0 0 0 0 0 0 0 0 0 0 0 0 0 .4 0"/><feOffset dx="4.0" dy="4.0" in="blurOut2" result="blurOut3"/><feBlend in="SourceGraphic" in2="blurOut3" mode="normal"/></filter></defs><g><!--MD5=[dce152449a59020d305e264c9b8346f3]
cluster Content Management System (CMS)--><rect fill="#FFFFFF" filter="url(#fha3jfvawahyq)" height="1586" style="stroke:#000000;stroke-width:1.5;" width="262" x="216" y="7"/><text fill="#000000" font-family="sans-serif" font-size="14" font-weight="bold" lengthAdjust="spacing" textLength="246" x="224" y="22.0059">Content Management System (CMS)</text><ellipse cx="346.552" cy="1162.0104" fill="#FEFECE" filter="url(#fha3jfvawahyq)" rx="100.552" ry="22.5104" style="stroke:#A80036;stroke-width:1.5;"/><text fill="#000000" font-family="sans-serif" font-size="14" lengthAdjust="spacing" textLength="164" x="263.3029" y="1165.1398">request registration (FR1)</text><ellipse cx="346.3847" cy="57.8236" fill="#FEFECE" filter="url(#fha3jfvawahyq)" rx="63.8847" ry="15.3236" style="stroke:#A80036;stroke-width:1.5;"/><text fill="#000000" font-family="sans-serif" font-size="14" lengthAdjust="spacing" textLength="71" x="307.8847" y="61.5766">login (FR2)</text><ellipse cx="346.7357" cy="147.0471" fill="#FEFECE" filter="url(#fha3jfvawahyq)" rx="95.7357" ry="21.5471" style="stroke:#A80036;stroke-width:1.5;"/><text fill="#000000" font-family="sans-serif" font-size="14" lengthAdjust="spacing" textLength="153" x="267.7642" y="150.6241">change password (FR3)</text><ellipse cx="346.552" cy="1554.0104" fill="#FEFECE" filter="url(#fha3jfvawahyq)" rx="100.552" ry="22.5104" style="stroke:#A80036;stroke-width:1.5;"/><text fill="#000000" font-family="sans-serif" font-size="14" lengthAdjust="spacing" textLength="164" x="263.3029" y="1557.1398">request submission (FR4)</text><ellipse cx="346.7475" cy="1240.9495" fill="#FEFECE" filter="url(#fha3jfvawahyq)" rx="92.7475" ry="20.9495" style="stroke:#A80036;stroke-width:1.5;"/><text fill="#000000" font-family="sans-serif" font-size="14" lengthAdjust="spacing" textLength="146" x="270.7475" y="1244.7025">save submission (FR5)</text><ellipse cx="346.5876" cy="619.1175" fill="#FEFECE" filter="url(#fha3jfvawahyq)" rx="73.5876" ry="17.1175" style="stroke:#A80036;stroke-width:1.5;"/><text fill="#000000" font-family="sans-serif" font-size="14" lengthAdjust="spacing" textLength="98" x="294.5876" y="622.8705">assign referees</text><ellipse cx="346.4409" cy="222.8882" fill="#FEFECE" filter="url(#fha3jfvawahyq)" rx="82.4409" ry="18.8882" style="stroke:#A80036;stroke-width:1.5;"/><text fill="#000000" font-family="sans-serif" font-size="14" lengthAdjust="spacing" textLength="121" x="282.9409" y="226.6412">save referee (FR7)</text><ellipse cx="346.5547" cy="478.1109" fill="#FEFECE" filter="url(#fha3jfvawahyq)" rx="88.5547" ry="20.1109" style="stroke:#A80036;stroke-width:1.5;"/><text fill="#000000" font-family="sans-serif" font-size="14" lengthAdjust="spacing" textLength="136" x="275.5547" y="481.8639">evaluate paper (FR8)</text><ellipse cx="346.4024" cy="1008.7805" fill="#FEFECE" filter="url(#fha3jfvawahyq)" rx="86.9024" ry="19.7805" style="stroke:#A80036;stroke-width:1.5;"/><text fill="#000000" font-family="sans-serif" font-size="14" lengthAdjust="spacing" textLength="132" x="277.4024" y="1012.5334">make decision (FR9)</text><ellipse cx="346.3245" cy="786.8649" fill="#FEFECE" filter="url(#fha3jfvawahyq)" rx="92.3245" ry="20.8649" style="stroke:#A80036;stroke-width:1.5;"/><text fill="#000000" font-family="sans-serif" font-size="14" lengthAdjust="spacing" textLength="145" x="270.8245" y="790.6179">make schedule (FR10)</text><ellipse cx="346.314" cy="1083.8628" fill="#FEFECE" filter="url(#fha3jfvawahyq)" rx="87.314" ry="19.8628" style="stroke:#A80036;stroke-width:1.5;"/><text fill="#000000" font-family="sans-serif" font-size="14" lengthAdjust="spacing" textLength="133" x="276.814" y="1087.6158">edit schedule (FR11)</text><ellipse cx="346.6713" cy="1318.0343" fill="#FEFECE" filter="url(#fha3jfvawahyq)" rx="93.1713" ry="21.0343" style="stroke:#A80036;stroke-width:1.5;"/><text fill="#000000" font-family="sans-serif" font-size="14" lengthAdjust="spacing" textLength="147" x="270.1713" y="1321.7872">pay attendance (FR12)</text><ellipse cx="346.5485" cy="935.2097" fill="#FEFECE" filter="url(#fha3jfvawahyq)" rx="84.0485" ry="19.2097" style="stroke:#A80036;stroke-width:1.5;"/><text fill="#000000" font-family="sans-serif" font-size="14" lengthAdjust="spacing" textLength="125" x="281.0485" y="938.9627">visit CMS web page</text><ellipse cx="346.687" cy="1397.1374" fill="#FEFECE" filter="url(#fha3jfvawahyq)" rx="103.687" ry="23.1374" style="stroke:#A80036;stroke-width:1.5;"/><text fill="#000000" font-family="sans-serif" font-size="14" lengthAdjust="spacing" textLength="171" x="260.6541" y="1399.9756">view assigned review tasks</text><ellipse cx="346.3036" cy="1475.8607" fill="#FEFECE" filter="url(#fha3jfvawahyq)" rx="89.8036" ry="20.3607" style="stroke:#A80036;stroke-width:1.5;"/><text fill="#000000" font-family="sans-serif" font-size="14" lengthAdjust="spacing" textLength="139" x="273.8036" y="1479.6137">manage referee tasks</text><ellipse cx="346.6084" cy="315.9217" fill="#FEFECE" filter="url(#fha3jfvawahyq)" rx="100.1084" ry="22.4217" style="stroke:#A80036;stroke-width:1.5;"/><text fill="#000000" font-family="sans-serif" font-size="14" lengthAdjust="spacing" textLength="163" x="263.7532" y="319.0923">accept invitation to review</text><ellipse cx="346.6398" cy="389.828" fill="#FEFECE" filter="url(#fha3jfvawahyq)" rx="69.6398" ry="16.328" style="stroke:#A80036;stroke-width:1.5;"/><text fill="#000000" font-family="sans-serif" font-size="14" lengthAdjust="spacing" textLength="87" x="300.1398" y="393.5809">send to editor</text><ellipse cx="346.4077" cy="550.1815" fill="#FEFECE" filter="url(#fha3jfvawahyq)" rx="71.4077" ry="16.6815" style="stroke:#A80036;stroke-width:1.5;"/><text fill="#000000" font-family="sans-serif" font-size="14" lengthAdjust="spacing" textLength="92" x="297.4077" y="553.9345">send to author</text><ellipse cx="346.7357" cy="693.0471" fill="#FEFECE" filter="url(#fha3jfvawahyq)" rx="95.7357" ry="21.5471" style="stroke:#A80036;stroke-width:1.5;"/><text fill="#000000" font-family="sans-serif" font-size="14" lengthAdjust="spacing" textLength="153" x="267.7642" y="696.6241">send schedule to author</text><ellipse cx="346.4571" cy="861.9914" fill="#FEFECE" filter="url(#fha3jfvawahyq)" rx="80.4571" ry="18.4914" style="stroke:#A80036;stroke-width:1.5;"/><text fill="#000000" font-family="sans-serif" font-size="14" lengthAdjust="spacing" textLength="116" x="285.4571" y="865.7444">send ticket to user</text><!--MD5=[af7dc270c177ac064d9ce5d19439ad48]
entity nu--><ellipse cx="70.5" cy="1130.5" fill="#FEFECE" filter="url(#fha3jfvawahyq)" rx="8" ry="8" style="stroke:#A80036;stroke-width:1.5;"/><path d="M70.5,1138.5 L70.5,1165.5 M57.5,1146.5 L83.5,1146.5 M70.5,1165.5 L57.5,1180.5 M70.5,1165.5 L83.5,1180.5 " fill="none" filter="url(#fha3jfvawahyq)" style="stroke:#A80036;stroke-width:1.5;"/><text fill="#000000" font-family="sans-serif" font-size="14" lengthAdjust="spacing" textLength="58" x="41.5" y="1199.0059">new user</text><!--MD5=[e29493a8775effcafa538aa0485107d1]
entity auth--><ellipse cx="70.5" cy="354.5" fill="#FEFECE" filter="url(#fha3jfvawahyq)" rx="8" ry="8" style="stroke:#A80036;stroke-width:1.5;"/><path d="M70.5,362.5 L70.5,389.5 M57.5,370.5 L83.5,370.5 M70.5,389.5 L57.5,404.5 M70.5,389.5 L83.5,404.5 " fill="none" filter="url(#fha3jfvawahyq)" style="stroke:#A80036;stroke-width:1.5;"/><text fill="#000000" font-family="sans-serif" font-size="14" lengthAdjust="spacing" textLength="99" x="21" y="423.0059">authorized user</text><!--MD5=[a2a1127a9e0c3d5a4af797120761d109]
entity ad--><ellipse cx="70.5" cy="849.5" fill="#FEFECE" filter="url(#fha3jfvawahyq)" rx="8" ry="8" style="stroke:#A80036;stroke-width:1.5;"/><path d="M70.5,857.5 L70.5,884.5 M57.5,865.5 L83.5,865.5 M70.5,884.5 L57.5,899.5 M70.5,884.5 L83.5,899.5 " fill="none" filter="url(#fha3jfvawahyq)" style="stroke:#A80036;stroke-width:1.5;"/><text fill="#000000" font-family="sans-serif" font-size="14" lengthAdjust="spacing" textLength="83" x="29" y="918.0059">administrator</text><!--MD5=[9ecb3888956f26bb589e19d843f9ffbb]
entity ed--><ellipse cx="70.5" cy="969.5" fill="#FEFECE" filter="url(#fha3jfvawahyq)" rx="8" ry="8" style="stroke:#A80036;stroke-width:1.5;"/><path d="M70.5,977.5 L70.5,1004.5 M57.5,985.5 L83.5,985.5 M70.5,1004.5 L57.5,1019.5 M70.5,1004.5 L83.5,1019.5 " fill="none" filter="url(#fha3jfvawahyq)" style="stroke:#A80036;stroke-width:1.5;"/><text fill="#000000" font-family="sans-serif" font-size="14" lengthAdjust="spacing" textLength="36" x="52.5" y="1038.0059">editor</text><!--MD5=[6a66ad4cd3e5cd24129b6fd8af5c5a1e]
entity ref--><ellipse cx="70.5" cy="471.5" fill="#FEFECE" filter="url(#fha3jfvawahyq)" rx="8" ry="8" style="stroke:#A80036;stroke-width:1.5;"/><path d="M70.5,479.5 L70.5,506.5 M57.5,487.5 L83.5,487.5 M70.5,506.5 L57.5,521.5 M70.5,506.5 L83.5,521.5 " fill="none" filter="url(#fha3jfvawahyq)" style="stroke:#A80036;stroke-width:1.5;"/><text fill="#000000" font-family="sans-serif" font-size="14" lengthAdjust="spacing" textLength="46" x="47.5" y="540.0059">referee</text><!--MD5=[e1532afab819f384a6963ac657a68e1b]
entity au--><ellipse cx="70.5" cy="1286.5" fill="#FEFECE" filter="url(#fha3jfvawahyq)" rx="8" ry="8" style="stroke:#A80036;stroke-width:1.5;"/><path d="M70.5,1294.5 L70.5,1321.5 M57.5,1302.5 L83.5,1302.5 M70.5,1321.5 L57.5,1336.5 M70.5,1321.5 L83.5,1336.5 " fill="none" filter="url(#fha3jfvawahyq)" style="stroke:#A80036;stroke-width:1.5;"/><text fill="#000000" font-family="sans-serif" font-size="14" lengthAdjust="spacing" textLength="41" x="50" y="1355.0059">author</text><!--MD5=[ef2f3d6815c792d082a7c132eb1ade2f]
entity sys--><ellipse cx="547.5" cy="793.5" fill="#FEFECE" filter="url(#fha3jfvawahyq)" rx="8" ry="8" style="stroke:#A80036;stroke-width:1.5;"/><path d="M547.5,801.5 L547.5,828.5 M534.5,809.5 L560.5,809.5 M547.5,828.5 L534.5,843.5 M547.5,828.5 L560.5,843.5 " fill="none" filter="url(#fha3jfvawahyq)" style="stroke:#A80036;stroke-width:1.5;"/><text fill="#000000" font-family="sans-serif" font-size="14" lengthAdjust="spacing" textLength="45" x="525" y="862.0059">system</text><!--MD5=[2d3c5e0b954a749fced3fb92086cf371]
entity author--><ellipse cx="70.5" cy="588.5" fill="#FEFECE" filter="url(#fha3jfvawahyq)" rx="8" ry="8" style="stroke:#A80036;stroke-width:1.5;"/><path d="M70.5,596.5 L70.5,623.5 M57.5,604.5 L83.5,604.5 M70.5,623.5 L57.5,638.5 M70.5,623.5 L83.5,638.5 " fill="none" filter="url(#fha3jfvawahyq)" style="stroke:#A80036;stroke-width:1.5;"/><text fill="#000000" font-family="sans-serif" font-size="14" lengthAdjust="spacing" textLength="41" x="50" y="657.0059">author</text><!--MD5=[68ce7f9e5d6db1da1ccd8e8853009585]
entity gu--><ellipse cx="70.5" cy="732.5" fill="#FEFECE" filter="url(#fha3jfvawahyq)" rx="8" ry="8" style="stroke:#A80036;stroke-width:1.5;"/><path d="M70.5,740.5 L70.5,767.5 M57.5,748.5 L83.5,748.5 M70.5,767.5 L57.5,782.5 M70.5,767.5 L83.5,782.5 " fill="none" filter="url(#fha3jfvawahyq)" style="stroke:#A80036;stroke-width:1.5;"/><text fill="#000000" font-family="sans-serif" font-size="14" lengthAdjust="spacing" textLength="67" x="37" y="801.0059">guest user</text><!--MD5=[a256ddcc105a8992fc8a35595ccffa22]
reverse link auth to ad--><path d="M22.09,442.67 C12.85,453.48 6,461.5 6,461.5 C6,461.5 6,804.5 6,804.5 C6,804.5 20.41,821.59 35.61,839.62 " fill="none" id="auth-backto-ad" style="stroke:#A80036;stroke-width:1.0;"/><polygon fill="none" points="16.92,437.94,35.23,427.28,27.56,447.04,16.92,437.94" style="stroke:#A80036;stroke-width:1.0;"/><!--MD5=[dd9cd6f9f69522a481ccf80374ddacc8]
reverse link auth to ed--><path d="M22.09,442.67 C12.85,453.48 6,461.5 6,461.5 C6,461.5 6,921.5 6,921.5 C6,921.5 33.12,954.93 52.19,978.43 " fill="none" id="auth-backto-ed" style="stroke:#A80036;stroke-width:1.0;"/><polygon fill="none" points="16.92,437.94,35.23,427.28,27.56,447.04,16.92,437.94" style="stroke:#A80036;stroke-width:1.0;"/><!--MD5=[d60ac93ac15ff8d1dcf0cf91dba360b7]
reverse link auth to ref--><path d="M70.5,447.62 C70.5,453.52 70.5,459.02 70.5,461.9 " fill="none" id="auth-backto-ref" style="stroke:#A80036;stroke-width:1.0;"/><polygon fill="none" points="63.5,447.3,70.5,427.3,77.5,447.3,63.5,447.3" style="stroke:#A80036;stroke-width:1.0;"/><!--MD5=[c9a0103ef95b473936a9ae62889f6509]
reverse link auth to author--><path d="M22.09,442.67 C12.85,453.48 6,461.5 6,461.5 C6,461.5 6,543.5 6,543.5 C6,543.5 30.88,573.01 49.74,595.37 " fill="none" id="auth-backto-author" style="stroke:#A80036;stroke-width:1.0;"/><polygon fill="none" points="16.92,437.94,35.23,427.28,27.56,447.04,16.92,437.94" style="stroke:#A80036;stroke-width:1.0;"/><!--MD5=[9cd02b5a55e0b5d8ccc4c7a5e4cfef40]
link nu to rr--><path d="M99.54,1162 C133.84,1162 193.79,1162 245.91,1162 " fill="none" id="nu-rr" style="stroke:#A80036;stroke-width:1.0;"/><!--MD5=[1b370f963102bb73f6cda744c4daf23a]
link rr to sys--><path d="M407.85,1144.14 C445.17,1133.09 486,1121 486,1121 C486,1121 521.46,947.49 538.09,866.16 " fill="none" id="rr-sys" style="stroke:#A80036;stroke-width:1.0;"/><!--MD5=[c3c3d5c6e7bbd2ee87e44856ec0403f9]
link auth to login--><path d="M91.64,344.98 C129.61,267.65 208,108 208,108 C208,108 269.35,85.69 310.09,70.88 " fill="none" id="auth-login" style="stroke:#A80036;stroke-width:1.0;"/><!--MD5=[c601586daf1ff9f0392dda66ee07f89b]
link cp to login--><path d="M346.5,125.46 C346.5,111.38 346.5,93.08 346.5,79.09 " fill="none" id="cp-to-login" style="stroke:#A80036;stroke-width:1.0;stroke-dasharray:7.0,7.0;"/><polygon fill="#A80036" points="346.5,73.77,342.5,82.77,346.5,78.77,350.5,82.77,346.5,73.77" style="stroke:#A80036;stroke-width:1.0;"/><text fill="#000000" font-family="sans-serif" font-size="13" lengthAdjust="spacing" textLength="46" x="312" y="104.077">extends</text><!--MD5=[376cd954ca9f45aee80387c87319fa6b]
link cp to sys--><path d="M407.04,163.77 C444.58,174.34 486,186 486,186 C486,186 529.17,641.97 542.58,783.57 " fill="none" id="cp-sys" style="stroke:#A80036;stroke-width:2.0;"/><!--MD5=[7c522c50f5703b0b72d911a2a6ad4ec9]
link au to submit--><path d="M91.06,1346.08 C128.8,1400.28 208,1514 208,1514 C208,1514 247.67,1525.54 284.39,1536.22 " fill="none" id="au-submit" style="stroke:#A80036;stroke-width:1.0;"/><!--MD5=[04cca3c1c9a7b33f206844e3e1ccd8bd]
link au to ss--><path d="M91.31,1311.44 C114.56,1303.74 150,1292 150,1292 C150,1292 227.57,1271.77 284.98,1256.79 " fill="none" id="au-ss" style="stroke:#A80036;stroke-width:1.0;"/><!--MD5=[2cc3f695fe8118def67c41fcb1b7957a]
link ss to sys--><path d="M405.43,1224.69 C443.39,1214 486,1202 486,1202 C486,1202 524.23,963.77 539.91,866.06 " fill="none" id="ss-sys" style="stroke:#A80036;stroke-width:1.0;"/><!--MD5=[66b5fe09ca82934201e6c23be87a67ca]
link ed to ar--><path d="M88.74,978.97 C102.68,961.15 120,939 120,939 C120,939 150,696 150,696 C150,696 208,654 208,654 C208,654 256.79,641.58 296.25,631.54 " fill="none" id="ed-ar" style="stroke:#A80036;stroke-width:1.0;"/><!--MD5=[32c80b6c17c1087d73075ee2d42f3959]
link ad to ar--><path d="M105.45,839.7 C113.6,829.79 120,822 120,822 C120,822 150,648 150,648 C150,648 226.85,636.6 284.18,628.1 " fill="none" id="ad-ar" style="stroke:#A80036;stroke-width:1.0;"/><!--MD5=[82446069b66b49e11c44f2ad58bfbe03]
link ref to air--><path d="M93.73,479.05 C132.41,437.4 208,356 208,356 C208,356 247.67,344.46 284.39,333.78 " fill="none" id="ref-air" style="stroke:#A80036;stroke-width:1.0;"/><!--MD5=[e26ca232e6e6054d2e31764e13f5dd5a]
link air to sr--><path d="M346.5,293.49 C346.5,279.51 346.5,261.54 346.5,247.25 " fill="none" id="air-to-sr" style="stroke:#A80036;stroke-width:1.0;stroke-dasharray:7.0,7.0;"/><polygon fill="#A80036" points="346.5,242.16,342.5,251.16,346.5,247.16,350.5,251.16,346.5,242.16" style="stroke:#A80036;stroke-width:1.0;"/><text fill="#000000" font-family="sans-serif" font-size="13" lengthAdjust="spacing" textLength="48" x="311" y="272.327">includes</text><!--MD5=[a288c1c7b3bf4ccac5be4de3e6ef37d0]
link sr to sys--><path d="M389.81,239.19 C430.54,254.78 486,276 486,276 C486,276 527.88,656.06 541.95,783.74 " fill="none" id="sr-sys" style="stroke:#A80036;stroke-width:1.0;"/><!--MD5=[ae84fb110eb86438eeb1beebacaff9b4]
link ref to ep--><path d="M93.92,500.95 C130.67,497.6 205.47,490.78 264.01,485.44 " fill="none" id="ref-ep" style="stroke:#A80036;stroke-width:1.0;"/><!--MD5=[a4209a35e848f03579b3a9c49b14e9be]
link ep to ste--><path d="M346.5,457.59 C346.5,443.96 346.5,426.05 346.5,412.09 " fill="none" id="ep-to-ste" style="stroke:#A80036;stroke-width:1.0;stroke-dasharray:7.0,7.0;"/><polygon fill="#A80036" points="346.5,406.76,342.5,415.76,346.5,411.76,350.5,415.76,346.5,406.76" style="stroke:#A80036;stroke-width:1.0;"/><text fill="#000000" font-family="sans-serif" font-size="13" lengthAdjust="spacing" textLength="48" x="311" y="436.827">includes</text><!--MD5=[5f3dd7fe5fd37f26266c057596f65a29]
link ste to sys--><path d="M385.71,403.8 C426.71,418.59 486,440 486,440 C486,440 524.42,684.48 540.03,783.8 " fill="none" id="ste-sys" style="stroke:#A80036;stroke-width:1.0;"/><!--MD5=[d56fa1dbd9ab95bef9d109985b20be70]
link ed to md--><path d="M88.64,1001.5 C122.32,1002.48 199.17,1004.73 260.08,1006.51 " fill="none" id="ed-md" style="stroke:#A80036;stroke-width:1.0;"/><!--MD5=[6b5b5e6a7432f6c9a598b8e7f6dd6e61]
link ad to md--><path d="M112.08,907.76 C152.32,934.29 208,971 208,971 C208,971 251.81,983.11 289.97,993.65 " fill="none" id="ad-md" style="stroke:#A80036;stroke-width:1.0;"/><!--MD5=[6c4933bff4f100607f6aa6b2403d4bd0]
link md to sta--><path d="M290.57,993.65 C252.13,983.11 208,971 208,971 C208,971 178,715.5 178,715.5 C178,715.5 178,698.5 178,698.5 C178,698.5 208,584 208,584 C208,584 253.31,572.88 292.1,563.35 " fill="none" id="md-to-sta" style="stroke:#A80036;stroke-width:1.0;stroke-dasharray:7.0,7.0;"/><polygon fill="#A80036" points="297.28,562.08,287.5869,560.3351,292.4234,563.2691,289.4895,568.1056,297.28,562.08" style="stroke:#A80036;stroke-width:1.0;"/><text fill="#000000" font-family="sans-serif" font-size="13" lengthAdjust="spacing" textLength="48" x="151" y="711.577">includes</text><!--MD5=[54a3a53118662e446ee90302056b2c34]
link sta to sys--><path d="M396.33,561.99 C436.2,571.78 486,584 486,584 C486,584 518.89,715.01 536.17,783.84 " fill="none" id="sta-sys" style="stroke:#A80036;stroke-width:1.0;"/><!--MD5=[77e033e8e6ab9a8c104dd0ec3e07d58e]
link ms to sys--><path d="M417.94,800.45 C455.51,807.62 499.13,815.96 524.69,820.83 " fill="none" id="ms-sys" style="stroke:#A80036;stroke-width:1.0;"/><!--MD5=[7b7546f5278d7d18d14509398c368d53]
link ms to ssta--><path d="M346.5,765.67 C346.5,752.07 346.5,734.32 346.5,719.77 " fill="none" id="ms-to-ssta" style="stroke:#A80036;stroke-width:1.0;stroke-dasharray:7.0,7.0;"/><polygon fill="#A80036" points="346.5,714.57,342.5,723.57,346.5,719.57,350.5,723.57,346.5,714.57" style="stroke:#A80036;stroke-width:1.0;"/><text fill="#000000" font-family="sans-serif" font-size="13" lengthAdjust="spacing" textLength="48" x="311" y="744.827">includes</text><!--MD5=[78501573e44f418a60b2c25c1533931c]
link ed to es--><path d="M88.51,1006.61 C125.1,1018.67 208,1046 208,1046 C208,1046 251.81,1058.11 289.97,1068.65 " fill="none" id="ed-es" style="stroke:#A80036;stroke-width:1.0;"/><!--MD5=[4a69ace38ddd0a9c45f3bd473bf1b720]
link es to sys--><path d="M403.43,1068.65 C441.87,1058.11 486,1046 486,1046 C486,1046 517.77,929.96 535.26,866.05 " fill="none" id="es-sys" style="stroke:#A80036;stroke-width:1.0;"/><!--MD5=[710457793a030514ff1bac6e83980af9]
link au to pay--><path d="M91.21,1318 C124.77,1318 195.03,1318 253.22,1318 " fill="none" id="au-pay" style="stroke:#A80036;stroke-width:1.0;"/><!--MD5=[4304d6d2886fc74a1eb7f93c4377861c]
link pay to sys--><path d="M405.43,1301.69 C443.39,1291 486,1279 486,1279 C486,1279 526.13,977.85 541.02,866.09 " fill="none" id="pay-sys" style="stroke:#A80036;stroke-width:1.0;"/><!--MD5=[d37cb303be860a3cb93a367a69e18f45]
link sys to st--><path d="M524.64,829.06 C497.17,834.17 448.88,843.15 409.65,850.45 " fill="none" id="sys-st" style="stroke:#A80036;stroke-width:1.0;"/><!--MD5=[400e9f8efd36f926129361d0642ab737]
link auth to v--><path d="M105.97,427.22 C113.87,436.67 120,444 120,444 C120,444 200,690 200,690 C200,690 208,898 208,898 C208,898 253.03,910.12 291.55,920.48 " fill="none" id="auth-v" style="stroke:#A80036;stroke-width:1.0;"/><!--MD5=[ffc484ed6bb2d475aa4802ae0d9ef423]
link gu to v--><path d="M104.2,796.1 C144.58,835.74 208,898 208,898 C208,898 253.03,910.12 291.55,920.48 " fill="none" id="gu-v" style="stroke:#A80036;stroke-width:1.0;"/><!--MD5=[86be5b1d444be01d26464633e1302e66]
@startuml
left to right direction
skinparam linetype  polyline
actor "new user" as nu
actor "authorized user" as auth
actor administrator as ad
actor editor as ed
actor referee as ref
actor author as au
actor system as sys


ad -left-|> auth
ed -left-|> auth
ref -left-|> auth
author -left-|> auth

actor "guest user" as gu
rectangle "Content Management System (CMS)" {
  usecase "request registration (FR1)" as rr
  usecase "login (FR2)" as login
  usecase "change password (FR3)" as cp
  usecase "request submission (FR4)" as submit
  usecase "save submission (FR5)" as ss
  usecase "assign referees (FR6)" as ar
  usecase "save referee (FR7)" as sr
  usecase "evaluate paper (FR8)" as ep
  usecase "make decision (FR9)" as md
  usecase "make schedule (FR10)" as ms
  usecase "edit schedule (FR11)" as es
  usecase "pay attendance (FR12)" as pay


  usecase "visit CMS web page" as v
  usecase "view assigned review tasks" as vart
  usecase "manage referee tasks" as manage
  usecase "assign referees" as ar
  usecase "accept invitation to review" as air
  usecase "send to editor" as ste
  usecase "send to author" as sta
  usecase "send schedule to author" as ssta
  usecase "send ticket to user" as st
}


'1'
nu - - rr
rr - - sys

'2'
auth - - login

'3'
cp .> login : extends
cp -= sys

'4'
au - - submit

'5'
au - - ss
ss - - sys

'6'
ed - - ar
ad - - ar

'7'
ref - - air
air .> sr : includes
sr - - sys

'8'
ref - - ep
ep .> ste : includes
ste - - sys

'9'
ed - - md
ad - - md
md .> sta : includes
sta - - sys


'10'
ms - - sys
ms .> ssta : includes

'11'
ed - - es
es - - sys

'12'
au - - pay
pay - - sys
sys - - st


auth - - v
gu - - v

@enduml

@startuml
left to right direction
skinparam linetype  polyline
actor "new user" as nu
actor "authorized user" as auth
actor administrator as ad
actor editor as ed
actor referee as ref
actor author as au
actor system as sys


ad -left-|> auth
ed -left-|> auth
ref -left-|> auth
author -left-|> auth

actor "guest user" as gu
rectangle "Content Management System (CMS)" {
  usecase "request registration (FR1)" as rr
  usecase "login (FR2)" as login
  usecase "change password (FR3)" as cp
  usecase "request submission (FR4)" as submit
  usecase "save submission (FR5)" as ss
  usecase "assign referees (FR6)" as ar
  usecase "save referee (FR7)" as sr
  usecase "evaluate paper (FR8)" as ep
  usecase "make decision (FR9)" as md
  usecase "make schedule (FR10)" as ms
  usecase "edit schedule (FR11)" as es
  usecase "pay attendance (FR12)" as pay


  usecase "visit CMS web page" as v
  usecase "view assigned review tasks" as vart
  usecase "manage referee tasks" as manage
  usecase "assign referees" as ar
  usecase "accept invitation to review" as air
  usecase "send to editor" as ste
  usecase "send to author" as sta
  usecase "send schedule to author" as ssta
  usecase "send ticket to user" as st
}


nu - - rr
rr - - sys

auth - - login

cp .> login : extends
cp -= sys

au - - submit

au - - ss
ss - - sys

ed - - ar
ad - - ar

ref - - air
air .> sr : includes
sr - - sys

ref - - ep
ep .> ste : includes
ste - - sys

ed - - md
ad - - md
md .> sta : includes
sta - - sys


ms - - sys
ms .> ssta : includes

ed - - es
es - - sys

au - - pay
pay - - sys
sys - - st


auth - - v
gu - - v

@enduml

PlantUML version 1.2021.00(Sun Jan 10 03:25:05 MST 2021)
(GPL source distribution)
Java Runtime: OpenJDK Runtime Environment
JVM: OpenJDK 64-Bit Server VM
Default Encoding: UTF-8
Language: en
Country: CA
--></g></svg>