<?xml version="1.0" encoding="UTF-8" standalone="no"?><svg xmlns="http://www.w3.org/2000/svg" xmlns:xlink="http://www.w3.org/1999/xlink" contentScriptType="application/ecmascript" contentStyleType="text/css" height="1605px" preserveAspectRatio="none" style="width:592px;height:1605px;" version="1.1" viewBox="0 0 592 1605" width="592px" zoomAndPan="magnify"><defs><filter height="300%" id="f1qi2oylqms3xh" width="300%" x="-1" y="-1"><feGaussianBlur result="blurOut" stdDeviation="2.0"/><feColorMatrix in="blurOut" result="blurOut2" type="matrix" values="0 0 0 0 0 0 0 0 0 0 0 0 0 0 0 0 0 0 .4 0"/><feOffset dx="4.0" dy="4.0" in="blurOut2" result="blurOut3"/><feBlend in="SourceGraphic" in2="blurOut3" mode="normal"/></filter></defs><g><!--MD5=[dce152449a59020d305e264c9b8346f3]
cluster Content Management System (CMS)--><rect fill="#FFFFFF" filter="url(#f1qi2oylqms3xh)" height="1586" style="stroke:#000000;stroke-width:1.5;" width="262" x="231.31" y="7"/><text fill="#000000" font-family="sans-serif" font-size="14" font-weight="bold" lengthAdjust="spacing" textLength="246" x="239.31" y="22.0059">Content Management System (CMS)</text><ellipse cx="361.862" cy="1554.0104" fill="#FEFECE" filter="url(#f1qi2oylqms3xh)" rx="100.552" ry="22.5104" style="stroke:#A80036;stroke-width:1.5;"/><text fill="#000000" font-family="sans-serif" font-size="14" lengthAdjust="spacing" textLength="164" x="278.6129" y="1557.1398">request registration (FR1)</text><ellipse cx="361.6947" cy="221.8236" fill="#FEFECE" filter="url(#f1qi2oylqms3xh)" rx="63.8847" ry="15.3236" style="stroke:#A80036;stroke-width:1.5;"/><text fill="#000000" font-family="sans-serif" font-size="14" lengthAdjust="spacing" textLength="71" x="323.1947" y="225.5766">login (FR2)</text><ellipse cx="362.0457" cy="133.0471" fill="#FEFECE" filter="url(#f1qi2oylqms3xh)" rx="95.7357" ry="21.5471" style="stroke:#A80036;stroke-width:1.5;"/><text fill="#000000" font-family="sans-serif" font-size="14" lengthAdjust="spacing" textLength="153" x="283.0742" y="136.6241">change password (FR3)</text><ellipse cx="361.862" cy="1243.0104" fill="#FEFECE" filter="url(#f1qi2oylqms3xh)" rx="100.552" ry="22.5104" style="stroke:#A80036;stroke-width:1.5;"/><text fill="#000000" font-family="sans-serif" font-size="14" lengthAdjust="spacing" textLength="164" x="278.6129" y="1246.1398">request submission (FR4)</text><ellipse cx="362.0575" cy="531.9495" fill="#FEFECE" filter="url(#f1qi2oylqms3xh)" rx="92.7475" ry="20.9495" style="stroke:#A80036;stroke-width:1.5;"/><text fill="#000000" font-family="sans-serif" font-size="14" lengthAdjust="spacing" textLength="146" x="286.0575" y="535.7025">save submission (FR5)</text><ellipse cx="361.8976" cy="59.1175" fill="#FEFECE" filter="url(#f1qi2oylqms3xh)" rx="73.5876" ry="17.1175" style="stroke:#A80036;stroke-width:1.5;"/><text fill="#000000" font-family="sans-serif" font-size="14" lengthAdjust="spacing" textLength="98" x="309.8976" y="62.8705">assign referees</text><ellipse cx="361.7509" cy="291.8882" fill="#FEFECE" filter="url(#f1qi2oylqms3xh)" rx="82.4409" ry="18.8882" style="stroke:#A80036;stroke-width:1.5;"/><text fill="#000000" font-family="sans-serif" font-size="14" lengthAdjust="spacing" textLength="121" x="298.2509" y="295.6412">save referee (FR7)</text><ellipse cx="361.8647" cy="1088.1109" fill="#FEFECE" filter="url(#f1qi2oylqms3xh)" rx="88.5547" ry="20.1109" style="stroke:#A80036;stroke-width:1.5;"/><text fill="#000000" font-family="sans-serif" font-size="14" lengthAdjust="spacing" textLength="136" x="290.8647" y="1091.8639">evaluate paper (FR8)</text><ellipse cx="361.7124" cy="692.7805" fill="#FEFECE" filter="url(#f1qi2oylqms3xh)" rx="86.9024" ry="19.7805" style="stroke:#A80036;stroke-width:1.5;"/><text fill="#000000" font-family="sans-serif" font-size="14" lengthAdjust="spacing" textLength="132" x="292.7124" y="696.5334">make decision (FR9)</text><ellipse cx="361.6345" cy="863.8649" fill="#FEFECE" filter="url(#f1qi2oylqms3xh)" rx="92.3245" ry="20.8649" style="stroke:#A80036;stroke-width:1.5;"/><text fill="#000000" font-family="sans-serif" font-size="14" lengthAdjust="spacing" textLength="145" x="286.1345" y="867.6179">make schedule (FR10)</text><ellipse cx="361.624" cy="1012.8628" fill="#FEFECE" filter="url(#f1qi2oylqms3xh)" rx="87.314" ry="19.8628" style="stroke:#A80036;stroke-width:1.5;"/><text fill="#000000" font-family="sans-serif" font-size="14" lengthAdjust="spacing" textLength="133" x="292.124" y="1016.6158">edit schedule (FR11)</text><ellipse cx="361.9813" cy="1164.0343" fill="#FEFECE" filter="url(#f1qi2oylqms3xh)" rx="93.1713" ry="21.0343" style="stroke:#A80036;stroke-width:1.5;"/><text fill="#000000" font-family="sans-serif" font-size="14" lengthAdjust="spacing" textLength="147" x="285.4813" y="1167.7872">pay attendance (FR12)</text><ellipse cx="361.8585" cy="1320.2097" fill="#FEFECE" filter="url(#f1qi2oylqms3xh)" rx="84.0485" ry="19.2097" style="stroke:#A80036;stroke-width:1.5;"/><text fill="#000000" font-family="sans-serif" font-size="14" lengthAdjust="spacing" textLength="125" x="296.3585" y="1323.9627">visit CMS web page</text><ellipse cx="361.997" cy="1397.1374" fill="#FEFECE" filter="url(#f1qi2oylqms3xh)" rx="103.687" ry="23.1374" style="stroke:#A80036;stroke-width:1.5;"/><text fill="#000000" font-family="sans-serif" font-size="14" lengthAdjust="spacing" textLength="171" x="275.9641" y="1399.9756">view assigned review tasks</text><ellipse cx="361.6136" cy="1475.8607" fill="#FEFECE" filter="url(#f1qi2oylqms3xh)" rx="89.8036" ry="20.3607" style="stroke:#A80036;stroke-width:1.5;"/><text fill="#000000" font-family="sans-serif" font-size="14" lengthAdjust="spacing" textLength="139" x="289.1136" y="1479.6137">manage referee tasks</text><ellipse cx="361.9184" cy="384.9217" fill="#FEFECE" filter="url(#f1qi2oylqms3xh)" rx="100.1084" ry="22.4217" style="stroke:#A80036;stroke-width:1.5;"/><text fill="#000000" font-family="sans-serif" font-size="14" lengthAdjust="spacing" textLength="163" x="279.0632" y="388.0923">accept invitation to review</text><ellipse cx="361.9498" cy="458.828" fill="#FEFECE" filter="url(#f1qi2oylqms3xh)" rx="69.6398" ry="16.328" style="stroke:#A80036;stroke-width:1.5;"/><text fill="#000000" font-family="sans-serif" font-size="14" lengthAdjust="spacing" textLength="87" x="315.4498" y="462.5809">send to editor</text><ellipse cx="361.7177" cy="605.1815" fill="#FEFECE" filter="url(#f1qi2oylqms3xh)" rx="71.4077" ry="16.6815" style="stroke:#A80036;stroke-width:1.5;"/><text fill="#000000" font-family="sans-serif" font-size="14" lengthAdjust="spacing" textLength="92" x="312.7177" y="608.9345">send to author</text><ellipse cx="362.0457" cy="770.0471" fill="#FEFECE" filter="url(#f1qi2oylqms3xh)" rx="95.7357" ry="21.5471" style="stroke:#A80036;stroke-width:1.5;"/><text fill="#000000" font-family="sans-serif" font-size="14" lengthAdjust="spacing" textLength="153" x="283.0742" y="773.6241">send schedule to author</text><ellipse cx="361.7671" cy="938.9914" fill="#FEFECE" filter="url(#f1qi2oylqms3xh)" rx="80.4571" ry="18.4914" style="stroke:#A80036;stroke-width:1.5;"/><text fill="#000000" font-family="sans-serif" font-size="14" lengthAdjust="spacing" textLength="116" x="300.7671" y="942.7444">send ticket to user</text><!--MD5=[af7dc270c177ac064d9ce5d19439ad48]
entity nu--><ellipse cx="85.81" cy="1522.5" fill="#FEFECE" filter="url(#f1qi2oylqms3xh)" rx="8" ry="8" style="stroke:#A80036;stroke-width:1.5;"/><path d="M85.81,1530.5 L85.81,1557.5 M72.81,1538.5 L98.81,1538.5 M85.81,1557.5 L72.81,1572.5 M85.81,1557.5 L98.81,1572.5 " fill="none" filter="url(#f1qi2oylqms3xh)" style="stroke:#A80036;stroke-width:1.5;"/><text fill="#000000" font-family="sans-serif" font-size="14" lengthAdjust="spacing" textLength="58" x="56.81" y="1591.0059">new user</text><!--MD5=[e29493a8775effcafa538aa0485107d1]
entity auth--><ellipse cx="85.81" cy="705.5" fill="#FEFECE" filter="url(#f1qi2oylqms3xh)" rx="8" ry="8" style="stroke:#A80036;stroke-width:1.5;"/><path d="M85.81,713.5 L85.81,740.5 M72.81,721.5 L98.81,721.5 M85.81,740.5 L72.81,755.5 M85.81,740.5 L98.81,755.5 " fill="none" filter="url(#f1qi2oylqms3xh)" style="stroke:#A80036;stroke-width:1.5;"/><text fill="#000000" font-family="sans-serif" font-size="14" lengthAdjust="spacing" textLength="99" x="36.31" y="774.0059">authorized user</text><!--MD5=[a2a1127a9e0c3d5a4af797120761d109]
entity ad--><ellipse cx="85.81" cy="354.5" fill="#FEFECE" filter="url(#f1qi2oylqms3xh)" rx="8" ry="8" style="stroke:#A80036;stroke-width:1.5;"/><path d="M85.81,362.5 L85.81,389.5 M72.81,370.5 L98.81,370.5 M85.81,389.5 L72.81,404.5 M85.81,389.5 L98.81,404.5 " fill="none" filter="url(#f1qi2oylqms3xh)" style="stroke:#A80036;stroke-width:1.5;"/><text fill="#000000" font-family="sans-serif" font-size="14" lengthAdjust="spacing" textLength="83" x="44.31" y="423.0059">administrator</text><!--MD5=[9ecb3888956f26bb589e19d843f9ffbb]
entity ed--><ellipse cx="85.81" cy="471.5" fill="#FEFECE" filter="url(#f1qi2oylqms3xh)" rx="8" ry="8" style="stroke:#A80036;stroke-width:1.5;"/><path d="M85.81,479.5 L85.81,506.5 M72.81,487.5 L98.81,487.5 M85.81,506.5 L72.81,521.5 M85.81,506.5 L98.81,521.5 " fill="none" filter="url(#f1qi2oylqms3xh)" style="stroke:#A80036;stroke-width:1.5;"/><text fill="#000000" font-family="sans-serif" font-size="14" lengthAdjust="spacing" textLength="36" x="67.81" y="540.0059">editor</text><!--MD5=[6a66ad4cd3e5cd24129b6fd8af5c5a1e]
entity ref--><ellipse cx="85.81" cy="588.5" fill="#FEFECE" filter="url(#f1qi2oylqms3xh)" rx="8" ry="8" style="stroke:#A80036;stroke-width:1.5;"/><path d="M85.81,596.5 L85.81,623.5 M72.81,604.5 L98.81,604.5 M85.81,623.5 L72.81,638.5 M85.81,623.5 L98.81,638.5 " fill="none" filter="url(#f1qi2oylqms3xh)" style="stroke:#A80036;stroke-width:1.5;"/><text fill="#000000" font-family="sans-serif" font-size="14" lengthAdjust="spacing" textLength="46" x="62.81" y="657.0059">referee</text><!--MD5=[e1532afab819f384a6963ac657a68e1b]
entity au--><ellipse cx="85.81" cy="1159.5" fill="#FEFECE" filter="url(#f1qi2oylqms3xh)" rx="8" ry="8" style="stroke:#A80036;stroke-width:1.5;"/><path d="M85.81,1167.5 L85.81,1194.5 M72.81,1175.5 L98.81,1175.5 M85.81,1194.5 L72.81,1209.5 M85.81,1194.5 L98.81,1209.5 " fill="none" filter="url(#f1qi2oylqms3xh)" style="stroke:#A80036;stroke-width:1.5;"/><text fill="#000000" font-family="sans-serif" font-size="14" lengthAdjust="spacing" textLength="41" x="65.31" y="1228.0059">author</text><!--MD5=[ef2f3d6815c792d082a7c132eb1ade2f]
entity sys--><ellipse cx="562.81" cy="832.5" fill="#FEFECE" filter="url(#f1qi2oylqms3xh)" rx="8" ry="8" style="stroke:#A80036;stroke-width:1.5;"/><path d="M562.81,840.5 L562.81,867.5 M549.81,848.5 L575.81,848.5 M562.81,867.5 L549.81,882.5 M562.81,867.5 L575.81,882.5 " fill="none" filter="url(#f1qi2oylqms3xh)" style="stroke:#A80036;stroke-width:1.5;"/><text fill="#000000" font-family="sans-serif" font-size="14" lengthAdjust="spacing" textLength="45" x="540.31" y="901.0059">system</text><!--MD5=[2d3c5e0b954a749fced3fb92086cf371]
entity author--><ellipse cx="85.81" cy="237.5" fill="#FEFECE" filter="url(#f1qi2oylqms3xh)" rx="8" ry="8" style="stroke:#A80036;stroke-width:1.5;"/><path d="M85.81,245.5 L85.81,272.5 M72.81,253.5 L98.81,253.5 M85.81,272.5 L72.81,287.5 M85.81,272.5 L98.81,287.5 " fill="none" filter="url(#f1qi2oylqms3xh)" style="stroke:#A80036;stroke-width:1.5;"/><text fill="#000000" font-family="sans-serif" font-size="14" lengthAdjust="spacing" textLength="41" x="65.31" y="306.0059">author</text><!--MD5=[68ce7f9e5d6db1da1ccd8e8853009585]
entity gu--><ellipse cx="85.81" cy="1288.5" fill="#FEFECE" filter="url(#f1qi2oylqms3xh)" rx="8" ry="8" style="stroke:#A80036;stroke-width:1.5;"/><path d="M85.81,1296.5 L85.81,1323.5 M72.81,1304.5 L98.81,1304.5 M85.81,1323.5 L72.81,1338.5 M85.81,1323.5 L98.81,1338.5 " fill="none" filter="url(#f1qi2oylqms3xh)" style="stroke:#A80036;stroke-width:1.5;"/><text fill="#000000" font-family="sans-serif" font-size="14" lengthAdjust="spacing" textLength="67" x="52.31" y="1357.0059">guest user</text><!--MD5=[58f5b29ba53296e3372294a83ddf7867]
link ad to auth--><path d="M44.04,424.45 C34.78,435.42 26.26,448.08 21.31,461.5 C6,502.99 6.14,618.96 21.31,660.5 C23.71,667.06 26.94,673.45 30.7,679.56 " fill="none" id="ad-to-auth" style="stroke:#A80036;stroke-width:1.0;"/><polygon fill="none" points="36.46,675.59,42.37,695.94,25.06,683.71,36.46,675.59" style="stroke:#A80036;stroke-width:1.0;"/><!--MD5=[169bb8a6ab8603ed7b15736f95e7faf0]
link ed to auth--><path d="M67.63,517.54 C51.97,531.33 30.5,553.59 21.31,578.5 C8.69,612.69 8.8,626.27 21.31,660.5 C23.71,667.06 26.94,673.45 30.7,679.56 " fill="none" id="ed-to-auth" style="stroke:#A80036;stroke-width:1.0;"/><polygon fill="none" points="36.46,675.59,42.37,695.94,25.06,683.71,36.46,675.59" style="stroke:#A80036;stroke-width:1.0;"/><!--MD5=[1269c2ee746285e52ecf76f0a589ef7d]
link ref to auth--><path d="M85.81,661.19 C85.81,666.07 85.81,670.95 85.81,675.82 " fill="none" id="ref-to-auth" style="stroke:#A80036;stroke-width:1.0;"/><polygon fill="none" points="92.81,675.87,85.81,695.87,78.81,675.87,92.81,675.87" style="stroke:#A80036;stroke-width:1.0;"/><!--MD5=[928d5d8ed6846d22cf49693efcd6700c]
link author to auth--><path d="M65.14,285.76 C49.78,299.65 30.02,320.89 21.31,344.5 C9.15,377.44 9.26,627.52 21.31,660.5 C23.71,667.06 26.94,673.45 30.7,679.56 " fill="none" id="author-to-auth" style="stroke:#A80036;stroke-width:1.0;"/><polygon fill="none" points="36.46,675.59,42.37,695.94,25.06,683.71,36.46,675.59" style="stroke:#A80036;stroke-width:1.0;"/><!--MD5=[9cd02b5a55e0b5d8ccc4c7a5e4cfef40]
link nu to rr--><path d="M114.84,1554 C149.15,1554 209.1,1554 261.22,1554 " fill="none" id="nu-rr" style="stroke:#A80036;stroke-width:1.0;"/><!--MD5=[1b370f963102bb73f6cda744c4daf23a]
link rr to sys--><path d="M453.24,1544.46 C471.6,1538.38 489.02,1528.85 501.31,1514 C540.14,1467.07 556.42,1040.5 560.64,905.07 " fill="none" id="rr-sys" style="stroke:#A80036;stroke-width:1.0;"/><!--MD5=[c3c3d5c6e7bbd2ee87e44856ec0403f9]
link auth to login--><path d="M124.85,695.9 C128.85,690.18 132.48,684.14 135.31,678 C167.09,609.13 150.23,584.33 165.31,510 C168.2,495.76 213.1,265.33 223.31,255 C242.72,235.36 271.63,226.6 297.93,222.96 " fill="none" id="auth-login" style="stroke:#A80036;stroke-width:1.0;"/><!--MD5=[c601586daf1ff9f0392dda66ee07f89b]
link cp to login--><path d="M361.81,154.66 C361.81,168.81 361.81,187.2 361.81,201.18 " fill="none" id="cp-to-login" style="stroke:#A80036;stroke-width:1.0;stroke-dasharray:7.0,7.0;"/><polygon fill="#A80036" points="361.81,206.5,365.81,197.5,361.81,201.5,357.81,197.5,361.81,206.5" style="stroke:#A80036;stroke-width:1.0;"/><text fill="#000000" font-family="sans-serif" font-size="13" lengthAdjust="spacing" textLength="46" x="327.31" y="185.077">extends</text><!--MD5=[376cd954ca9f45aee80387c87319fa6b]
link cp to sys--><path d="M436.49,146.59 C460.86,154.8 485.71,167.96 501.31,189 C539.11,239.98 556.17,684.46 560.6,822.97 " fill="none" id="cp-sys" style="stroke:#A80036;stroke-width:2.0;"/><!--MD5=[7c522c50f5703b0b72d911a2a6ad4ec9]
link au to submit--><path d="M106.51,1194.74 C143.2,1201.7 223.77,1216.99 284.45,1228.51 " fill="none" id="au-submit" style="stroke:#A80036;stroke-width:1.0;"/><!--MD5=[1bb93aec71a9b05a54dd3b57a6e4e5fd]
reverse link au to ss--><path d="M92.68,1144.36 C109.05,1015.06 154.7,660.07 165.31,637 C181.62,601.52 190.29,591.85 223.31,571 C242.51,558.88 265.55,550.44 287.23,544.6 " fill="none" id="au-backto-ss" style="stroke:#A80036;stroke-width:1.0;stroke-dasharray:7.0,7.0;"/><polygon fill="#A80036" points="92.02,1149.6,97.1204,1141.1747,92.649,1144.6397,89.1839,1140.1683,92.02,1149.6" style="stroke:#A80036;stroke-width:1.0;"/><text fill="#000000" font-family="sans-serif" font-size="13" lengthAdjust="spacing" textLength="46" x="167.31" y="573.077">extends</text><!--MD5=[66b5fe09ca82934201e6c23be87a67ca]
link ed to ar--><path d="M103.83,487.07 C114.57,476.02 127.79,460.39 135.31,444 C167.68,373.48 144.02,346.62 165.31,272 C181.62,214.86 199.74,205.35 215.31,148 C218.49,136.29 215.18,103 223.31,94 C239.98,75.53 264.9,66.19 288.96,61.64 " fill="none" id="ed-ar" style="stroke:#A80036;stroke-width:1.0;"/><!--MD5=[32c80b6c17c1087d73075ee2d42f3959]
link ad to ar--><path d="M124.93,344.94 C128.92,339.21 132.52,333.16 135.31,327 C169.31,251.92 125.01,215.89 165.31,144 C191.37,97.51 249.97,76.43 296.26,66.88 " fill="none" id="ad-ar" style="stroke:#A80036;stroke-width:1.0;"/><!--MD5=[82446069b66b49e11c44f2ad58bfbe03]
link ref to air--><path d="M108.96,594.84 C117.56,584.62 127.26,572.52 135.31,561 C176.55,501.98 165.03,467.27 223.31,425 C240.21,412.74 260.83,404.22 280.9,398.3 " fill="none" id="ref-air" style="stroke:#A80036;stroke-width:1.0;"/><!--MD5=[e26ca232e6e6054d2e31764e13f5dd5a]
link air to sr--><path d="M361.81,362.49 C361.81,348.51 361.81,330.54 361.81,316.25 " fill="none" id="air-to-sr" style="stroke:#A80036;stroke-width:1.0;stroke-dasharray:7.0,7.0;"/><polygon fill="#A80036" points="361.81,311.16,357.81,320.16,361.81,316.16,365.81,320.16,361.81,311.16" style="stroke:#A80036;stroke-width:1.0;"/><text fill="#000000" font-family="sans-serif" font-size="13" lengthAdjust="spacing" textLength="48" x="326.31" y="341.327">includes</text><!--MD5=[a288c1c7b3bf4ccac5be4de3e6ef37d0]
link sr to sys--><path d="M430.69,302.54 C456.68,310.06 484.17,322.94 501.31,345 C558.99,419.22 562.93,713.42 562.34,822.78 " fill="none" id="sr-sys" style="stroke:#A80036;stroke-width:1.0;"/><!--MD5=[ae84fb110eb86438eeb1beebacaff9b4]
link ref to ep--><path d="M108.94,640.57 C118.62,650.86 129.15,664.07 135.31,678 C204.01,833.39 97.74,935.56 223.31,1050 C239.42,1064.68 260.7,1073.76 281.69,1079.35 " fill="none" id="ref-ep" style="stroke:#A80036;stroke-width:1.0;"/><!--MD5=[a4209a35e848f03579b3a9c49b14e9be]
link ep to ste--><path d="M277.4,1081.76 C256.84,1076.14 236.88,1066.44 223.31,1050 C165.92,980.49 184.57,735.21 193.31,645.5 C200.01,576.75 175.61,542.97 223.31,493 C239.99,475.53 264.07,466.43 287.49,461.87 " fill="none" id="ep-to-ste" style="stroke:#A80036;stroke-width:1.0;stroke-dasharray:7.0,7.0;"/><polygon fill="#A80036" points="292.47,460.97,282.8967,458.6567,287.5518,461.8707,284.3378,466.5259,292.47,460.97" style="stroke:#A80036;stroke-width:1.0;"/><text fill="#000000" font-family="sans-serif" font-size="13" lengthAdjust="spacing" textLength="48" x="166.31" y="658.577">includes</text><!--MD5=[5f3dd7fe5fd37f26266c057596f65a29]
link ste to sys--><path d="M431.39,460.49 C456.69,464.58 483.5,473.72 501.31,493 C545.15,540.45 557.37,736.44 560.65,822.81 " fill="none" id="ste-sys" style="stroke:#A80036;stroke-width:1.0;"/><!--MD5=[d56fa1dbd9ab95bef9d109985b20be70]
link ed to md--><path d="M104.21,519.87 C114.55,530.75 127.2,545.69 135.31,561 C158.04,603.88 128.66,634.19 165.31,666 C196.88,693.4 242.76,700.82 282.14,701.07 " fill="none" id="ed-md" style="stroke:#A80036;stroke-width:1.0;"/><!--MD5=[6b5b5e6a7432f6c9a598b8e7f6dd6e61]
link ad to md--><path d="M125.08,427.13 C128.93,432.55 132.46,438.23 135.31,444 C162.31,498.73 136.58,524.16 165.31,578 C182.92,611 192.27,618.11 223.31,639 C248.42,655.9 279.59,668.69 305.91,677.57 " fill="none" id="ad-md" style="stroke:#A80036;stroke-width:1.0;"/><!--MD5=[6c4933bff4f100607f6aa6b2403d4bd0]
link md to sta--><path d="M361.81,672.59 C361.81,658.96 361.81,641.05 361.81,627.09 " fill="none" id="md-to-sta" style="stroke:#A80036;stroke-width:1.0;stroke-dasharray:7.0,7.0;"/><polygon fill="#A80036" points="361.81,621.76,357.81,630.76,361.81,626.76,365.81,630.76,361.81,621.76" style="stroke:#A80036;stroke-width:1.0;"/><text fill="#000000" font-family="sans-serif" font-size="13" lengthAdjust="spacing" textLength="48" x="326.31" y="651.827">includes</text><!--MD5=[54a3a53118662e446ee90302056b2c34]
link sta to sys--><path d="M422.52,613.83 C449.9,620.75 480.77,633.08 501.31,655 C544.58,701.16 557.13,776.39 560.63,822.89 " fill="none" id="sta-sys" style="stroke:#A80036;stroke-width:1.0;"/><!--MD5=[77e033e8e6ab9a8c104dd0ec3e07d58e]
link ms to sys--><path d="M454.45,864 C486.27,864 519.18,864 540.03,864 " fill="none" id="ms-sys" style="stroke:#A80036;stroke-width:1.0;"/><!--MD5=[7b7546f5278d7d18d14509398c368d53]
link ms to ssta--><path d="M361.81,842.67 C361.81,829.07 361.81,811.32 361.81,796.77 " fill="none" id="ms-to-ssta" style="stroke:#A80036;stroke-width:1.0;stroke-dasharray:7.0,7.0;"/><polygon fill="#A80036" points="361.81,791.57,357.81,800.57,361.81,796.57,365.81,800.57,361.81,791.57" style="stroke:#A80036;stroke-width:1.0;"/><text fill="#000000" font-family="sans-serif" font-size="13" lengthAdjust="spacing" textLength="48" x="326.31" y="821.827">includes</text><!--MD5=[78501573e44f418a60b2c25c1533931c]
link ed to es--><path d="M104.11,519.19 C114.68,530.03 127.61,545.18 135.31,561 C176.47,645.57 158.83,906.52 223.31,975 C238.16,990.78 258.93,1000.21 279.83,1005.79 " fill="none" id="ed-es" style="stroke:#A80036;stroke-width:1.0;"/><!--MD5=[4a69ace38ddd0a9c45f3bd473bf1b720]
link es to sys--><path d="M439.08,1003.55 C460.88,997.96 483.52,989.09 501.31,975 C523.76,957.22 539.05,928.72 548.63,905.05 " fill="none" id="es-sys" style="stroke:#A80036;stroke-width:1.0;"/><!--MD5=[710457793a030514ff1bac6e83980af9]
link au to pay--><path d="M106.51,1189.06 C141.55,1185.61 216.58,1178.21 276.11,1172.35 " fill="none" id="au-pay" style="stroke:#A80036;stroke-width:1.0;"/><!--MD5=[4304d6d2886fc74a1eb7f93c4377861c]
link pay to sys--><path d="M446.74,1155.4 C466.93,1149.6 486.82,1140.18 501.31,1125 C531.13,1093.75 549.53,970.44 557.38,905.12 " fill="none" id="pay-sys" style="stroke:#A80036;stroke-width:1.0;"/><!--MD5=[d37cb303be860a3cb93a367a69e18f45]
link sys to st--><path d="M540.28,879.74 C529.1,887.33 514.95,896.05 501.31,902 C476.67,912.74 448.17,921 423.45,926.97 " fill="none" id="sys-st" style="stroke:#A80036;stroke-width:1.0;"/><!--MD5=[aca0b992306a41bf599425b69f52cb7b]
link au to v--><path d="M106.37,1207.27 C131.81,1227.68 178.33,1262.48 223.31,1283 C246.7,1293.67 273.78,1301.78 297.69,1307.64 " fill="none" id="au-v" style="stroke:#A80036;stroke-width:1.0;"/><!--MD5=[ffc484ed6bb2d475aa4802ae0d9ef423]
link gu to v--><path d="M119.32,1320 C158.09,1320 224.35,1320 277.66,1320 " fill="none" id="gu-v" style="stroke:#A80036;stroke-width:1.0;"/><!--MD5=[cdb82c63725dd2e5f6c37f8430f1dee4]
@startuml
left to right direction
actor "new user" as nu
actor "authorized user" as auth
actor administrator as ad
actor editor as ed
actor referee as ref
actor author as au
actor system as sys

ad -|> auth
ed -|> auth
ref -|> auth
author -|> auth

actor "guest user" as gu
rectangle "Content Management System (CMS)" {
  usecase "request registration (FR1)" as rr
  usecase "login (FR2)" as login
  usecase "change password (FR3)" as cp
  usecase "request submission (FR4)" as submit
  usecase "save submission (FR5)" as ss
  usecase "assign referees (FR6)" as ar
  usecase "save referee (FR7)" as sr
  usecase "evaluate paper (FR8)" as ep
  usecase "make decision (FR9)" as md
  usecase "make schedule (FR10)" as ms
  usecase "edit schedule (FR11)" as es
  usecase "pay attendance (FR12)" as pay

 
  usecase "visit CMS web page" as v
  usecase "view assigned review tasks" as vart
  usecase "manage referee tasks" as manage
  usecase "assign referees" as ar
  usecase "accept invitation to review" as air
  usecase "send to editor" as ste
  usecase "send to author" as sta
  usecase "send schedule to author" as ssta
  usecase "send ticket to user" as st
}


'1'
nu - - rr
rr - - sys

'2'
auth - - login

'3'
cp .> login : extends
cp -= sys

'4'
au - - submit

'5' 
au <. ss : extends

'6'
ed - - ar
ad - - ar

'7'
ref - - air
air .> sr : includes
sr - - sys

'8'
ref - - ep
ep .> ste : includes
ste - - sys

'9'
ed - - md
ad - - md
md .> sta : includes
sta - - sys


'10'
ms - - sys
ms .> ssta : includes

'11'
ed - - es
es - - sys

'12'
au - - pay
pay - - sys
sys - - st

''

au - - v
gu - - v

@enduml

@startuml
left to right direction
actor "new user" as nu
actor "authorized user" as auth
actor administrator as ad
actor editor as ed
actor referee as ref
actor author as au
actor system as sys

ad -|> auth
ed -|> auth
ref -|> auth
author -|> auth

actor "guest user" as gu
rectangle "Content Management System (CMS)" {
  usecase "request registration (FR1)" as rr
  usecase "login (FR2)" as login
  usecase "change password (FR3)" as cp
  usecase "request submission (FR4)" as submit
  usecase "save submission (FR5)" as ss
  usecase "assign referees (FR6)" as ar
  usecase "save referee (FR7)" as sr
  usecase "evaluate paper (FR8)" as ep
  usecase "make decision (FR9)" as md
  usecase "make schedule (FR10)" as ms
  usecase "edit schedule (FR11)" as es
  usecase "pay attendance (FR12)" as pay

 
  usecase "visit CMS web page" as v
  usecase "view assigned review tasks" as vart
  usecase "manage referee tasks" as manage
  usecase "assign referees" as ar
  usecase "accept invitation to review" as air
  usecase "send to editor" as ste
  usecase "send to author" as sta
  usecase "send schedule to author" as ssta
  usecase "send ticket to user" as st
}


nu - - rr
rr - - sys

auth - - login

cp .> login : extends
cp -= sys

au - - submit

au <. ss : extends

ed - - ar
ad - - ar

ref - - air
air .> sr : includes
sr - - sys

ref - - ep
ep .> ste : includes
ste - - sys

ed - - md
ad - - md
md .> sta : includes
sta - - sys


ms - - sys
ms .> ssta : includes

ed - - es
es - - sys

au - - pay
pay - - sys
sys - - st


au - - v
gu - - v

@enduml

PlantUML version 1.2021.00(Sun Jan 10 03:25:05 MST 2021)
(GPL source distribution)
Java Runtime: OpenJDK Runtime Environment
JVM: OpenJDK 64-Bit Server VM
Default Encoding: UTF-8
Language: en
Country: CA
--></g></svg>