<?xml version="1.0" encoding="UTF-8" standalone="no"?><svg xmlns="http://www.w3.org/2000/svg" xmlns:xlink="http://www.w3.org/1999/xlink" contentScriptType="application/ecmascript" contentStyleType="text/css" height="425px" preserveAspectRatio="none" style="width:174px;height:425px;" version="1.1" viewBox="0 0 174 425" width="174px" zoomAndPan="magnify"><defs><filter height="300%" id="f1xwhoj6nypuv0" width="300%" x="-1" y="-1"><feGaussianBlur result="blurOut" stdDeviation="2.0"/><feColorMatrix in="blurOut" result="blurOut2" type="matrix" values="0 0 0 0 0 0 0 0 0 0 0 0 0 0 0 0 0 0 .4 0"/><feOffset dx="4.0" dy="4.0" in="blurOut2" result="blurOut3"/><feBlend in="SourceGraphic" in2="blurOut3" mode="normal"/></filter></defs><g><ellipse cx="74" cy="20" fill="#000000" filter="url(#f1xwhoj6nypuv0)" rx="10" ry="10" style="stroke:none;stroke-width:1.0;"/><rect fill="#FEFECE" filter="url(#f1xwhoj6nypuv0)" height="34.4001" rx="12.5" ry="12.5" style="stroke:#A80036;stroke-width:1.5;" width="47" x="50.5" y="50"/><text fill="#000000" font-family="sans-serif" font-size="12" lengthAdjust="spacing" textLength="27" x="60.5" y="71.1481">login</text><rect fill="#FEFECE" filter="url(#f1xwhoj6nypuv0)" height="34.4001" rx="12.5" ry="12.5" style="stroke:#A80036;stroke-width:1.5;" width="126" x="11" y="104.4001"/><text fill="#000000" font-family="sans-serif" font-size="12" lengthAdjust="spacing" textLength="106" x="21" y="125.5482">request submission</text><rect fill="#FEFECE" filter="url(#f1xwhoj6nypuv0)" height="34.4001" rx="12.5" ry="12.5" style="stroke:#A80036;stroke-width:1.5;" width="79" x="34.5" y="213.2003"/><text fill="#000000" font-family="sans-serif" font-size="12" lengthAdjust="spacing" textLength="59" x="44.5" y="234.3484">browse file</text><rect fill="#FEFECE" filter="url(#f1xwhoj6nypuv0)" height="34.4001" rx="12.5" ry="12.5" style="stroke:#A80036;stroke-width:1.5;" width="124" x="12" y="158.8002"/><text fill="#000000" font-family="sans-serif" font-size="12" lengthAdjust="spacing" textLength="104" x="22" y="179.9483">fill submission form</text><polygon fill="#FEFECE" filter="url(#f1xwhoj6nypuv0)" points="42,267.6004,106,267.6004,118,279.6004,106,291.6004,42,291.6004,30,279.6004,42,267.6004" style="stroke:#A80036;stroke-width:1.5;"/><text fill="#000000" font-family="sans-serif" font-size="11" lengthAdjust="spacing" textLength="64" x="42" y="283.2194">form is valid?</text><text fill="#000000" font-family="sans-serif" font-size="11" lengthAdjust="spacing" textLength="12" x="118" y="276.6194">no</text><rect fill="#FEFECE" filter="url(#f1xwhoj6nypuv0)" height="34.4001" rx="12.5" ry="12.5" style="stroke:#A80036;stroke-width:1.5;" width="114" x="17" y="333.7813"/><text fill="#000000" font-family="sans-serif" font-size="12" lengthAdjust="spacing" textLength="94" x="27" y="354.9294">store in database</text><ellipse cx="74" cy="398.1814" fill="#FFFFFF" filter="url(#f1xwhoj6nypuv0)" rx="10" ry="10" style="stroke:#000000;stroke-width:1.5;"/><line style="stroke:#000000;stroke-width:2.5;" x1="67.8128" x2="80.1872" y1="391.9942" y2="404.3686"/><line style="stroke:#000000;stroke-width:2.5;" x1="80.1872" x2="67.8128" y1="391.9942" y2="404.3686"/><line style="stroke:#A80036;stroke-width:1.5;" x1="74" x2="74" y1="30" y2="50"/><polygon fill="#A80036" points="70,40,74,50,78,40,74,44" style="stroke:#A80036;stroke-width:1.0;"/><line style="stroke:#A80036;stroke-width:1.5;" x1="74" x2="74" y1="84.4001" y2="104.4001"/><polygon fill="#A80036" points="70,94.4001,74,104.4001,78,94.4001,74,98.4001" style="stroke:#A80036;stroke-width:1.0;"/><line style="stroke:#A80036;stroke-width:1.5;" x1="74" x2="74" y1="193.2003" y2="213.2003"/><polygon fill="#A80036" points="70,203.2003,74,213.2003,78,203.2003,74,207.2003" style="stroke:#A80036;stroke-width:1.0;"/><line style="stroke:#A80036;stroke-width:1.5;" x1="118" x2="148" y1="279.6004" y2="279.6004"/><polygon fill="#A80036" points="144,237.8003,148,227.8003,152,237.8003,148,233.8003" style="stroke:#A80036;stroke-width:1.5;"/><line style="stroke:#A80036;stroke-width:1.5;" x1="148" x2="148" y1="176.0003" y2="279.6004"/><line style="stroke:#A80036;stroke-width:1.5;" x1="148" x2="136" y1="176.0003" y2="176.0003"/><polygon fill="#A80036" points="146,172.0003,136,176.0003,146,180.0003,142,176.0003" style="stroke:#A80036;stroke-width:1.0;"/><line style="stroke:#A80036;stroke-width:1.5;" x1="74" x2="74" y1="247.6004" y2="267.6004"/><polygon fill="#A80036" points="70,257.6004,74,267.6004,78,257.6004,74,261.6004" style="stroke:#A80036;stroke-width:1.0;"/><line style="stroke:#A80036;stroke-width:1.5;" x1="74" x2="74" y1="138.8002" y2="158.8002"/><polygon fill="#A80036" points="70,148.8002,74,158.8002,78,148.8002,74,152.8002" style="stroke:#A80036;stroke-width:1.0;"/><line style="stroke:#A80036;stroke-width:1.5;" x1="74" x2="74" y1="291.6004" y2="333.7813"/><polygon fill="#A80036" points="70,323.7813,74,333.7813,78,323.7813,74,327.7813" style="stroke:#A80036;stroke-width:1.0;"/><text fill="#000000" font-family="sans-serif" font-size="11" lengthAdjust="spacing" textLength="18" x="78" y="313.3003">yes</text><line style="stroke:#A80036;stroke-width:1.5;" x1="74" x2="74" y1="368.1814" y2="388.1814"/><polygon fill="#A80036" points="70,378.1814,74,388.1814,78,378.1814,74,382.1814" style="stroke:#A80036;stroke-width:1.0;"/><!--MD5=[5d4608f4a24b5ba1e90a23ef9886cb03]
@startuml
start

:login;

:request submission;

repeat :fill submission form;

:browse file;

repeat while (form is valid?) is (no)
->yes;

:store in database;

end


@enduml

PlantUML version 1.2021.00(Sun Jan 10 03:25:05 MST 2021)
(GPL source distribution)
Java Runtime: OpenJDK Runtime Environment
JVM: OpenJDK 64-Bit Server VM
Default Encoding: UTF-8
Language: en
Country: CA
--></g></svg>