<?xml version="1.0" encoding="UTF-8" standalone="no"?><svg xmlns="http://www.w3.org/2000/svg" xmlns:xlink="http://www.w3.org/1999/xlink" contentScriptType="application/ecmascript" contentStyleType="text/css" height="986px" preserveAspectRatio="none" style="width:1033px;height:986px;" version="1.1" viewBox="0 0 1033 986" width="1033px" zoomAndPan="magnify"><defs><filter height="300%" id="f131ytf2o41nzm" width="300%" x="-1" y="-1"><feGaussianBlur result="blurOut" stdDeviation="2.0"/><feColorMatrix in="blurOut" result="blurOut2" type="matrix" values="0 0 0 0 0 0 0 0 0 0 0 0 0 0 0 0 0 0 .4 0"/><feOffset dx="4.0" dy="4.0" in="blurOut2" result="blurOut3"/><feBlend in="SourceGraphic" in2="blurOut3" mode="normal"/></filter></defs><g><ellipse cx="95" cy="49.9778" fill="#000000" filter="url(#f131ytf2o41nzm)" rx="10" ry="10" style="stroke:none;stroke-width:1.0;"/><rect fill="#FEFECE" filter="url(#f131ytf2o41nzm)" height="34.4001" rx="12.5" ry="12.5" style="stroke:#A80036;stroke-width:1.5;" width="47" x="71.5" y="79.9778"/><text fill="#000000" font-family="sans-serif" font-size="12" lengthAdjust="spacing" textLength="27" x="81.5" y="101.1259">login</text><rect fill="#FEFECE" filter="url(#f131ytf2o41nzm)" height="34.4001" rx="12.5" ry="12.5" style="stroke:#A80036;stroke-width:1.5;" width="135" x="27.5" y="243.1781"/><text fill="#000000" font-family="sans-serif" font-size="12" lengthAdjust="spacing" textLength="115" x="37.5" y="264.3262">make a final decision</text><rect fill="#FEFECE" filter="url(#f131ytf2o41nzm)" height="34.4001" rx="12.5" ry="12.5" style="stroke:#A80036;stroke-width:1.5;" width="148" x="21" y="458.3784"/><text fill="#000000" font-family="sans-serif" font-size="12" lengthAdjust="spacing" textLength="128" x="31" y="479.5265">click on an active paper</text><rect fill="#FEFECE" filter="url(#f131ytf2o41nzm)" height="34.4001" rx="12.5" ry="12.5" style="stroke:#A80036;stroke-width:1.5;" width="109" x="40.5" y="675.9788"/><text fill="#000000" font-family="sans-serif" font-size="12" lengthAdjust="spacing" textLength="89" x="50.5" y="697.1269">Accept or Reject</text><rect fill="#FEFECE" filter="url(#f131ytf2o41nzm)" height="34.4001" rx="12.5" ry="12.5" style="stroke:#A80036;stroke-width:1.5;" width="60" x="65" y="730.3789"/><text fill="#000000" font-family="sans-serif" font-size="12" lengthAdjust="spacing" textLength="40" x="75" y="751.527">confirm</text><ellipse cx="95" cy="958.9793" fill="#FFFFFF" filter="url(#f131ytf2o41nzm)" rx="11" ry="11" style="stroke:#000000;stroke-width:1.0;"/><ellipse cx="95" cy="958.9793" fill="#000000" rx="6" ry="6" style="stroke:#7F7F7F;stroke-width:1.0;"/><line style="stroke:#000000;stroke-width:2.0;" x1="15" x2="15" y1="13.378" y2="969.9793"/><rect fill="#FEFECE" filter="url(#f131ytf2o41nzm)" height="34.4001" rx="12.5" ry="12.5" style="stroke:#A80036;stroke-width:1.5;" width="47" x="379.5" y="134.3779"/><text fill="#000000" font-family="sans-serif" font-size="12" lengthAdjust="spacing" textLength="27" x="389.5" y="155.526">login</text><rect fill="#000000" filter="url(#f131ytf2o41nzm)" height="6" rx="2.5" ry="2.5" style="stroke:#000000;stroke-width:1.0;" width="364" x="185" y="297.5782"/><rect fill="#FEFECE" filter="url(#f131ytf2o41nzm)" height="34.4001" rx="12.5" ry="12.5" style="stroke:#A80036;stroke-width:1.5;" width="165" x="197" y="323.5782"/><text fill="#000000" font-family="sans-serif" font-size="12" lengthAdjust="spacing" textLength="145" x="207" y="344.7263">get list of submitted papers</text><rect fill="#FEFECE" filter="url(#f131ytf2o41nzm)" height="34.4001" rx="12.5" ry="12.5" style="stroke:#A80036;stroke-width:1.5;" width="72" x="465" y="323.5782"/><text fill="#000000" font-family="sans-serif" font-size="12" lengthAdjust="spacing" textLength="52" x="475" y="344.7263">get active</text><rect fill="#FEFECE" filter="url(#f131ytf2o41nzm)" height="34.4001" rx="12.5" ry="12.5" style="stroke:#A80036;stroke-width:1.5;" width="190" x="308" y="512.7785"/><text fill="#000000" font-family="sans-serif" font-size="12" lengthAdjust="spacing" textLength="170" x="318" y="533.9266">get reviewer comments from db</text><rect fill="#FEFECE" filter="url(#f131ytf2o41nzm)" height="34.4001" rx="12.5" ry="12.5" style="stroke:#A80036;stroke-width:1.5;" width="227" x="289.5" y="621.5787"/><text fill="#000000" font-family="sans-serif" font-size="12" lengthAdjust="spacing" textLength="207" x="299.5" y="642.7268">redirect ui to reviewer comments page</text><rect fill="#FEFECE" filter="url(#f131ytf2o41nzm)" height="34.4001" rx="12.5" ry="12.5" style="stroke:#A80036;stroke-width:1.5;" width="149" x="328.5" y="784.779"/><text fill="#000000" font-family="sans-serif" font-size="12" lengthAdjust="spacing" textLength="129" x="338.5" y="805.9271">save editor choice in db</text><rect fill="#FEFECE" filter="url(#f131ytf2o41nzm)" height="34.4001" rx="12.5" ry="12.5" style="stroke:#A80036;stroke-width:1.5;" width="187" x="309.5" y="893.5792"/><text fill="#000000" font-family="sans-serif" font-size="12" lengthAdjust="spacing" textLength="167" x="319.5" y="914.7273">send editor decision to authors</text><line style="stroke:#000000;stroke-width:2.0;" x1="179" x2="179" y1="13.378" y2="969.9793"/><rect fill="#FEFECE" filter="url(#f131ytf2o41nzm)" height="34.4001" rx="12.5" ry="12.5" style="stroke:#A80036;stroke-width:1.5;" width="112" x="728.5" y="188.778"/><text fill="#000000" font-family="sans-serif" font-size="12" lengthAdjust="spacing" textLength="92" x="738.5" y="209.9261">verify credentials</text><rect fill="#FEFECE" filter="url(#f131ytf2o41nzm)" height="34.4001" rx="12.5" ry="12.5" style="stroke:#A80036;stroke-width:1.5;" width="168" x="577" y="377.9783"/><text fill="#000000" font-family="sans-serif" font-size="12" lengthAdjust="spacing" textLength="148" x="587" y="399.1264">query get submitted papers</text><rect fill="#FEFECE" filter="url(#f131ytf2o41nzm)" height="34.4001" rx="12.5" ry="12.5" style="stroke:#A80036;stroke-width:1.5;" width="219" x="773" y="377.9783"/><text fill="#000000" font-family="sans-serif" font-size="12" lengthAdjust="spacing" textLength="199" x="783" y="399.1264">query filter papers with three reviews</text><rect fill="#000000" filter="url(#f131ytf2o41nzm)" height="6" rx="2.5" ry="2.5" style="stroke:#000000;stroke-width:1.0;" width="439" x="565" y="432.3784"/><rect fill="#FEFECE" filter="url(#f131ytf2o41nzm)" height="34.4001" rx="12.5" ry="12.5" style="stroke:#A80036;stroke-width:1.5;" width="180" x="694.5" y="567.1786"/><text fill="#000000" font-family="sans-serif" font-size="12" lengthAdjust="spacing" textLength="160" x="704.5" y="588.3267">query get reviewer comments</text><rect fill="#FEFECE" filter="url(#f131ytf2o41nzm)" height="34.4001" rx="12.5" ry="12.5" style="stroke:#A80036;stroke-width:1.5;" width="119" x="725" y="839.1791"/><text fill="#000000" font-family="sans-serif" font-size="12" lengthAdjust="spacing" textLength="99" x="735" y="860.3272">save editor choice</text><line style="stroke:#000000;stroke-width:2.0;" x1="559" x2="559" y1="13.378" y2="969.9793"/><line style="stroke:#000000;stroke-width:2.0;" x1="1014" x2="1014" y1="13.378" y2="969.9793"/><line style="stroke:#A80036;stroke-width:1.5;" x1="95" x2="95" y1="59.9778" y2="79.9778"/><polygon fill="#A80036" points="91,69.9778,95,79.9778,99,69.9778,95,73.9778" style="stroke:#A80036;stroke-width:1.0;"/><line style="stroke:#A80036;stroke-width:1.5;" x1="95" x2="95" y1="710.3789" y2="730.3789"/><polygon fill="#A80036" points="91,720.3789,95,730.3789,99,720.3789,95,724.3789" style="stroke:#A80036;stroke-width:1.0;"/><line style="stroke:#A80036;stroke-width:1.5;" x1="279.5" x2="279.5" y1="303.5782" y2="323.5782"/><polygon fill="#A80036" points="275.5,313.5782,279.5,323.5782,283.5,313.5782,279.5,317.5782" style="stroke:#A80036;stroke-width:1.0;"/><line style="stroke:#A80036;stroke-width:1.5;" x1="501" x2="501" y1="303.5782" y2="323.5782"/><polygon fill="#A80036" points="497,313.5782,501,323.5782,505,313.5782,501,317.5782" style="stroke:#A80036;stroke-width:1.0;"/><line style="stroke:#A80036;stroke-width:1.5;" x1="661" x2="661" y1="412.3784" y2="432.3784"/><polygon fill="#A80036" points="657,422.3784,661,432.3784,665,422.3784,661,426.3784" style="stroke:#A80036;stroke-width:1.0;"/><line style="stroke:#A80036;stroke-width:1.5;" x1="882.5" x2="882.5" y1="412.3784" y2="432.3784"/><polygon fill="#A80036" points="878.5,422.3784,882.5,432.3784,886.5,422.3784,882.5,426.3784" style="stroke:#A80036;stroke-width:1.0;"/><line style="stroke:#A80036;stroke-width:1.5;" x1="95" x2="95" y1="114.3779" y2="119.3779"/><line style="stroke:#A80036;stroke-width:1.5;" x1="95" x2="403" y1="119.3779" y2="119.3779"/><line style="stroke:#A80036;stroke-width:1.5;" x1="403" x2="403" y1="119.3779" y2="134.3779"/><polygon fill="#A80036" points="399,124.3779,403,134.3779,407,124.3779,403,128.3779" style="stroke:#A80036;stroke-width:1.0;"/><line style="stroke:#A80036;stroke-width:1.5;" x1="403" x2="403" y1="168.778" y2="173.778"/><line style="stroke:#A80036;stroke-width:1.5;" x1="403" x2="784.5" y1="173.778" y2="173.778"/><line style="stroke:#A80036;stroke-width:1.5;" x1="784.5" x2="784.5" y1="173.778" y2="188.778"/><polygon fill="#A80036" points="780.5,178.778,784.5,188.778,788.5,178.778,784.5,182.778" style="stroke:#A80036;stroke-width:1.0;"/><line style="stroke:#A80036;stroke-width:1.5;" x1="784.5" x2="784.5" y1="223.1781" y2="228.1781"/><line style="stroke:#A80036;stroke-width:1.5;" x1="784.5" x2="95" y1="228.1781" y2="228.1781"/><line style="stroke:#A80036;stroke-width:1.5;" x1="95" x2="95" y1="228.1781" y2="243.1781"/><polygon fill="#A80036" points="91,233.1781,95,243.1781,99,233.1781,95,237.1781" style="stroke:#A80036;stroke-width:1.0;"/><line style="stroke:#A80036;stroke-width:1.5;" x1="279.5" x2="279.5" y1="357.9783" y2="362.9783"/><line style="stroke:#A80036;stroke-width:1.5;" x1="279.5" x2="661" y1="362.9783" y2="362.9783"/><line style="stroke:#A80036;stroke-width:1.5;" x1="661" x2="661" y1="362.9783" y2="377.9783"/><polygon fill="#A80036" points="657,367.9783,661,377.9783,665,367.9783,661,371.9783" style="stroke:#A80036;stroke-width:1.0;"/><line style="stroke:#A80036;stroke-width:1.5;" x1="501" x2="501" y1="357.9783" y2="362.9783"/><line style="stroke:#A80036;stroke-width:1.5;" x1="501" x2="882.5" y1="362.9783" y2="362.9783"/><line style="stroke:#A80036;stroke-width:1.5;" x1="882.5" x2="882.5" y1="362.9783" y2="377.9783"/><polygon fill="#A80036" points="878.5,367.9783,882.5,377.9783,886.5,367.9783,882.5,371.9783" style="stroke:#A80036;stroke-width:1.0;"/><line style="stroke:#A80036;stroke-width:1.5;" x1="95" x2="95" y1="277.5782" y2="282.5782"/><line style="stroke:#A80036;stroke-width:1.5;" x1="95" x2="403" y1="282.5782" y2="282.5782"/><line style="stroke:#A80036;stroke-width:1.5;" x1="403" x2="403" y1="282.5782" y2="297.5782"/><polygon fill="#A80036" points="399,287.5782,403,297.5782,407,287.5782,403,291.5782" style="stroke:#A80036;stroke-width:1.0;"/><line style="stroke:#A80036;stroke-width:1.5;" x1="784.5" x2="784.5" y1="438.3784" y2="443.3784"/><line style="stroke:#A80036;stroke-width:1.5;" x1="784.5" x2="95" y1="443.3784" y2="443.3784"/><line style="stroke:#A80036;stroke-width:1.5;" x1="95" x2="95" y1="443.3784" y2="458.3784"/><polygon fill="#A80036" points="91,448.3784,95,458.3784,99,448.3784,95,452.3784" style="stroke:#A80036;stroke-width:1.0;"/><line style="stroke:#A80036;stroke-width:1.5;" x1="95" x2="95" y1="492.7785" y2="497.7785"/><line style="stroke:#A80036;stroke-width:1.5;" x1="95" x2="403" y1="497.7785" y2="497.7785"/><line style="stroke:#A80036;stroke-width:1.5;" x1="403" x2="403" y1="497.7785" y2="512.7785"/><polygon fill="#A80036" points="399,502.7785,403,512.7785,407,502.7785,403,506.7785" style="stroke:#A80036;stroke-width:1.0;"/><line style="stroke:#A80036;stroke-width:1.5;" x1="403" x2="403" y1="547.1786" y2="552.1786"/><line style="stroke:#A80036;stroke-width:1.5;" x1="403" x2="784.5" y1="552.1786" y2="552.1786"/><line style="stroke:#A80036;stroke-width:1.5;" x1="784.5" x2="784.5" y1="552.1786" y2="567.1786"/><polygon fill="#A80036" points="780.5,557.1786,784.5,567.1786,788.5,557.1786,784.5,561.1786" style="stroke:#A80036;stroke-width:1.0;"/><line style="stroke:#A80036;stroke-width:1.5;" x1="784.5" x2="784.5" y1="601.5787" y2="606.5787"/><line style="stroke:#A80036;stroke-width:1.5;" x1="784.5" x2="403" y1="606.5787" y2="606.5787"/><line style="stroke:#A80036;stroke-width:1.5;" x1="403" x2="403" y1="606.5787" y2="621.5787"/><polygon fill="#A80036" points="399,611.5787,403,621.5787,407,611.5787,403,615.5787" style="stroke:#A80036;stroke-width:1.0;"/><line style="stroke:#A80036;stroke-width:1.5;" x1="403" x2="403" y1="655.9788" y2="660.9788"/><line style="stroke:#A80036;stroke-width:1.5;" x1="403" x2="95" y1="660.9788" y2="660.9788"/><line style="stroke:#A80036;stroke-width:1.5;" x1="95" x2="95" y1="660.9788" y2="675.9788"/><polygon fill="#A80036" points="91,665.9788,95,675.9788,99,665.9788,95,669.9788" style="stroke:#A80036;stroke-width:1.0;"/><line style="stroke:#A80036;stroke-width:1.5;" x1="95" x2="95" y1="764.779" y2="769.779"/><line style="stroke:#A80036;stroke-width:1.5;" x1="95" x2="403" y1="769.779" y2="769.779"/><line style="stroke:#A80036;stroke-width:1.5;" x1="403" x2="403" y1="769.779" y2="784.779"/><polygon fill="#A80036" points="399,774.779,403,784.779,407,774.779,403,778.779" style="stroke:#A80036;stroke-width:1.0;"/><line style="stroke:#A80036;stroke-width:1.5;" x1="403" x2="403" y1="819.1791" y2="824.1791"/><line style="stroke:#A80036;stroke-width:1.5;" x1="403" x2="784.5" y1="824.1791" y2="824.1791"/><line style="stroke:#A80036;stroke-width:1.5;" x1="784.5" x2="784.5" y1="824.1791" y2="839.1791"/><polygon fill="#A80036" points="780.5,829.1791,784.5,839.1791,788.5,829.1791,784.5,833.1791" style="stroke:#A80036;stroke-width:1.0;"/><line style="stroke:#A80036;stroke-width:1.5;" x1="784.5" x2="784.5" y1="873.5792" y2="878.5792"/><line style="stroke:#A80036;stroke-width:1.5;" x1="784.5" x2="403" y1="878.5792" y2="878.5792"/><line style="stroke:#A80036;stroke-width:1.5;" x1="403" x2="403" y1="878.5792" y2="893.5792"/><polygon fill="#A80036" points="399,883.5792,403,893.5792,407,883.5792,403,887.5792" style="stroke:#A80036;stroke-width:1.0;"/><line style="stroke:#A80036;stroke-width:1.5;" x1="403" x2="403" y1="927.9793" y2="932.9793"/><line style="stroke:#A80036;stroke-width:1.5;" x1="403" x2="95" y1="932.9793" y2="932.9793"/><line style="stroke:#A80036;stroke-width:1.5;" x1="95" x2="95" y1="932.9793" y2="947.9793"/><polygon fill="#A80036" points="91,937.9793,95,947.9793,99,937.9793,95,941.9793" style="stroke:#A80036;stroke-width:1.0;"/><text fill="#000000" font-family="sans-serif" font-size="18" lengthAdjust="spacing" textLength="14" x="90" y="30.0999">ui</text><text fill="#000000" font-family="sans-serif" font-size="18" lengthAdjust="spacing" textLength="50" x="344" y="30.0999">server</text><text fill="#000000" font-family="sans-serif" font-size="18" lengthAdjust="spacing" textLength="20" x="776.5" y="30.0999">db</text><!--MD5=[534cf28c858b7740b3a751f4ce7d18cd]
@startuml
|ui|
start
:login;

|server|
:login;

|db|
:verify credentials;

|ui|
:make a final decision;

|server|
fork
    :get list of submitted papers;
    |db|
    :query get submitted papers;
fork again
     |server|
     :get active;
     |db|
     :query filter papers with three reviews;
end fork

|ui|
:click on an active paper;

|server|
:get reviewer comments from db;

|db|
:query get reviewer comments;

|server|
:redirect ui to reviewer comments page;

|ui|
:Accept or Reject;
:confirm;

|server|
:save editor choice in db;

|db|
:save editor choice;

|server|
:send editor decision to authors;


|ui|
stop

@enduml

PlantUML version 1.2021.00(Sun Jan 10 03:25:05 MST 2021)
(GPL source distribution)
Java Runtime: OpenJDK Runtime Environment
JVM: OpenJDK 64-Bit Server VM
Default Encoding: UTF-8
Language: en
Country: CA
--></g></svg>