<?xml version="1.0" encoding="UTF-8" standalone="no"?><svg xmlns="http://www.w3.org/2000/svg" xmlns:xlink="http://www.w3.org/1999/xlink" contentScriptType="application/ecmascript" contentStyleType="text/css" height="943px" preserveAspectRatio="none" style="width:655px;height:943px;" version="1.1" viewBox="0 0 655 943" width="655px" zoomAndPan="magnify"><defs><filter height="300%" id="f2abg5lkf62gd" width="300%" x="-1" y="-1"><feGaussianBlur result="blurOut" stdDeviation="2.0"/><feColorMatrix in="blurOut" result="blurOut2" type="matrix" values="0 0 0 0 0 0 0 0 0 0 0 0 0 0 0 0 0 0 .4 0"/><feOffset dx="4.0" dy="4.0" in="blurOut2" result="blurOut3"/><feBlend in="SourceGraphic" in2="blurOut3" mode="normal"/></filter></defs><g><ellipse cx="83" cy="49.9778" fill="#000000" filter="url(#f2abg5lkf62gd)" rx="10" ry="10" style="stroke:none;stroke-width:1.0;"/><rect fill="#FEFECE" filter="url(#f2abg5lkf62gd)" height="34.4001" rx="12.5" ry="12.5" style="stroke:#A80036;stroke-width:1.5;" width="47" x="59.5" y="79.9778"/><text fill="#000000" font-family="sans-serif" font-size="12" lengthAdjust="spacing" textLength="27" x="69.5" y="101.1259">login</text><rect fill="#FEFECE" filter="url(#f2abg5lkf62gd)" height="34.4001" rx="12.5" ry="12.5" style="stroke:#A80036;stroke-width:1.5;" width="119" x="23.5" y="243.1781"/><text fill="#000000" font-family="sans-serif" font-size="12" lengthAdjust="spacing" textLength="99" x="33.5" y="264.3262">submit manuscript</text><rect fill="#FEFECE" filter="url(#f2abg5lkf62gd)" height="34.4001" rx="12.5" ry="12.5" style="stroke:#A80036;stroke-width:1.5;" width="79" x="43.5" y="481.5792"/><text fill="#000000" font-family="sans-serif" font-size="12" lengthAdjust="spacing" textLength="59" x="53.5" y="502.7273">browse file</text><rect fill="#FEFECE" filter="url(#f2abg5lkf62gd)" height="164.001" rx="12.5" ry="12.5" style="stroke:#A80036;stroke-width:1.5;" width="124" x="21" y="297.5782"/><text fill="#000000" font-family="sans-serif" font-size="12" lengthAdjust="spacing" textLength="104" x="31" y="318.7263">fill submission form</text><text fill="#000000" font-family="sans-serif" font-size="12" lengthAdjust="spacing" textLength="69" x="31" y="333.1264">author name</text><text fill="#000000" font-family="sans-serif" font-size="12" lengthAdjust="spacing" textLength="55" x="31" y="347.5265">affiliations</text><text fill="#000000" font-family="sans-serif" font-size="12" lengthAdjust="spacing" textLength="41" x="31" y="361.9266">authors</text><text fill="#000000" font-family="sans-serif" font-size="12" lengthAdjust="spacing" textLength="29" x="31" y="376.3267">order</text><text fill="#000000" font-family="sans-serif" font-size="12" lengthAdjust="spacing" textLength="32" x="31" y="390.7268">paper</text><text fill="#000000" font-family="sans-serif" font-size="12" lengthAdjust="spacing" textLength="33" x="31" y="405.1269">scope</text><text fill="#000000" font-family="sans-serif" font-size="12" lengthAdjust="spacing" textLength="58" x="31" y="419.527">paper type</text><text fill="#000000" font-family="sans-serif" font-size="12" lengthAdjust="spacing" textLength="43" x="31" y="433.9271">abstract</text><text fill="#000000" font-family="sans-serif" font-size="12" lengthAdjust="spacing" textLength="52" x="31" y="448.3272">keywords</text><rect fill="#FEFECE" filter="url(#f2abg5lkf62gd)" height="34.4001" rx="12.5" ry="12.5" style="stroke:#A80036;stroke-width:1.5;" width="83" x="41.5" y="741.6484"/><text fill="#000000" font-family="sans-serif" font-size="12" lengthAdjust="spacing" textLength="63" x="51.5" y="762.7964">submit form</text><ellipse cx="83" cy="915.8487" fill="#FFFFFF" filter="url(#f2abg5lkf62gd)" rx="11" ry="11" style="stroke:#000000;stroke-width:1.0;"/><ellipse cx="83" cy="915.8487" fill="#000000" rx="6" ry="6" style="stroke:#7F7F7F;stroke-width:1.0;"/><line style="stroke:#000000;stroke-width:2.0;" x1="15" x2="15" y1="13.378" y2="926.8487"/><rect fill="#FEFECE" filter="url(#f2abg5lkf62gd)" height="34.4001" rx="12.5" ry="12.5" style="stroke:#A80036;stroke-width:1.5;" width="112" x="217" y="134.3779"/><text fill="#000000" font-family="sans-serif" font-size="12" lengthAdjust="spacing" textLength="92" x="227" y="155.526">verify credentials</text><rect fill="#000000" filter="url(#f2abg5lkf62gd)" height="6" rx="2.5" ry="2.5" style="stroke:#000000;stroke-width:1.0;" width="226" x="161" y="545.2797"/><rect fill="#FEFECE" filter="url(#f2abg5lkf62gd)" height="34.4001" rx="12.5" ry="12.5" style="stroke:#A80036;stroke-width:1.5;" width="95" x="173" y="571.2797"/><text fill="#000000" font-family="sans-serif" font-size="12" lengthAdjust="spacing" textLength="75" x="183" y="592.4278">validate fields</text><rect fill="#FEFECE" filter="url(#f2abg5lkf62gd)" height="34.4001" rx="12.5" ry="12.5" style="stroke:#A80036;stroke-width:1.5;" width="77" x="296" y="571.2797"/><text fill="#000000" font-family="sans-serif" font-size="12" lengthAdjust="spacing" textLength="57" x="306" y="592.4278">upload file</text><rect fill="#000000" filter="url(#f2abg5lkf62gd)" height="6" rx="2.5" ry="2.5" style="stroke:#000000;stroke-width:1.0;" width="226" x="161" y="625.6798"/><polygon fill="#FEFECE" filter="url(#f2abg5lkf62gd)" points="222,651.6798,324,651.6798,336,678.0796,324,704.4794,222,704.4794,210,678.0796,222,651.6798" style="stroke:#A80036;stroke-width:1.5;"/><text fill="#000000" font-family="sans-serif" font-size="11" lengthAdjust="spacing" textLength="64" x="222" y="661.8987">form is valid?</text><text fill="#000000" font-family="sans-serif" font-size="11" lengthAdjust="spacing" textLength="72" x="222" y="675.0986">fields not blank</text><text fill="#000000" font-family="sans-serif" font-size="11" lengthAdjust="spacing" textLength="51" x="222" y="688.2985">PDF,Word</text><text fill="#000000" font-family="sans-serif" font-size="11" lengthAdjust="spacing" textLength="102" x="222" y="701.4984">LaTeX,filesize&lt;=7MB</text><text fill="#000000" font-family="sans-serif" font-size="11" lengthAdjust="spacing" textLength="138" x="336" y="675.0986">no, show red error message</text><rect fill="#FEFECE" filter="url(#f2abg5lkf62gd)" height="34.4001" rx="12.5" ry="12.5" style="stroke:#A80036;stroke-width:1.5;" width="137" x="204.5" y="796.0485"/><text fill="#000000" font-family="sans-serif" font-size="12" lengthAdjust="spacing" textLength="117" x="214.5" y="817.1965">send form to backend</text><line style="stroke:#000000;stroke-width:2.0;" x1="155" x2="155" y1="13.378" y2="926.8487"/><rect fill="#FEFECE" filter="url(#f2abg5lkf62gd)" height="34.4001" rx="12.5" ry="12.5" style="stroke:#A80036;stroke-width:1.5;" width="100" x="505.5" y="188.778"/><text fill="#000000" font-family="sans-serif" font-size="12" lengthAdjust="spacing" textLength="80" x="515.5" y="209.9261">get credentials</text><rect fill="#FEFECE" filter="url(#f2abg5lkf62gd)" height="34.4001" rx="12.5" ry="12.5" style="stroke:#A80036;stroke-width:1.5;" width="141" x="485" y="850.4486"/><text fill="#000000" font-family="sans-serif" font-size="12" lengthAdjust="spacing" textLength="121" x="495" y="871.5966">store form in database</text><line style="stroke:#000000;stroke-width:2.0;" x1="479" x2="479" y1="13.378" y2="926.8487"/><line style="stroke:#000000;stroke-width:2.0;" x1="636" x2="636" y1="13.378" y2="926.8487"/><line style="stroke:#A80036;stroke-width:1.5;" x1="83" x2="83" y1="59.9778" y2="79.9778"/><polygon fill="#A80036" points="79,69.9778,83,79.9778,87,69.9778,83,73.9778" style="stroke:#A80036;stroke-width:1.0;"/><line style="stroke:#A80036;stroke-width:1.5;" x1="83" x2="83" y1="461.5792" y2="481.5792"/><polygon fill="#A80036" points="79,471.5792,83,481.5792,87,471.5792,83,475.5792" style="stroke:#A80036;stroke-width:1.0;"/><line style="stroke:#A80036;stroke-width:1.5;" x1="83" x2="83" y1="277.5782" y2="297.5782"/><polygon fill="#A80036" points="79,287.5782,83,297.5782,87,287.5782,83,291.5782" style="stroke:#A80036;stroke-width:1.0;"/><line style="stroke:#A80036;stroke-width:1.5;" x1="220.5" x2="220.5" y1="551.2797" y2="571.2797"/><polygon fill="#A80036" points="216.5,561.2797,220.5,571.2797,224.5,561.2797,220.5,565.2797" style="stroke:#A80036;stroke-width:1.0;"/><line style="stroke:#A80036;stroke-width:1.5;" x1="334.5" x2="334.5" y1="551.2797" y2="571.2797"/><polygon fill="#A80036" points="330.5,561.2797,334.5,571.2797,338.5,561.2797,334.5,565.2797" style="stroke:#A80036;stroke-width:1.0;"/><line style="stroke:#A80036;stroke-width:1.5;" x1="220.5" x2="220.5" y1="605.6798" y2="625.6798"/><polygon fill="#A80036" points="216.5,615.6798,220.5,625.6798,224.5,615.6798,220.5,619.6798" style="stroke:#A80036;stroke-width:1.0;"/><line style="stroke:#A80036;stroke-width:1.5;" x1="334.5" x2="334.5" y1="605.6798" y2="625.6798"/><polygon fill="#A80036" points="330.5,615.6798,334.5,625.6798,338.5,615.6798,334.5,619.6798" style="stroke:#A80036;stroke-width:1.0;"/><line style="stroke:#A80036;stroke-width:1.5;" x1="273" x2="273" y1="631.6798" y2="651.6798"/><polygon fill="#A80036" points="269,641.6798,273,651.6798,277,641.6798,273,645.6798" style="stroke:#A80036;stroke-width:1.0;"/><line style="stroke:#A80036;stroke-width:1.5;" x1="83" x2="83" y1="114.3779" y2="119.3779"/><line style="stroke:#A80036;stroke-width:1.5;" x1="83" x2="273" y1="119.3779" y2="119.3779"/><line style="stroke:#A80036;stroke-width:1.5;" x1="273" x2="273" y1="119.3779" y2="134.3779"/><polygon fill="#A80036" points="269,124.3779,273,134.3779,277,124.3779,273,128.3779" style="stroke:#A80036;stroke-width:1.0;"/><line style="stroke:#A80036;stroke-width:1.5;" x1="273" x2="273" y1="168.778" y2="173.778"/><line style="stroke:#A80036;stroke-width:1.5;" x1="273" x2="555.5" y1="173.778" y2="173.778"/><line style="stroke:#A80036;stroke-width:1.5;" x1="555.5" x2="555.5" y1="173.778" y2="188.778"/><polygon fill="#A80036" points="551.5,178.778,555.5,188.778,559.5,178.778,555.5,182.778" style="stroke:#A80036;stroke-width:1.0;"/><line style="stroke:#A80036;stroke-width:1.5;" x1="555.5" x2="555.5" y1="223.1781" y2="228.1781"/><line style="stroke:#A80036;stroke-width:1.5;" x1="555.5" x2="83" y1="228.1781" y2="228.1781"/><line style="stroke:#A80036;stroke-width:1.5;" x1="83" x2="83" y1="228.1781" y2="243.1781"/><polygon fill="#A80036" points="79,233.1781,83,243.1781,87,233.1781,83,237.1781" style="stroke:#A80036;stroke-width:1.0;"/><line style="stroke:#A80036;stroke-width:1.5;" x1="83" x2="83" y1="515.9793" y2="527.7797"/><line style="stroke:#A80036;stroke-width:1.5;" x1="83" x2="273" y1="527.7797" y2="527.7797"/><line style="stroke:#A80036;stroke-width:1.5;" x1="273" x2="273" y1="527.7797" y2="545.2797"/><polygon fill="#A80036" points="269,535.2797,273,545.2797,277,535.2797,273,539.2797" style="stroke:#A80036;stroke-width:1.0;"/><line style="stroke:#A80036;stroke-width:1.5;" x1="336" x2="399" y1="678.0796" y2="678.0796"/><polygon fill="#A80036" points="395,535.9793,399,525.9793,403,535.9793,399,531.9793" style="stroke:#A80036;stroke-width:1.5;"/><line style="stroke:#A80036;stroke-width:1.5;" x1="399" x2="399" y1="379.5787" y2="678.0796"/><line style="stroke:#A80036;stroke-width:1.5;" x1="399" x2="145" y1="379.5787" y2="379.5787"/><polygon fill="#A80036" points="155,375.5787,145,379.5787,155,383.5787,151,379.5787" style="stroke:#A80036;stroke-width:1.0;"/><line style="stroke:#A80036;stroke-width:1.5;" x1="273" x2="273" y1="704.4794" y2="726.6484"/><line style="stroke:#A80036;stroke-width:1.5;" x1="273" x2="83" y1="726.6484" y2="726.6484"/><line style="stroke:#A80036;stroke-width:1.5;" x1="83" x2="83" y1="726.6484" y2="741.6484"/><polygon fill="#A80036" points="79,731.6484,83,741.6484,87,731.6484,83,735.6484" style="stroke:#A80036;stroke-width:1.0;"/><text fill="#000000" font-family="sans-serif" font-size="11" lengthAdjust="spacing" textLength="18" x="277" y="720.1484">yes</text><line style="stroke:#A80036;stroke-width:1.5;" x1="83" x2="83" y1="776.0485" y2="781.0485"/><line style="stroke:#A80036;stroke-width:1.5;" x1="83" x2="273" y1="781.0485" y2="781.0485"/><line style="stroke:#A80036;stroke-width:1.5;" x1="273" x2="273" y1="781.0485" y2="796.0485"/><polygon fill="#A80036" points="269,786.0485,273,796.0485,277,786.0485,273,790.0485" style="stroke:#A80036;stroke-width:1.0;"/><line style="stroke:#A80036;stroke-width:1.5;" x1="273" x2="273" y1="830.4486" y2="835.4486"/><line style="stroke:#A80036;stroke-width:1.5;" x1="273" x2="555.5" y1="835.4486" y2="835.4486"/><line style="stroke:#A80036;stroke-width:1.5;" x1="555.5" x2="555.5" y1="835.4486" y2="850.4486"/><polygon fill="#A80036" points="551.5,840.4486,555.5,850.4486,559.5,840.4486,555.5,844.4486" style="stroke:#A80036;stroke-width:1.0;"/><line style="stroke:#A80036;stroke-width:1.5;" x1="555.5" x2="555.5" y1="884.8487" y2="889.8487"/><line style="stroke:#A80036;stroke-width:1.5;" x1="555.5" x2="83" y1="889.8487" y2="889.8487"/><line style="stroke:#A80036;stroke-width:1.5;" x1="83" x2="83" y1="889.8487" y2="904.8487"/><polygon fill="#A80036" points="79,894.8487,83,904.8487,87,894.8487,83,898.8487" style="stroke:#A80036;stroke-width:1.0;"/><text fill="#000000" font-family="sans-serif" font-size="18" lengthAdjust="spacing" textLength="14" x="78" y="30.0999">ui</text><text fill="#000000" font-family="sans-serif" font-size="18" lengthAdjust="spacing" textLength="50" x="292" y="30.0999">server</text><text fill="#000000" font-family="sans-serif" font-size="18" lengthAdjust="spacing" textLength="20" x="547.5" y="30.0999">db</text><!--MD5=[6de7a5d476511aadf83cefbbf4ff8c6b]
@startuml
|ui|
start
:login;

|server|
:verify credentials;

|db|
:get credentials;

|ui|
:submit manuscript;

'|server|
'':get submission form;

|ui|
repeat :fill submission form\nauthor name\naffiliations\nauthors\norder\npaper\nscope\npaper type\nabstract\nkeywords;
:browse file;

|server|
fork
    :validate fields;
fork again
    :upload file;
end fork


repeat while (form is valid?\nfields not blank\nPDF,Word\nLaTeX,filesize<=7MB) is (no, show red error message)
-> yes;

|ui|
:submit form;

|server|
:send form to backend;

|db|
:store form in database;

|ui|
stop

@enduml

@startuml
|ui|
start
:login;

|server|
:verify credentials;

|db|
:get credentials;

|ui|
:submit manuscript;


|ui|
repeat :fill submission form\nauthor name\naffiliations\nauthors\norder\npaper\nscope\npaper type\nabstract\nkeywords;
:browse file;

|server|
fork
    :validate fields;
fork again
    :upload file;
end fork


repeat while (form is valid?\nfields not blank\nPDF,Word\nLaTeX,filesize<=7MB) is (no, show red error message)
-> yes;

|ui|
:submit form;

|server|
:send form to backend;

|db|
:store form in database;

|ui|
stop

@enduml

PlantUML version 1.2021.00(Sun Jan 10 03:25:05 MST 2021)
(GPL source distribution)
Java Runtime: OpenJDK Runtime Environment
JVM: OpenJDK 64-Bit Server VM
Default Encoding: UTF-8
Language: en
Country: CA
--></g></svg>