<?xml version="1.0" encoding="UTF-8" standalone="no"?><svg xmlns="http://www.w3.org/2000/svg" xmlns:xlink="http://www.w3.org/1999/xlink" contentScriptType="application/ecmascript" contentStyleType="text/css" height="322px" preserveAspectRatio="none" style="width:1282px;height:322px;" version="1.1" viewBox="0 0 1282 322" width="1282px" zoomAndPan="magnify"><defs><filter height="300%" id="fekdsfrnkw8z9" width="300%" x="-1" y="-1"><feGaussianBlur result="blurOut" stdDeviation="2.0"/><feColorMatrix in="blurOut" result="blurOut2" type="matrix" values="0 0 0 0 0 0 0 0 0 0 0 0 0 0 0 0 0 0 .4 0"/><feOffset dx="4.0" dy="4.0" in="blurOut2" result="blurOut3"/><feBlend in="SourceGraphic" in2="blurOut3" mode="normal"/></filter></defs><g><!--MD5=[3fd616f346a44cd59a91eb10b19e157c]
class User--><rect codeLine="2" fill="#FEFECE" filter="url(#fekdsfrnkw8z9)" height="140.3993" id="User" style="stroke:#A80036;stroke-width:1.5;" width="272" x="649" y="14"/><ellipse cx="767.75" cy="30" fill="#ADD1B2" rx="11" ry="11" style="stroke:#A80036;stroke-width:1.0;"/><path d="M762.75,31.1563 C762.75,33.6563 764.8906,35.4688 767.8125,35.4688 C769.0469,35.4688 770.2188,35.1719 770.9688,34.6563 C771.5781,34.2344 771.9063,33.8125 771.9063,33.4063 C771.9063,32.9375 771.4844,32.5313 770.9844,32.5313 C770.75,32.5313 770.5313,32.6094 770.3281,32.8125 C769.8906,33.25 769.8906,33.25 769.7188,33.3438 C769.2656,33.5781 768.625,33.7188 767.8594,33.7188 C765.8594,33.7188 764.5781,32.7031 764.5781,31.125 L764.5781,30.0781 C764.5781,28.375 765.7969,27.1719 767.5,27.1719 C768.0781,27.1719 768.6563,27.3125 769.125,27.5625 C769.5938,27.8281 769.7656,28.0156 769.8281,28.375 C769.9531,29.0469 770.2031,29.2969 770.7344,29.2969 C771.0156,29.2969 771.2969,29.1563 771.4844,28.9375 C771.6094,28.7656 771.6563,28.5938 771.6563,28.1563 L771.6563,26.7969 C771.6563,26.375 771.6406,26.2344 771.5156,26.0625 C771.3438,25.8125 771.0625,25.6563 770.7344,25.6563 C770.4219,25.6563 770.2188,25.7656 770,26.0313 C768.8281,25.5313 768.3906,25.4219 767.4375,25.4219 C764.7656,25.4219 762.75,27.4375 762.75,30.0625 L762.75,31.1563 Z " fill="#000000"/><text fill="#000000" font-family="sans-serif" font-size="12" lengthAdjust="spacing" textLength="26" x="788.25" y="33.948">User</text><line style="stroke:#A80036;stroke-width:1.5;" x1="650" x2="920" y1="46" y2="46"/><ellipse cx="660" cy="57" fill="none" rx="3" ry="3" style="stroke:#038048;stroke-width:1.0;"/><text fill="#000000" font-family="sans-serif" font-size="11" lengthAdjust="spacing" textLength="25" x="669" y="60.2189">email</text><ellipse cx="660" cy="70.1999" fill="none" rx="3" ry="3" style="stroke:#038048;stroke-width:1.0;"/><text fill="#000000" font-family="sans-serif" font-size="11" lengthAdjust="spacing" textLength="49" x="669" y="73.4188">username</text><rect fill="none" height="6" style="stroke:#C82930;stroke-width:1.0;" width="6" x="657" y="80.3998"/><text fill="#000000" font-family="sans-serif" font-size="11" lengthAdjust="spacing" textLength="48" x="669" y="86.6187">password</text><line style="stroke:#A80036;stroke-width:1.5;" x1="650" x2="920" y1="93.5997" y2="93.5997"/><ellipse cx="660" cy="104.5997" fill="#84BE84" rx="3" ry="3" style="stroke:#038048;stroke-width:1.0;"/><text fill="#000000" font-family="sans-serif" font-size="11" lengthAdjust="spacing" textLength="179" x="669" y="107.8186">register(email, username, password)</text><ellipse cx="660" cy="117.7996" fill="#84BE84" rx="3" ry="3" style="stroke:#038048;stroke-width:1.0;"/><text fill="#000000" font-family="sans-serif" font-size="11" lengthAdjust="spacing" textLength="133" x="669" y="121.0185">login(username, password)</text><ellipse cx="660" cy="130.9995" fill="#84BE84" rx="3" ry="3" style="stroke:#038048;stroke-width:1.0;"/><text fill="#000000" font-family="sans-serif" font-size="11" lengthAdjust="spacing" textLength="246" x="669" y="134.2184">change_password(old_password, new_password)</text><ellipse cx="660" cy="144.1994" fill="#84BE84" rx="3" ry="3" style="stroke:#038048;stroke-width:1.0;"/><text fill="#000000" font-family="sans-serif" font-size="11" lengthAdjust="spacing" textLength="86" x="669" y="147.4183">pay_attendance()</text><!--MD5=[91317c4b0dc3b2bac47a1c34dc0d51ca]
class Administrator/Editor--><rect codeLine="13" fill="#FEFECE" filter="url(#fekdsfrnkw8z9)" height="87.5997" id="Administrator/Editor" style="stroke:#A80036;stroke-width:1.5;" width="173" x="519.5" y="221"/><ellipse cx="549.8" cy="237" fill="#ADD1B2" rx="11" ry="11" style="stroke:#A80036;stroke-width:1.0;"/><path d="M544.8,238.1563 C544.8,240.6563 546.9406,242.4688 549.8625,242.4688 C551.0969,242.4688 552.2688,242.1719 553.0188,241.6563 C553.6281,241.2344 553.9563,240.8125 553.9563,240.4063 C553.9563,239.9375 553.5344,239.5313 553.0344,239.5313 C552.8,239.5313 552.5813,239.6094 552.3781,239.8125 C551.9406,240.25 551.9406,240.25 551.7688,240.3438 C551.3156,240.5781 550.675,240.7188 549.9094,240.7188 C547.9094,240.7188 546.6281,239.7031 546.6281,238.125 L546.6281,237.0781 C546.6281,235.375 547.8469,234.1719 549.55,234.1719 C550.1281,234.1719 550.7063,234.3125 551.175,234.5625 C551.6438,234.8281 551.8156,235.0156 551.8781,235.375 C552.0031,236.0469 552.2531,236.2969 552.7844,236.2969 C553.0656,236.2969 553.3469,236.1563 553.5344,235.9375 C553.6594,235.7656 553.7063,235.5938 553.7063,235.1563 L553.7063,233.7969 C553.7063,233.375 553.6906,233.2344 553.5656,233.0625 C553.3938,232.8125 553.1125,232.6563 552.7844,232.6563 C552.4719,232.6563 552.2688,232.7656 552.05,233.0313 C550.8781,232.5313 550.4406,232.4219 549.4875,232.4219 C546.8156,232.4219 544.8,234.4375 544.8,237.0625 L544.8,238.1563 Z " fill="#000000"/><text fill="#000000" font-family="sans-serif" font-size="12" lengthAdjust="spacing" textLength="107" x="567.2" y="240.948">Administrator/Editor</text><line style="stroke:#A80036;stroke-width:1.5;" x1="520.5" x2="691.5" y1="253" y2="253"/><line style="stroke:#A80036;stroke-width:1.5;" x1="520.5" x2="691.5" y1="261" y2="261"/><ellipse cx="530.5" cy="272" fill="#84BE84" rx="3" ry="3" style="stroke:#038048;stroke-width:1.0;"/><text fill="#000000" font-family="sans-serif" font-size="11" lengthAdjust="spacing" textLength="147" x="539.5" y="275.2189">assign_referee(referee_email)</text><ellipse cx="530.5" cy="285.1999" fill="#84BE84" rx="3" ry="3" style="stroke:#038048;stroke-width:1.0;"/><text fill="#000000" font-family="sans-serif" font-size="11" lengthAdjust="spacing" textLength="81" x="539.5" y="288.4188">make_decision()</text><ellipse cx="530.5" cy="298.3998" fill="#84BE84" rx="3" ry="3" style="stroke:#038048;stroke-width:1.0;"/><text fill="#000000" font-family="sans-serif" font-size="11" lengthAdjust="spacing" textLength="75" x="539.5" y="301.6187">edit_schedule()</text><!--MD5=[91837343f19ad6bb47ed4fe22d7145fa]
class Invitation--><rect codeLine="21" fill="#FEFECE" filter="url(#fekdsfrnkw8z9)" height="48" id="Invitation" style="stroke:#A80036;stroke-width:1.5;" width="81" x="15.5" y="60"/><ellipse cx="30.5" cy="76" fill="#ADD1B2" rx="11" ry="11" style="stroke:#A80036;stroke-width:1.0;"/><path d="M25.5,77.1563 C25.5,79.6563 27.6406,81.4688 30.5625,81.4688 C31.7969,81.4688 32.9688,81.1719 33.7188,80.6563 C34.3281,80.2344 34.6563,79.8125 34.6563,79.4063 C34.6563,78.9375 34.2344,78.5313 33.7344,78.5313 C33.5,78.5313 33.2813,78.6094 33.0781,78.8125 C32.6406,79.25 32.6406,79.25 32.4688,79.3438 C32.0156,79.5781 31.375,79.7188 30.6094,79.7188 C28.6094,79.7188 27.3281,78.7031 27.3281,77.125 L27.3281,76.0781 C27.3281,74.375 28.5469,73.1719 30.25,73.1719 C30.8281,73.1719 31.4063,73.3125 31.875,73.5625 C32.3438,73.8281 32.5156,74.0156 32.5781,74.375 C32.7031,75.0469 32.9531,75.2969 33.4844,75.2969 C33.7656,75.2969 34.0469,75.1563 34.2344,74.9375 C34.3594,74.7656 34.4063,74.5938 34.4063,74.1563 L34.4063,72.7969 C34.4063,72.375 34.3906,72.2344 34.2656,72.0625 C34.0938,71.8125 33.8125,71.6563 33.4844,71.6563 C33.1719,71.6563 32.9688,71.7656 32.75,72.0313 C31.5781,71.5313 31.1406,71.4219 30.1875,71.4219 C27.5156,71.4219 25.5,73.4375 25.5,76.0625 L25.5,77.1563 Z " fill="#000000"/><text fill="#000000" font-family="sans-serif" font-size="12" lengthAdjust="spacing" textLength="49" x="44.5" y="79.948">Invitation</text><line style="stroke:#A80036;stroke-width:1.5;" x1="16.5" x2="95.5" y1="92" y2="92"/><line style="stroke:#A80036;stroke-width:1.5;" x1="16.5" x2="95.5" y1="100" y2="100"/><!--MD5=[bf1eca890ab1a0beddc6a18f04912a2a]
class Referee--><rect codeLine="25" fill="#FEFECE" filter="url(#fekdsfrnkw8z9)" height="74.3998" id="Referee" style="stroke:#A80036;stroke-width:1.5;" width="115" x="727.5" y="228"/><ellipse cx="760.05" cy="244" fill="#ADD1B2" rx="11" ry="11" style="stroke:#A80036;stroke-width:1.0;"/><path d="M755.05,245.1563 C755.05,247.6563 757.1906,249.4688 760.1125,249.4688 C761.3469,249.4688 762.5188,249.1719 763.2688,248.6563 C763.8781,248.2344 764.2063,247.8125 764.2063,247.4063 C764.2063,246.9375 763.7844,246.5313 763.2844,246.5313 C763.05,246.5313 762.8313,246.6094 762.6281,246.8125 C762.1906,247.25 762.1906,247.25 762.0188,247.3438 C761.5656,247.5781 760.925,247.7188 760.1594,247.7188 C758.1594,247.7188 756.8781,246.7031 756.8781,245.125 L756.8781,244.0781 C756.8781,242.375 758.0969,241.1719 759.8,241.1719 C760.3781,241.1719 760.9563,241.3125 761.425,241.5625 C761.8938,241.8281 762.0656,242.0156 762.1281,242.375 C762.2531,243.0469 762.5031,243.2969 763.0344,243.2969 C763.3156,243.2969 763.5969,243.1563 763.7844,242.9375 C763.9094,242.7656 763.9563,242.5938 763.9563,242.1563 L763.9563,240.7969 C763.9563,240.375 763.9406,240.2344 763.8156,240.0625 C763.6438,239.8125 763.3625,239.6563 763.0344,239.6563 C762.7219,239.6563 762.5188,239.7656 762.3,240.0313 C761.1281,239.5313 760.6906,239.4219 759.7375,239.4219 C757.0656,239.4219 755.05,241.4375 755.05,244.0625 L755.05,245.1563 Z " fill="#000000"/><text fill="#000000" font-family="sans-serif" font-size="12" lengthAdjust="spacing" textLength="44" x="777.95" y="247.948">Referee</text><line style="stroke:#A80036;stroke-width:1.5;" x1="728.5" x2="841.5" y1="260" y2="260"/><line style="stroke:#A80036;stroke-width:1.5;" x1="728.5" x2="841.5" y1="268" y2="268"/><ellipse cx="738.5" cy="279" fill="#84BE84" rx="3" ry="3" style="stroke:#038048;stroke-width:1.0;"/><text fill="#000000" font-family="sans-serif" font-size="11" lengthAdjust="spacing" textLength="89" x="747.5" y="282.2189">accept_invitation()</text><ellipse cx="738.5" cy="292.1999" fill="#84BE84" rx="3" ry="3" style="stroke:#038048;stroke-width:1.0;"/><text fill="#000000" font-family="sans-serif" font-size="11" lengthAdjust="spacing" textLength="83" x="747.5" y="295.4188">evaluate_paper()</text><!--MD5=[584fe7c73fe9fcdaa9287afaa70dc801]
class DatabaseHelper--><rect codeLine="30" fill="#FEFECE" filter="url(#fekdsfrnkw8z9)" height="100.7996" id="DatabaseHelper" style="stroke:#A80036;stroke-width:1.5;" width="300" x="131" y="33.5"/><ellipse cx="231.75" cy="49.5" fill="#ADD1B2" rx="11" ry="11" style="stroke:#A80036;stroke-width:1.0;"/><path d="M226.75,50.6563 C226.75,53.1563 228.8906,54.9688 231.8125,54.9688 C233.0469,54.9688 234.2188,54.6719 234.9688,54.1563 C235.5781,53.7344 235.9063,53.3125 235.9063,52.9063 C235.9063,52.4375 235.4844,52.0313 234.9844,52.0313 C234.75,52.0313 234.5313,52.1094 234.3281,52.3125 C233.8906,52.75 233.8906,52.75 233.7188,52.8438 C233.2656,53.0781 232.625,53.2188 231.8594,53.2188 C229.8594,53.2188 228.5781,52.2031 228.5781,50.625 L228.5781,49.5781 C228.5781,47.875 229.7969,46.6719 231.5,46.6719 C232.0781,46.6719 232.6563,46.8125 233.125,47.0625 C233.5938,47.3281 233.7656,47.5156 233.8281,47.875 C233.9531,48.5469 234.2031,48.7969 234.7344,48.7969 C235.0156,48.7969 235.2969,48.6563 235.4844,48.4375 C235.6094,48.2656 235.6563,48.0938 235.6563,47.6563 L235.6563,46.2969 C235.6563,45.875 235.6406,45.7344 235.5156,45.5625 C235.3438,45.3125 235.0625,45.1563 234.7344,45.1563 C234.4219,45.1563 234.2188,45.2656 234,45.5313 C232.8281,45.0313 232.3906,44.9219 231.4375,44.9219 C228.7656,44.9219 226.75,46.9375 226.75,49.5625 L226.75,50.6563 Z " fill="#000000"/><text fill="#000000" font-family="sans-serif" font-size="12" lengthAdjust="spacing" textLength="90" x="252.25" y="53.448">DatabaseHelper</text><line style="stroke:#A80036;stroke-width:1.5;" x1="132" x2="430" y1="65.5" y2="65.5"/><rect fill="none" height="6" style="stroke:#C82930;stroke-width:1.0;" width="6" x="139" y="73.5"/><text fill="#000000" font-family="sans-serif" font-size="11" lengthAdjust="spacing" textLength="71" x="151" y="79.7189">db_connection</text><line style="stroke:#A80036;stroke-width:1.5;" x1="132" x2="430" y1="86.6999" y2="86.6999"/><ellipse cx="142" cy="97.6999" fill="#84BE84" rx="3" ry="3" style="stroke:#038048;stroke-width:1.0;"/><text fill="#000000" font-family="sans-serif" font-size="11" lengthAdjust="spacing" textLength="78" x="151" y="100.9188">new_user(user)</text><ellipse cx="142" cy="110.8998" fill="#84BE84" rx="3" ry="3" style="stroke:#038048;stroke-width:1.0;"/><text fill="#000000" font-family="sans-serif" font-size="11" lengthAdjust="spacing" textLength="197" x="151" y="114.1187">verify_credentials(username, password)</text><ellipse cx="142" cy="124.0997" fill="#84BE84" rx="3" ry="3" style="stroke:#038048;stroke-width:1.0;"/><text fill="#000000" font-family="sans-serif" font-size="11" lengthAdjust="spacing" textLength="274" x="151" y="127.3186">change_password(user, old_password, new_password)</text><!--MD5=[3c869272fffd0e2979c8401985227125]
class PaperSubmission--><rect codeLine="39" fill="#FEFECE" filter="url(#fekdsfrnkw8z9)" height="153.5992" id="PaperSubmission" style="stroke:#A80036;stroke-width:1.5;" width="147" x="466.5" y="7"/><ellipse cx="489.6" cy="23" fill="#ADD1B2" rx="11" ry="11" style="stroke:#A80036;stroke-width:1.0;"/><path d="M484.6,24.1563 C484.6,26.6563 486.7406,28.4688 489.6625,28.4688 C490.8969,28.4688 492.0688,28.1719 492.8188,27.6563 C493.4281,27.2344 493.7563,26.8125 493.7563,26.4063 C493.7563,25.9375 493.3344,25.5313 492.8344,25.5313 C492.6,25.5313 492.3813,25.6094 492.1781,25.8125 C491.7406,26.25 491.7406,26.25 491.5688,26.3438 C491.1156,26.5781 490.475,26.7188 489.7094,26.7188 C487.7094,26.7188 486.4281,25.7031 486.4281,24.125 L486.4281,23.0781 C486.4281,21.375 487.6469,20.1719 489.35,20.1719 C489.9281,20.1719 490.5063,20.3125 490.975,20.5625 C491.4438,20.8281 491.6156,21.0156 491.6781,21.375 C491.8031,22.0469 492.0531,22.2969 492.5844,22.2969 C492.8656,22.2969 493.1469,22.1563 493.3344,21.9375 C493.4594,21.7656 493.5063,21.5938 493.5063,21.1563 L493.5063,19.7969 C493.5063,19.375 493.4906,19.2344 493.3656,19.0625 C493.1938,18.8125 492.9125,18.6563 492.5844,18.6563 C492.2719,18.6563 492.0688,18.7656 491.85,19.0313 C490.6781,18.5313 490.2406,18.4219 489.2875,18.4219 C486.6156,18.4219 484.6,20.4375 484.6,23.0625 L484.6,24.1563 Z " fill="#000000"/><text fill="#000000" font-family="sans-serif" font-size="12" lengthAdjust="spacing" textLength="97" x="505.4" y="26.948">PaperSubmission</text><line style="stroke:#A80036;stroke-width:1.5;" x1="467.5" x2="612.5" y1="39" y2="39"/><ellipse cx="477.5" cy="50" fill="none" rx="3" ry="3" style="stroke:#038048;stroke-width:1.0;"/><text fill="#000000" font-family="sans-serif" font-size="11" lengthAdjust="spacing" textLength="121" x="486.5" y="53.2189">paper_type: PaperTypes</text><ellipse cx="477.5" cy="63.1999" fill="none" rx="3" ry="3" style="stroke:#038048;stroke-width:1.0;"/><text fill="#000000" font-family="sans-serif" font-size="11" lengthAdjust="spacing" textLength="68" x="486.5" y="66.4188">file: FileObject</text><ellipse cx="477.5" cy="76.3998" fill="none" rx="3" ry="3" style="stroke:#038048;stroke-width:1.0;"/><text fill="#000000" font-family="sans-serif" font-size="11" lengthAdjust="spacing" textLength="54" x="486.5" y="79.6187">key_words</text><ellipse cx="477.5" cy="89.5997" fill="none" rx="3" ry="3" style="stroke:#038048;stroke-width:1.0;"/><text fill="#000000" font-family="sans-serif" font-size="11" lengthAdjust="spacing" textLength="40" x="486.5" y="92.8186">abstract</text><ellipse cx="477.5" cy="102.7996" fill="none" rx="3" ry="3" style="stroke:#038048;stroke-width:1.0;"/><text fill="#000000" font-family="sans-serif" font-size="11" lengthAdjust="spacing" textLength="63" x="486.5" y="106.0185">main_source</text><line style="stroke:#A80036;stroke-width:1.5;" x1="467.5" x2="612.5" y1="112.9995" y2="112.9995"/><rect fill="#F24D5C" height="6" style="stroke:#C82930;stroke-width:1.0;" width="6" x="474.5" y="120.9995"/><text fill="#000000" font-family="sans-serif" font-size="11" lengthAdjust="spacing" textLength="106" x="486.5" y="127.2184">validate_submission()</text><ellipse cx="477.5" cy="137.1994" fill="#84BE84" rx="3" ry="3" style="stroke:#038048;stroke-width:1.0;"/><text fill="#000000" font-family="sans-serif" font-size="11" lengthAdjust="spacing" textLength="93" x="486.5" y="140.4183">save_submission()</text><ellipse cx="477.5" cy="150.3993" fill="#84BE84" rx="3" ry="3" style="stroke:#038048;stroke-width:1.0;"/><text fill="#000000" font-family="sans-serif" font-size="11" lengthAdjust="spacing" textLength="40" x="486.5" y="153.6182">submit()</text><!--MD5=[e10a8d9afb135e737e069cdca99f4c7c]
class PaperTypes--><rect codeLine="51" fill="#FEFECE" filter="url(#fekdsfrnkw8z9)" height="87.5997" id="PaperTypes" style="stroke:#A80036;stroke-width:1.5;" width="98" x="7" y="221"/><ellipse cx="22" cy="237" fill="#EB937F" rx="11" ry="11" style="stroke:#A80036;stroke-width:1.0;"/><path d="M20.8594,238.0625 L22.1719,238.0625 L22.1719,238.1094 C22.1719,238.5156 22.1875,238.6719 22.2969,238.8281 C22.4688,239.0781 22.7656,239.25 23.0781,239.25 C23.3594,239.25 23.6563,239.1094 23.8281,238.8906 C23.9531,238.7031 24,238.5625 24,238.1094 L24,236.2656 C24,235.9375 23.9844,235.8281 23.9219,235.6563 C23.8125,235.3594 23.4531,235.1094 23.0781,235.1094 C22.7813,235.1094 22.5156,235.25 22.3438,235.4688 C22.2031,235.6563 22.1719,235.8281 22.1719,236.2656 L22.1719,236.3281 L20.8594,236.3281 L20.8594,234.1563 L24.7031,234.1563 L24.7031,234.9063 C24.7031,235.2969 24.7344,235.4844 24.8438,235.6406 C25.0156,235.8906 25.3125,236.0625 25.625,236.0625 C25.9219,236.0625 26.1875,235.9375 26.375,235.7031 C26.5156,235.5156 26.5469,235.375 26.5469,234.9063 L26.5469,232.4063 L18.8438,232.4063 C18.3906,232.4063 18.2656,232.4219 18.0938,232.5313 C17.8281,232.7031 17.6563,232.9688 17.6563,233.2813 C17.6563,233.5625 17.7813,233.8281 18.0313,234 C18.2188,234.125 18.4063,234.1563 18.8438,234.1563 L19.0313,234.1563 L19.0313,240.25 L18.8438,240.25 C18.4219,240.25 18.2656,240.2813 18.0938,240.375 C17.8281,240.5313 17.6563,240.8125 17.6563,241.1094 C17.6563,241.6875 18.0625,242 18.8438,242 L26.9219,242 L26.9219,239.4688 C26.9219,239.0625 26.8906,238.8906 26.7813,238.7344 C26.6094,238.4688 26.3281,238.3125 26,238.3125 C25.7188,238.3125 25.4375,238.4531 25.25,238.6719 C25.1094,238.8594 25.0781,239.0156 25.0781,239.4688 L25.0781,240.25 L20.8594,240.25 L20.8594,238.0625 Z " fill="#000000"/><text fill="#000000" font-family="sans-serif" font-size="12" lengthAdjust="spacing" textLength="66" x="36" y="240.948">PaperTypes</text><line style="stroke:#A80036;stroke-width:1.5;" x1="8" x2="104" y1="253" y2="253"/><text fill="#000000" font-family="sans-serif" font-size="11" lengthAdjust="spacing" textLength="22" x="13" y="267.2189">PDF</text><text fill="#000000" font-family="sans-serif" font-size="11" lengthAdjust="spacing" textLength="26" x="13" y="280.4188">Word</text><text fill="#000000" font-family="sans-serif" font-size="11" lengthAdjust="spacing" textLength="32" x="13" y="293.6187">LaTeX</text><line style="stroke:#A80036;stroke-width:1.5;" x1="8" x2="104" y1="300.5997" y2="300.5997"/><!--MD5=[69df298ea87f9c215e1af63b3c3f8a20]
class AuthorDetails--><rect codeLine="57" fill="#FEFECE" filter="url(#fekdsfrnkw8z9)" height="87.5997" id="AuthorDetails" style="stroke:#A80036;stroke-width:1.5;" width="121" x="140.5" y="221"/><ellipse cx="162.25" cy="237" fill="#ADD1B2" rx="11" ry="11" style="stroke:#A80036;stroke-width:1.0;"/><path d="M157.25,238.1563 C157.25,240.6563 159.3906,242.4688 162.3125,242.4688 C163.5469,242.4688 164.7188,242.1719 165.4688,241.6563 C166.0781,241.2344 166.4063,240.8125 166.4063,240.4063 C166.4063,239.9375 165.9844,239.5313 165.4844,239.5313 C165.25,239.5313 165.0313,239.6094 164.8281,239.8125 C164.3906,240.25 164.3906,240.25 164.2188,240.3438 C163.7656,240.5781 163.125,240.7188 162.3594,240.7188 C160.3594,240.7188 159.0781,239.7031 159.0781,238.125 L159.0781,237.0781 C159.0781,235.375 160.2969,234.1719 162,234.1719 C162.5781,234.1719 163.1563,234.3125 163.625,234.5625 C164.0938,234.8281 164.2656,235.0156 164.3281,235.375 C164.4531,236.0469 164.7031,236.2969 165.2344,236.2969 C165.5156,236.2969 165.7969,236.1563 165.9844,235.9375 C166.1094,235.7656 166.1563,235.5938 166.1563,235.1563 L166.1563,233.7969 C166.1563,233.375 166.1406,233.2344 166.0156,233.0625 C165.8438,232.8125 165.5625,232.6563 165.2344,232.6563 C164.9219,232.6563 164.7188,232.7656 164.5,233.0313 C163.3281,232.5313 162.8906,232.4219 161.9375,232.4219 C159.2656,232.4219 157.25,234.4375 157.25,237.0625 L157.25,238.1563 Z " fill="#000000"/><text fill="#000000" font-family="sans-serif" font-size="12" lengthAdjust="spacing" textLength="74" x="177.75" y="240.948">AuthorDetails</text><line style="stroke:#A80036;stroke-width:1.5;" x1="141.5" x2="260.5" y1="253" y2="253"/><ellipse cx="151.5" cy="264" fill="none" rx="3" ry="3" style="stroke:#038048;stroke-width:1.0;"/><text fill="#000000" font-family="sans-serif" font-size="11" lengthAdjust="spacing" textLength="27" x="160.5" y="267.2189">name</text><ellipse cx="151.5" cy="277.1999" fill="none" rx="3" ry="3" style="stroke:#038048;stroke-width:1.0;"/><text fill="#000000" font-family="sans-serif" font-size="11" lengthAdjust="spacing" textLength="41" x="160.5" y="280.4188">affiliation</text><ellipse cx="151.5" cy="290.3998" fill="none" rx="3" ry="3" style="stroke:#038048;stroke-width:1.0;"/><text fill="#000000" font-family="sans-serif" font-size="11" lengthAdjust="spacing" textLength="95" x="160.5" y="293.6187">contact_information</text><line style="stroke:#A80036;stroke-width:1.5;" x1="141.5" x2="260.5" y1="300.5997" y2="300.5997"/><!--MD5=[c3f280b58e8dd0683e81b8ec31306a35]
class Author--><rect codeLine="63" fill="#FEFECE" filter="url(#fekdsfrnkw8z9)" height="74.3998" id="Author" style="stroke:#A80036;stroke-width:1.5;" width="391" x="877.5" y="228"/><ellipse cx="1050.75" cy="244" fill="#ADD1B2" rx="11" ry="11" style="stroke:#A80036;stroke-width:1.0;"/><path d="M1045.75,245.1563 C1045.75,247.6563 1047.8906,249.4688 1050.8125,249.4688 C1052.0469,249.4688 1053.2188,249.1719 1053.9688,248.6563 C1054.5781,248.2344 1054.9063,247.8125 1054.9063,247.4063 C1054.9063,246.9375 1054.4844,246.5313 1053.9844,246.5313 C1053.75,246.5313 1053.5313,246.6094 1053.3281,246.8125 C1052.8906,247.25 1052.8906,247.25 1052.7188,247.3438 C1052.2656,247.5781 1051.625,247.7188 1050.8594,247.7188 C1048.8594,247.7188 1047.5781,246.7031 1047.5781,245.125 L1047.5781,244.0781 C1047.5781,242.375 1048.7969,241.1719 1050.5,241.1719 C1051.0781,241.1719 1051.6563,241.3125 1052.125,241.5625 C1052.5938,241.8281 1052.7656,242.0156 1052.8281,242.375 C1052.9531,243.0469 1053.2031,243.2969 1053.7344,243.2969 C1054.0156,243.2969 1054.2969,243.1563 1054.4844,242.9375 C1054.6094,242.7656 1054.6563,242.5938 1054.6563,242.1563 L1054.6563,240.7969 C1054.6563,240.375 1054.6406,240.2344 1054.5156,240.0625 C1054.3438,239.8125 1054.0625,239.6563 1053.7344,239.6563 C1053.4219,239.6563 1053.2188,239.7656 1053,240.0313 C1051.8281,239.5313 1051.3906,239.4219 1050.4375,239.4219 C1047.7656,239.4219 1045.75,241.4375 1045.75,244.0625 L1045.75,245.1563 Z " fill="#000000"/><text fill="#000000" font-family="sans-serif" font-size="12" lengthAdjust="spacing" textLength="36" x="1071.25" y="247.948">Author</text><line style="stroke:#A80036;stroke-width:1.5;" x1="878.5" x2="1267.5" y1="260" y2="260"/><line style="stroke:#A80036;stroke-width:1.5;" x1="878.5" x2="1267.5" y1="268" y2="268"/><ellipse cx="888.5" cy="279" fill="#84BE84" rx="3" ry="3" style="stroke:#038048;stroke-width:1.0;"/><text fill="#000000" font-family="sans-serif" font-size="11" lengthAdjust="spacing" textLength="365" x="897.5" y="282.2189">request_submission(author_information: List&lt;AuthorDetails&gt;, paper: Paper)</text><ellipse cx="888.5" cy="292.1999" fill="#84BE84" rx="3" ry="3" style="stroke:#038048;stroke-width:1.0;"/><text fill="#000000" font-family="sans-serif" font-size="11" lengthAdjust="spacing" textLength="93" x="897.5" y="295.4188">save_submission()</text><!--MD5=[c680266cf9e454ca06c2d1bb8b683e6b]
class Schedule--><rect codeLine="68" fill="#FEFECE" filter="url(#fekdsfrnkw8z9)" height="74.3998" id="Schedule" style="stroke:#A80036;stroke-width:1.5;" width="116" x="297" y="228"/><ellipse cx="326.4" cy="244" fill="#ADD1B2" rx="11" ry="11" style="stroke:#A80036;stroke-width:1.0;"/><path d="M321.4,245.1563 C321.4,247.6563 323.5406,249.4688 326.4625,249.4688 C327.6969,249.4688 328.8688,249.1719 329.6188,248.6563 C330.2281,248.2344 330.5563,247.8125 330.5563,247.4063 C330.5563,246.9375 330.1344,246.5313 329.6344,246.5313 C329.4,246.5313 329.1813,246.6094 328.9781,246.8125 C328.5406,247.25 328.5406,247.25 328.3688,247.3438 C327.9156,247.5781 327.275,247.7188 326.5094,247.7188 C324.5094,247.7188 323.2281,246.7031 323.2281,245.125 L323.2281,244.0781 C323.2281,242.375 324.4469,241.1719 326.15,241.1719 C326.7281,241.1719 327.3063,241.3125 327.775,241.5625 C328.2438,241.8281 328.4156,242.0156 328.4781,242.375 C328.6031,243.0469 328.8531,243.2969 329.3844,243.2969 C329.6656,243.2969 329.9469,243.1563 330.1344,242.9375 C330.2594,242.7656 330.3063,242.5938 330.3063,242.1563 L330.3063,240.7969 C330.3063,240.375 330.2906,240.2344 330.1656,240.0625 C329.9938,239.8125 329.7125,239.6563 329.3844,239.6563 C329.0719,239.6563 328.8688,239.7656 328.65,240.0313 C327.4781,239.5313 327.0406,239.4219 326.0875,239.4219 C323.4156,239.4219 321.4,241.4375 321.4,244.0625 L321.4,245.1563 Z " fill="#000000"/><text fill="#000000" font-family="sans-serif" font-size="12" lengthAdjust="spacing" textLength="52" x="343.6" y="247.948">Schedule</text><line style="stroke:#A80036;stroke-width:1.5;" x1="298" x2="412" y1="260" y2="260"/><line style="stroke:#A80036;stroke-width:1.5;" x1="298" x2="412" y1="268" y2="268"/><ellipse cx="308" cy="279" fill="#84BE84" rx="3" ry="3" style="stroke:#038048;stroke-width:1.0;"/><text fill="#000000" font-family="sans-serif" font-size="11" lengthAdjust="spacing" textLength="28" x="317" y="282.2189">new()</text><rect fill="#F24D5C" height="6" style="stroke:#C82930;stroke-width:1.0;" width="6" x="305" y="289.1999"/><text fill="#000000" font-family="sans-serif" font-size="11" lengthAdjust="spacing" textLength="90" x="317" y="295.4188">send_to_authors()</text><!--MD5=[6c17448015f535cdffe68567d3fefb00]
reverse link User to Administrator/Editor--><path codeLine="73" d="M701.42,168.58 C683.33,186.67 664.92,205.08 649.16,220.84 " fill="none" id="User-backto-Administrator/Editor" style="stroke:#A80036;stroke-width:1.0;"/><polygon fill="none" points="696.7,163.4,715.79,154.21,706.6,173.3,696.7,163.4" style="stroke:#A80036;stroke-width:1.0;"/><!--MD5=[df0aff42320f68e13c5bc42d0b77f536]
reverse link User to Referee--><path codeLine="74" d="M785,174.29 C785,193.33 785,212.38 785,227.99 " fill="none" id="User-backto-Referee" style="stroke:#A80036;stroke-width:1.0;"/><polygon fill="none" points="778,174.21,785,154.21,792,174.21,778,174.21" style="stroke:#A80036;stroke-width:1.0;"/><!--MD5=[262e47c73878fbd46c417c5dc9ef2cff]
reverse link User to Author--><path codeLine="75" d="M913.62,164.94 C949.09,186.99 985.82,209.81 1015.07,227.99 " fill="none" id="User-backto-Author" style="stroke:#A80036;stroke-width:1.0;"/><polygon fill="none" points="909.64,170.71,896.35,154.21,917.03,158.82,909.64,170.71" style="stroke:#A80036;stroke-width:1.0;"/><!--MD5=[b194f03644c542e7fc4cfc14720352bc]
link Invitation to DatabaseHelper--><!--MD5=[936872a6ba07e7a83aff76e7d5322dd5]
link DatabaseHelper to PaperSubmission--><!--MD5=[8631f673ceedee4e9a6f77be65115f70]
link Invitation to PaperTypes--><!--MD5=[96b208348a7cce321d9817d6388b7b20]
link PaperTypes to AuthorDetails--><!--MD5=[ff3c406dd87494fee1d7e2b3685204d9]
link AuthorDetails to Schedule--><!--MD5=[69df7006df615130aacce8951118f059]
@startuml

class User {
      +email
      +username
      -password

      +register(email, username, password)
      +login(username, password)
      +change_password(old_password, new_password)
      +pay_attendance()
}

class "Administrator/Editor" {

      +assign_referee(referee_email)
      +make_decision()
      +edit_schedule()

}

class Invitation {

}

class Referee {
      +accept_invitation()
      +evaluate_paper()
}

class DatabaseHelper {
      -db_connection
      +new_user(user)
      +verify_credentials(username, password)
      +change_password(user, old_password, new_password)
}


'remember to limit the size to 7MB'
class PaperSubmission {
      +paper_type: PaperTypes
      +file: FileObject
      +key_words
      +abstract
      +main_source

      -validate_submission()
      +save_submission()
      +submit()
}

enum PaperTypes {
     PDF
     Word
     LaTeX
}

class AuthorDetails {
      +name
      +affiliation
      +contact_information
}

class Author {
      +request_submission(author_information: List<AuthorDetails>, paper: Paper)
      +save_submission()
}

class Schedule {
      +new()
      -send_to_authors()
}

User <|- - "Administrator/Editor"
User <|- - Referee
User <|- - Author
@enduml

@startuml

class User {
      +email
      +username
      -password

      +register(email, username, password)
      +login(username, password)
      +change_password(old_password, new_password)
      +pay_attendance()
}

class "Administrator/Editor" {

      +assign_referee(referee_email)
      +make_decision()
      +edit_schedule()

}

class Invitation {

}

class Referee {
      +accept_invitation()
      +evaluate_paper()
}

class DatabaseHelper {
      -db_connection
      +new_user(user)
      +verify_credentials(username, password)
      +change_password(user, old_password, new_password)
}


class PaperSubmission {
      +paper_type: PaperTypes
      +file: FileObject
      +key_words
      +abstract
      +main_source

      -validate_submission()
      +save_submission()
      +submit()
}

enum PaperTypes {
     PDF
     Word
     LaTeX
}

class AuthorDetails {
      +name
      +affiliation
      +contact_information
}

class Author {
      +request_submission(author_information: List<AuthorDetails>, paper: Paper)
      +save_submission()
}

class Schedule {
      +new()
      -send_to_authors()
}

User <|- - "Administrator/Editor"
User <|- - Referee
User <|- - Author
@enduml

PlantUML version 1.2021.00(Sun Jan 10 03:25:05 MST 2021)
(GPL source distribution)
Java Runtime: OpenJDK Runtime Environment
JVM: OpenJDK 64-Bit Server VM
Default Encoding: UTF-8
Language: en
Country: CA
--></g></svg>